{"glyphs":{"0":{"ha":761,"x_min":53,"x_max":708,"o":"m 333 130 q 343 125 333 130 q 381 121 353 121 q 428 130 408 121 q 459 163 447 139 q 478 208 471 188 q 488 277 485 229 q 491 357 490 325 q 492 457 492 389 l 492 553 q 491 653 492 621 q 488 733 490 685 q 478 801 485 781 q 459 847 471 822 q 428 880 447 871 q 381 889 408 889 q 333 880 353 889 q 302 847 314 871 q 283 801 290 822 q 274 733 276 781 q 270 653 271 685 q 269 553 269 621 l 269 457 q 270 357 269 389 q 274 277 271 325 q 283 208 276 229 q 302 163 290 188 q 333 130 314 139 m 637 90 q 601 36 637 90 q 381 -17 565 -17 q 124 90 196 -17 q 53 433 53 196 l 53 576 q 124 920 53 814 q 381 1026 196 1026 q 637 920 565 1026 q 708 576 708 814 l 708 433 q 637 90 708 196 z "},"1":{"ha":460,"x_min":15,"x_max":385,"o":"m 172 0 l 172 753 l 15 753 l 15 883 q 163 904 131 886 q 218 1007 196 922 l 385 1007 l 385 0 l 172 0 z "},"2":{"ha":699,"x_min":42,"x_max":654,"o":"m 42 0 l 42 151 l 154 292 q 372 588 311 489 q 432 769 432 688 q 343 888 432 888 q 273 846 293 888 q 253 708 253 804 l 253 696 l 54 696 l 54 707 q 127 947 54 868 q 360 1025 200 1025 q 574 962 499 1025 q 649 783 649 899 q 587 569 649 678 q 385 282 525 461 l 289 161 l 654 161 l 654 0 l 42 0 z "},"3":{"ha":722,"x_min":44,"x_max":676,"o":"m 339 -17 q 44 275 44 -17 l 44 281 l 243 281 l 243 275 q 265 158 243 196 q 343 121 286 121 q 436 164 413 121 q 460 286 460 207 q 432 409 460 368 q 319 450 404 450 l 257 450 l 257 593 l 314 593 q 403 631 379 593 q 428 743 428 669 q 409 853 428 817 q 333 889 390 889 q 265 858 283 889 q 247 743 247 828 l 247 736 l 49 736 l 49 743 q 343 1026 49 1026 q 647 765 647 1026 q 604 613 647 669 q 500 538 561 556 q 676 286 676 483 q 591 55 676 126 q 339 -17 506 -17 z "},"4":{"ha":735,"x_min":26,"x_max":707,"o":"m 374 0 l 374 242 l 26 242 l 26 392 l 378 1007 l 588 1007 l 588 404 l 707 404 l 707 242 l 588 242 l 588 0 l 374 0 m 176 404 l 374 404 l 374 749 l 176 404 z "},"5":{"ha":706,"x_min":44,"x_max":660,"o":"m 347 -17 q 127 53 210 -17 q 44 275 44 122 l 44 281 l 243 281 l 243 275 q 267 159 243 197 q 347 121 290 121 q 420 165 399 121 q 442 299 442 210 l 442 368 q 340 546 442 546 q 250 450 269 546 l 58 457 l 103 1008 l 633 1008 l 633 847 l 268 847 l 247 585 q 310 659 264 628 q 418 690 356 690 q 601 613 543 690 q 660 374 660 535 l 660 300 q 347 -17 660 -17 z "},"6":{"ha":726,"x_min":53,"x_max":682,"o":"m 375 -17 q 122 89 192 -17 q 53 433 53 194 l 53 576 q 122 921 53 815 q 375 1026 192 1026 q 589 954 521 1026 q 657 757 657 882 l 657 749 l 458 749 l 458 756 q 438 858 458 828 q 372 889 417 889 q 324 876 343 889 q 294 844 306 864 q 278 786 283 825 q 271 710 272 747 q 269 610 269 674 l 269 560 q 331 635 288 604 q 438 667 375 667 q 682 350 682 667 l 682 300 q 607 62 682 140 q 375 -17 532 -17 m 364 121 q 464 299 464 121 l 464 343 q 364 521 464 521 q 265 343 265 521 l 265 299 q 364 121 265 121 z "},"7":{"ha":626,"x_min":19,"x_max":615,"o":"m 106 0 q 442 846 111 474 l 19 846 l 19 1007 l 615 1007 l 615 846 q 392 463 457 658 q 326 0 326 267 l 106 0 z "},"8":{"ha":749,"x_min":44,"x_max":703,"o":"m 621 54 q 580 19 621 54 q 374 -17 539 -17 q 126 54 208 -17 q 44 286 44 125 q 203 538 44 481 q 109 615 151 558 q 67 765 67 672 q 374 1026 67 1026 q 681 765 681 1026 q 638 615 681 672 q 544 538 596 558 q 703 286 703 481 q 621 54 703 125 m 283 162 q 294 141 283 162 q 374 121 306 121 q 464 162 442 121 q 486 283 486 203 l 486 296 q 464 417 486 376 q 374 458 442 458 q 283 417 306 458 q 261 296 261 376 l 261 283 q 283 162 261 203 m 374 593 q 445 626 429 593 q 461 736 461 660 l 461 746 q 457 824 461 797 q 433 869 453 850 q 374 889 413 889 q 302 856 318 889 q 286 746 286 822 l 286 736 q 290 658 286 685 q 315 613 294 632 q 374 593 335 593 z "},"9":{"ha":726,"x_min":44,"x_max":674,"o":"m 351 -17 q 138 56 206 -17 q 69 253 69 128 l 69 261 l 268 261 l 268 254 q 289 151 268 182 q 354 121 310 121 q 402 133 383 121 q 432 165 421 146 q 449 224 443 185 q 456 299 454 263 q 457 400 457 336 l 457 450 q 395 374 439 406 q 289 343 351 343 q 44 660 44 343 l 44 710 q 119 948 44 869 q 351 1026 194 1026 q 604 921 535 1026 q 674 576 674 815 l 674 433 q 604 89 674 194 q 351 -17 535 -17 m 363 489 q 461 667 461 489 l 461 711 q 363 889 461 889 q 263 711 263 889 l 263 667 q 363 489 263 489 z "}," ":{"ha":250,"x_min":0,"x_max":0,"o":""},"!":{"ha":344,"x_min":60,"x_max":285,"o":"m 97 307 l 65 749 l 65 1007 l 279 1007 l 279 749 l 247 307 l 97 307 m 60 0 l 60 215 l 285 215 l 285 0 l 60 0 z "},"\"":{"ha":603,"x_min":53,"x_max":550,"o":"m 226 654 l 99 654 l 53 1007 l 272 1007 l 226 654 m 504 654 l 376 654 l 331 1007 l 550 1007 l 504 654 z "},"#":{"ha":818,"x_min":22,"x_max":796,"o":"m 414 0 l 450 260 l 294 260 l 258 0 l 101 0 l 138 260 l 22 260 l 40 408 l 157 408 l 186 617 l 74 617 l 90 767 l 207 767 l 240 1007 l 397 1007 l 364 767 l 519 767 l 553 1007 l 710 1007 l 676 767 l 796 767 l 778 617 l 656 617 l 626 408 l 744 408 l 728 260 l 607 260 l 571 0 l 414 0 m 343 617 l 314 408 l 469 408 l 499 617 l 343 617 z "},"$":{"ha":725,"x_min":33,"x_max":699,"o":"m 335 -124 l 335 -7 q 33 329 33 8 l 33 338 l 251 338 l 251 329 q 278 183 251 228 q 372 139 306 139 q 455 169 428 139 q 482 269 482 200 q 453 360 482 325 q 365 421 424 394 l 279 460 q 98 582 153 517 q 43 768 43 647 q 121 965 43 897 q 335 1035 199 1032 l 335 1135 l 411 1135 l 411 1032 q 609 947 540 1019 q 678 731 678 875 l 678 726 l 463 726 l 463 731 q 435 852 463 817 q 347 888 407 888 q 256 776 256 888 q 332 654 256 686 l 429 610 q 537 557 497 579 q 619 499 576 535 q 680 413 661 463 q 699 296 699 363 q 624 79 699 156 q 411 -7 549 3 l 411 -124 l 335 -124 z "},"%":{"ha":1096,"x_min":29,"x_max":1067,"o":"m 215 514 q 246 523 235 514 q 262 559 257 532 q 267 608 267 586 q 268 681 268 629 q 268 688 268 685 q 268 696 268 692 l 268 750 q 268 765 268 756 q 267 838 268 815 q 262 888 267 861 q 246 924 257 914 q 215 933 235 933 q 183 923 194 933 q 166 882 171 913 q 160 829 161 851 q 160 750 160 807 l 160 696 q 174 539 160 567 q 215 514 188 515 m 215 431 q 69 489 108 431 q 29 682 29 547 l 29 764 q 69 958 29 899 q 215 1017 108 1017 q 360 957 319 1017 q 401 764 401 897 l 401 682 q 361 490 401 549 q 215 431 321 431 m 354 0 l 650 1007 l 742 1007 l 446 0 l 354 0 m 881 72 q 926 110 918 72 q 933 256 933 149 l 933 310 q 933 325 933 315 q 933 398 933 375 q 927 447 932 421 q 911 483 922 474 q 881 493 900 493 q 848 483 860 493 q 831 442 836 472 q 826 389 826 411 q 825 310 825 367 l 825 256 q 826 176 825 199 q 831 124 826 154 q 848 83 836 93 q 881 72 860 72 m 881 -11 q 734 48 774 -11 q 694 242 694 107 l 694 324 q 734 517 694 458 q 881 576 774 576 q 1026 517 985 576 q 1067 324 1067 457 l 1067 242 q 1026 49 1067 108 q 881 -11 985 -11 z "},"&":{"ha":896,"x_min":18,"x_max":888,"o":"m 328 -18 q 103 58 189 -18 q 18 269 18 133 q 45 386 18 335 q 106 467 72 438 q 208 540 140 496 l 236 558 l 224 575 q 153 691 174 642 q 133 806 133 740 q 206 966 133 907 q 393 1025 279 1025 q 570 971 496 1025 q 644 804 644 917 q 606 663 644 719 q 486 553 567 607 l 469 542 l 608 361 q 647 556 647 453 l 814 556 q 715 224 810 368 l 888 0 l 668 0 l 603 83 q 328 -18 494 -18 m 356 128 q 513 200 456 128 l 326 442 l 310 431 q 239 360 257 394 q 221 274 221 326 q 257 171 221 214 q 356 128 293 128 m 310 810 q 322 744 310 771 q 368 674 335 717 l 381 657 l 400 671 q 479 796 479 725 q 456 863 479 840 q 393 886 432 886 q 334 866 358 886 q 310 810 310 846 z "},"'":{"ha":325,"x_min":53,"x_max":272,"o":"m 226 654 l 99 654 l 53 1007 l 272 1007 l 226 654 z "},"(":{"ha":369,"x_min":31,"x_max":396,"o":"m 221 1007 l 396 1007 q 228 382 228 726 q 396 -243 228 35 l 221 -243 q 88 32 144 -131 q 31 382 31 194 q 88 731 31 568 q 221 1007 144 893 z "},")":{"ha":369,"x_min":-25,"x_max":340,"o":"m -25 -243 q 143 382 143 38 q -25 1007 143 729 l 150 1007 q 283 733 226 896 q 340 382 340 569 q 283 32 340 194 q 150 -243 226 -131 l -25 -243 z "},"*":{"ha":521,"x_min":14,"x_max":507,"o":"m 178 553 l 68 626 l 154 744 l 14 794 l 60 914 l 194 863 l 194 1007 l 322 1007 l 322 863 l 460 914 l 507 794 l 364 746 l 450 628 l 350 553 l 260 674 l 178 553 z "},"+":{"ha":761,"x_min":22,"x_max":739,"o":"m 297 0 l 297 293 l 22 293 l 22 454 l 297 454 l 297 747 l 464 747 l 464 454 l 739 454 l 739 293 l 464 293 l 464 0 l 297 0 z "},",":{"ha":331,"x_min":36,"x_max":278,"o":"m 36 -228 l 150 0 l 53 0 l 53 214 l 278 214 l 278 -14 l 161 -228 l 36 -228 z "},"-":{"ha":489,"x_min":60,"x_max":429,"o":"m 60 258 l 60 440 l 429 440 l 429 258 l 60 258 z "},".":{"ha":331,"x_min":53,"x_max":278,"o":"m 53 0 l 53 215 l 278 215 l 278 0 l 53 0 z "},"/":{"ha":546,"x_min":0,"x_max":546,"o":"m 0 0 l 339 1007 l 546 1007 l 207 0 l 0 0 z "},":":{"ha":331,"x_min":53,"x_max":278,"o":"m 53 0 l 53 215 l 278 215 l 278 0 l 53 0 m 53 532 l 53 747 l 278 747 l 278 532 l 53 532 z "},";":{"ha":331,"x_min":36,"x_max":278,"o":"m 53 532 l 53 747 l 278 747 l 278 532 l 53 532 m 36 -228 l 150 0 l 53 0 l 53 214 l 278 214 l 278 -14 l 161 -228 l 36 -228 z "},"<":{"ha":761,"x_min":94,"x_max":668,"o":"m 668 -11 l 94 282 l 94 461 l 668 754 l 668 571 l 278 371 l 668 172 l 668 -11 z "},"=":{"ha":761,"x_min":82,"x_max":679,"o":"m 82 142 l 82 303 l 679 303 l 679 142 l 82 142 m 82 443 l 82 606 l 679 606 l 679 443 l 82 443 z "},">":{"ha":761,"x_min":94,"x_max":668,"o":"m 668 282 l 94 -11 l 94 172 l 485 371 l 94 571 l 94 754 l 668 461 l 668 282 z "},"?":{"ha":658,"x_min":28,"x_max":631,"o":"m 185 306 l 185 353 q 188 406 185 382 q 201 451 192 429 q 218 486 211 472 q 243 519 225 500 q 270 547 261 539 q 303 577 279 556 q 338 607 328 599 q 397 680 381 644 q 414 769 414 715 q 392 861 414 835 q 324 888 371 888 q 250 851 274 888 q 226 717 226 814 l 226 711 l 28 711 l 28 717 q 106 949 28 874 q 328 1025 185 1025 q 631 771 631 1025 q 610 660 631 711 q 567 585 589 610 q 513 531 546 560 q 463 488 496 515 q 419 450 429 461 q 397 412 408 439 q 386 349 386 385 l 386 306 l 185 306 m 172 0 l 172 215 l 397 215 l 397 0 l 172 0 z "},"@":{"ha":1131,"x_min":76,"x_max":1056,"o":"m 561 -17 q 212 127 347 -17 q 76 499 76 271 q 226 874 76 722 q 585 1026 375 1026 q 918 903 783 1026 q 1054 579 1053 781 q 978 317 1056 419 q 806 214 901 214 q 705 247 743 214 q 661 331 667 279 q 591 244 636 276 q 490 211 546 211 q 359 278 417 211 q 301 469 301 344 q 372 704 301 601 q 544 807 443 807 q 635 772 599 807 q 683 689 671 738 q 686 735 685 701 q 689 782 688 769 l 789 782 l 757 468 q 804 311 740 311 q 907 383 861 311 q 951 571 953 456 q 842 830 950 731 q 582 929 735 929 q 297 803 413 929 q 181 497 181 676 q 292 201 181 322 q 556 81 404 81 q 799 135 714 81 l 842 47 q 561 -17 733 -17 m 514 326 q 606 394 569 326 q 643 553 643 461 q 619 654 643 618 q 551 690 594 690 q 465 626 499 690 q 432 469 432 561 q 454 363 432 400 q 514 326 476 326 z "},"A":{"ha":763,"x_min":7,"x_max":756,"o":"m 7 0 l 247 1007 l 514 1007 l 756 0 l 531 0 l 489 211 l 261 211 l 221 0 l 7 0 m 375 793 l 289 351 l 461 351 l 375 793 z "},"B":{"ha":760,"x_min":75,"x_max":729,"o":"m 75 0 l 75 1007 l 375 1007 q 615 952 532 1007 q 699 754 699 897 q 656 607 699 660 q 553 536 614 554 q 729 294 729 483 q 646 63 729 126 q 390 0 563 0 l 75 0 m 296 149 l 376 149 q 481 185 456 149 q 507 300 507 222 q 480 416 507 379 q 367 453 453 453 l 296 453 l 296 149 m 296 588 l 361 588 q 452 622 428 588 q 476 726 476 656 q 452 828 476 796 q 361 860 428 860 l 296 860 l 296 588 z "},"C":{"ha":751,"x_min":44,"x_max":721,"o":"m 396 -17 q 122 90 200 -17 q 44 433 44 196 l 44 576 q 122 920 44 814 q 396 1026 200 1026 q 640 943 560 1026 q 721 683 721 860 l 721 671 l 501 671 l 501 681 q 478 836 501 799 q 394 874 454 874 q 328 854 353 874 q 294 781 304 835 q 281 683 283 728 q 279 538 279 638 l 279 472 q 281 327 279 372 q 294 228 283 282 q 328 156 304 175 q 394 136 353 136 q 478 174 454 136 q 501 329 501 211 l 501 339 l 721 339 l 721 326 q 640 67 721 150 q 396 -17 560 -17 z "},"D":{"ha":786,"x_min":75,"x_max":742,"o":"m 296 149 l 324 149 q 422 158 389 149 q 476 206 456 168 q 502 301 497 244 q 507 472 507 358 l 507 538 q 503 678 507 628 q 490 769 500 729 q 458 827 481 810 q 406 852 436 844 q 324 860 375 860 l 296 860 l 296 149 m 75 0 l 75 1007 l 314 1007 q 505 989 431 1007 q 635 923 579 971 q 717 786 692 875 q 742 558 742 697 l 742 442 q 717 218 742 306 q 635 83 692 131 q 504 17 579 35 q 314 0 429 0 l 75 0 z "},"E":{"ha":660,"x_min":75,"x_max":629,"o":"m 75 0 l 75 1007 l 629 1007 l 629 846 l 296 846 l 296 596 l 600 596 l 600 435 l 296 435 l 296 161 l 629 161 l 629 0 l 75 0 z "},"F":{"ha":615,"x_min":75,"x_max":601,"o":"m 75 0 l 75 1007 l 601 1007 l 601 846 l 296 846 l 296 596 l 572 596 l 572 435 l 296 435 l 296 0 l 75 0 z "},"G":{"ha":803,"x_min":44,"x_max":735,"o":"m 544 390 l 374 390 l 374 536 l 735 536 l 735 0 l 579 0 l 572 113 q 356 -17 517 -17 q 116 93 188 -17 q 44 433 44 203 l 44 576 q 124 919 44 813 q 399 1026 203 1026 q 644 945 560 1026 q 729 708 729 864 l 729 700 l 510 700 l 510 710 q 483 840 510 807 q 394 874 456 874 q 328 854 353 874 q 294 781 304 835 q 281 683 283 728 q 279 538 279 638 l 279 472 q 281 327 279 372 q 294 228 283 282 q 328 156 304 175 q 394 136 353 136 q 508 188 472 136 q 544 381 544 240 l 544 390 z "},"H":{"ha":819,"x_min":75,"x_max":744,"o":"m 75 0 l 75 1007 l 296 1007 l 296 596 l 524 596 l 524 1007 l 744 1007 l 744 0 l 524 0 l 524 435 l 296 435 l 296 0 l 75 0 z "},"I":{"ha":371,"x_min":75,"x_max":296,"o":"m 75 0 l 75 1007 l 296 1007 l 296 0 l 75 0 z "},"J":{"ha":664,"x_min":-7,"x_max":589,"o":"m 296 -17 q 69 56 144 -17 q -7 286 -7 129 l -7 315 l 214 315 l 214 286 q 231 166 214 196 q 290 136 247 136 q 351 166 333 136 q 368 286 368 196 l 368 1008 l 589 1008 l 589 285 q 515 49 589 114 q 296 -17 440 -17 z "},"K":{"ha":786,"x_min":75,"x_max":793,"o":"m 567 0 l 372 400 l 296 282 l 296 0 l 75 0 l 75 1007 l 296 1007 l 296 596 l 551 1007 l 768 1007 l 501 597 l 793 0 l 567 0 z "},"L":{"ha":644,"x_min":75,"x_max":629,"o":"m 75 0 l 75 1007 l 296 1007 l 296 161 l 629 161 l 629 0 l 75 0 z "},"M":{"ha":1031,"x_min":75,"x_max":956,"o":"m 75 0 l 75 1007 l 382 1007 l 515 253 l 649 1007 l 956 1007 l 956 0 l 758 0 l 758 792 l 756 792 l 746 713 l 601 0 l 429 0 l 285 713 l 275 792 l 272 792 l 272 0 l 75 0 z "},"N":{"ha":819,"x_min":75,"x_max":744,"o":"m 75 0 l 75 1007 l 331 1007 l 549 283 l 549 1007 l 744 1007 l 744 0 l 489 0 l 271 724 l 271 0 l 75 0 z "},"O":{"ha":792,"x_min":44,"x_max":747,"o":"m 444 865 q 434 869 444 865 q 396 874 424 874 q 347 865 368 874 q 314 832 326 856 q 294 786 301 808 q 284 717 288 764 q 280 638 281 671 q 279 538 279 604 l 279 472 q 280 372 279 406 q 284 292 281 339 q 294 224 288 246 q 314 178 301 201 q 347 145 326 154 q 396 136 368 136 q 444 145 424 136 q 478 178 465 154 q 497 224 490 201 q 508 292 504 246 q 512 372 511 339 q 513 472 513 406 l 513 538 q 512 638 513 604 q 508 717 511 671 q 497 786 504 764 q 478 832 490 808 q 444 865 465 856 m 669 90 q 631 36 669 90 q 396 -17 592 -17 q 122 90 200 -17 q 44 433 44 196 l 44 576 q 122 920 44 814 q 396 1026 200 1026 q 669 920 592 1026 q 747 576 747 814 l 747 433 q 669 90 747 196 z "},"P":{"ha":738,"x_min":75,"x_max":724,"o":"m 75 0 l 75 1007 l 361 1007 q 510 996 450 1007 q 622 954 571 985 q 699 862 674 924 q 724 707 724 800 q 699 551 724 614 q 623 456 674 489 q 510 411 572 424 q 361 399 449 399 l 296 399 l 296 0 l 75 0 m 296 547 l 333 547 q 459 576 429 547 q 489 703 489 604 q 458 831 489 801 q 333 860 428 860 l 296 860 l 296 547 z "},"Q":{"ha":792,"x_min":44,"x_max":747,"o":"m 396 -17 q 122 90 200 -17 q 44 433 44 196 l 44 576 q 122 920 44 814 q 396 1026 200 1026 q 669 920 592 1026 q 747 576 747 814 l 747 433 q 643 60 747 158 l 743 -74 l 621 -164 l 503 -7 q 396 -17 447 -17 m 444 865 q 434 869 444 865 q 396 874 424 874 q 347 865 368 874 q 314 832 326 856 q 294 786 301 808 q 284 717 288 764 q 280 638 281 671 q 279 538 279 604 l 279 472 q 280 372 279 406 q 284 292 281 339 q 294 224 288 246 q 314 178 301 201 q 347 145 326 154 q 396 136 368 136 q 444 145 424 136 q 478 178 465 154 q 497 224 490 201 q 508 292 504 246 q 512 372 511 339 q 513 472 513 406 l 513 538 q 512 638 513 604 q 508 717 511 671 q 497 786 504 764 q 478 832 490 808 q 444 865 465 856 z "},"R":{"ha":783,"x_min":75,"x_max":753,"o":"m 525 0 l 389 435 q 356 433 378 433 l 296 433 l 296 0 l 75 0 l 75 1007 l 361 1007 q 652 948 565 1007 q 739 731 739 889 q 701 572 739 631 q 588 483 663 514 l 753 0 l 525 0 m 296 568 l 360 568 q 480 596 451 568 q 508 713 508 624 q 480 831 508 801 q 360 860 451 860 l 296 860 l 296 568 z "},"S":{"ha":725,"x_min":33,"x_max":699,"o":"m 372 -17 q 33 321 33 -17 l 33 331 l 251 331 l 251 321 q 278 176 251 219 q 372 132 306 132 q 456 163 429 132 q 482 261 482 193 q 453 351 482 317 q 365 413 424 386 l 279 451 q 98 574 153 508 q 43 761 43 640 q 124 960 43 893 q 349 1026 206 1026 q 592 956 507 1026 q 678 724 678 885 l 678 718 l 463 718 l 463 724 q 435 845 463 810 q 347 881 407 881 q 256 768 256 881 q 332 646 256 678 l 429 601 q 537 549 497 571 q 619 490 576 526 q 680 405 661 454 q 699 289 699 356 q 613 60 699 138 q 372 -17 528 -17 z "},"T":{"ha":663,"x_min":15,"x_max":647,"o":"m 221 0 l 221 846 l 15 846 l 15 1007 l 647 1007 l 647 846 l 442 846 l 442 0 l 221 0 z "},"U":{"ha":778,"x_min":61,"x_max":717,"o":"m 389 -17 q 219 1 282 -17 q 121 71 157 19 q 73 196 85 122 q 61 397 61 269 l 61 1007 l 282 1007 l 282 397 q 282 385 282 393 q 283 292 282 321 q 289 226 283 264 q 306 174 294 189 q 337 147 317 158 q 389 136 357 136 q 441 147 421 136 q 472 173 461 158 q 489 226 483 188 q 495 292 494 264 q 496 385 496 321 q 496 397 496 393 l 496 1007 l 717 1007 l 717 408 q 709 236 717 303 q 682 117 701 169 q 624 37 663 64 q 531 -3 586 10 q 389 -17 475 -17 z "},"V":{"ha":707,"x_min":7,"x_max":700,"o":"m 221 0 l 7 1007 l 233 1007 l 360 224 l 486 1007 l 700 1007 l 488 0 l 221 0 z "},"W":{"ha":1014,"x_min":15,"x_max":999,"o":"m 142 0 l 15 1007 l 215 1007 l 294 243 l 414 1007 l 600 1007 l 719 243 l 799 1007 l 999 1007 l 872 0 l 622 0 l 507 761 l 392 0 l 142 0 z "},"X":{"ha":738,"x_min":0,"x_max":738,"o":"m 0 0 l 263 515 l 26 1007 l 261 1007 l 372 732 l 493 1007 l 717 1007 l 478 539 l 738 0 l 506 0 l 368 324 l 221 0 l 0 0 z "},"Y":{"ha":722,"x_min":0,"x_max":722,"o":"m 247 0 l 247 421 l 0 1007 l 224 1007 l 361 615 l 503 1007 l 722 1007 l 468 418 l 468 0 l 247 0 z "},"Z":{"ha":714,"x_min":31,"x_max":676,"o":"m 31 0 l 31 149 l 421 846 l 74 846 l 74 1007 l 663 1007 l 663 860 l 271 161 l 676 161 l 676 0 l 31 0 z "},"[":{"ha":411,"x_min":75,"x_max":404,"o":"m 75 -243 l 75 1007 l 404 1007 l 404 868 l 246 868 l 246 -103 l 404 -103 l 404 -243 l 75 -243 z "},"\\":{"ha":543,"x_min":0,"x_max":543,"o":"m 336 0 l 0 1007 l 208 1007 l 543 0 l 336 0 z "},"]":{"ha":411,"x_min":7,"x_max":336,"o":"m 7 -243 l 7 -103 l 165 -103 l 165 868 l 7 868 l 7 1007 l 336 1007 l 336 -243 l 7 -243 z "},"^":{"ha":771,"x_min":31,"x_max":742,"o":"m 31 469 l 307 1007 l 465 1007 l 742 469 l 556 469 l 386 817 l 217 469 l 31 469 z "},"_":{"ha":681,"x_min":31,"x_max":651,"o":"m 31 -169 l 31 13 l 651 13 l 651 -169 l 31 -169 z "},"`":{"ha":388,"x_min":31,"x_max":358,"o":"m 228 836 l 31 1007 l 272 1007 l 358 836 l 228 836 z "},"a":{"ha":665,"x_min":36,"x_max":622,"o":"m 236 -17 q 90 40 144 -17 q 36 193 36 97 l 36 201 q 65 309 36 265 q 174 394 94 353 q 403 482 253 436 l 403 524 q 384 612 403 583 q 322 640 365 640 q 232 525 232 640 l 232 513 l 46 513 l 46 525 q 124 703 46 635 q 332 771 201 771 q 544 712 475 771 q 613 506 614 653 l 611 243 q 622 0 611 61 l 431 0 l 425 100 q 236 -17 375 -17 m 317 117 q 408 318 408 117 l 408 367 q 319 335 353 351 q 270 301 285 319 q 251 267 256 282 q 247 225 247 251 l 247 213 q 317 117 247 117 z "},"b":{"ha":722,"x_min":60,"x_max":682,"o":"m 464 396 q 449 574 464 522 q 378 626 433 626 q 290 565 313 626 q 267 376 267 504 q 290 188 267 249 q 378 128 313 128 q 449 180 433 128 q 464 358 464 232 l 464 396 m 682 428 l 682 326 q 626 68 682 153 q 450 -17 571 -17 q 342 15 390 -17 q 274 94 294 46 l 274 0 l 60 0 l 60 1007 l 274 1007 l 274 660 q 342 740 294 708 q 450 771 390 771 q 626 686 571 771 q 682 428 682 601 z "},"c":{"ha":644,"x_min":40,"x_max":622,"o":"m 340 -17 q 40 321 40 -17 l 40 435 q 340 771 40 771 q 544 707 467 771 q 622 493 622 643 l 622 488 l 424 488 l 424 493 q 403 604 424 575 q 340 633 383 633 q 306 628 319 633 q 283 606 292 622 q 269 576 274 590 q 262 531 264 563 q 259 477 260 499 q 258 410 258 456 l 258 344 q 259 277 258 299 q 262 224 260 256 q 269 178 264 192 q 283 148 274 164 q 306 126 292 132 q 340 121 319 121 q 403 150 383 121 q 424 263 424 179 l 424 267 l 622 267 l 622 261 q 544 47 622 111 q 340 -17 467 -17 z "},"d":{"ha":722,"x_min":40,"x_max":663,"o":"m 40 428 q 96 686 40 601 q 272 771 151 771 q 380 740 332 771 q 449 660 428 708 l 449 1007 l 663 1007 l 663 0 l 449 0 l 449 94 q 380 15 428 46 q 272 -17 332 -17 q 96 68 151 -17 q 40 326 40 153 l 40 428 m 258 396 l 258 358 q 274 180 258 232 q 344 128 289 128 q 433 188 410 128 q 456 376 456 249 q 433 565 456 504 q 344 626 410 626 q 274 574 289 626 q 258 396 258 522 z "},"e":{"ha":682,"x_min":40,"x_max":644,"o":"m 340 -17 q 40 317 40 -17 l 40 440 q 346 771 40 771 q 577 681 510 771 q 644 396 644 592 l 644 356 l 251 356 l 251 344 q 269 173 251 225 q 344 121 288 121 q 413 147 389 121 q 436 247 436 174 l 436 253 l 635 253 l 635 246 q 610 120 635 174 q 541 38 585 67 q 448 -3 497 10 q 340 -17 399 -17 m 251 482 l 251 469 l 449 469 l 449 482 q 427 602 449 567 q 350 638 406 638 q 273 601 294 638 q 251 482 251 565 z "},"f":{"ha":433,"x_min":-3,"x_max":426,"o":"m 86 0 l 86 615 l -3 615 l -3 747 l 86 747 l 86 807 q 142 967 86 928 q 332 1007 199 1007 l 426 1007 l 426 881 l 375 881 q 315 867 331 881 q 300 810 300 853 l 300 747 l 426 747 l 426 615 l 300 615 l 300 0 l 86 0 z "},"g":{"ha":729,"x_min":40,"x_max":669,"o":"m 350 -269 q 144 -212 222 -269 q 65 -39 65 -156 l 65 -36 l 261 -36 l 261 -39 q 287 -106 261 -83 q 356 -129 313 -129 q 432 -101 408 -129 q 456 8 456 -74 l 456 136 q 294 26 410 26 q 108 106 176 26 q 40 343 40 186 l 40 440 q 108 688 40 606 q 294 771 175 771 q 456 660 408 771 l 456 747 l 669 747 l 669 67 q 592 -190 669 -111 q 350 -269 515 -269 m 351 171 q 443 222 422 171 q 464 389 464 274 q 460 492 464 454 q 446 565 457 531 q 412 613 435 599 q 351 626 389 626 q 276 577 293 626 q 258 414 258 528 l 258 383 q 276 220 258 269 q 351 171 293 171 z "},"h":{"ha":693,"x_min":60,"x_max":638,"o":"m 274 0 l 60 0 l 60 1007 l 274 1007 l 274 660 q 458 771 324 771 q 597 708 556 771 q 638 517 638 644 l 638 0 l 424 0 l 424 475 q 422 533 424 511 q 415 576 421 554 q 397 609 410 599 q 361 619 383 619 q 319 607 336 619 q 294 578 303 594 q 280 529 285 561 q 274 472 275 497 q 274 403 274 446 l 274 0 z "},"i":{"ha":333,"x_min":60,"x_max":274,"o":"m 60 829 l 60 1007 l 274 1007 l 274 829 l 60 829 m 60 0 l 60 747 l 274 747 l 274 0 l 60 0 z "},"j":{"ha":333,"x_min":-40,"x_max":274,"o":"m -40 -243 l -40 -114 l -1 -114 q 50 -92 40 -114 q 60 -6 60 -71 l 60 747 l 274 747 l 274 7 q 217 -193 274 -143 q 18 -243 160 -243 l -40 -243 m 60 829 l 60 1007 l 274 1007 l 274 829 l 60 829 z "},"k":{"ha":657,"x_min":60,"x_max":682,"o":"m 478 0 l 347 286 l 274 183 l 274 0 l 60 0 l 60 1007 l 274 1007 l 274 453 l 481 747 l 676 747 l 471 460 l 682 0 l 478 0 z "},"l":{"ha":333,"x_min":60,"x_max":274,"o":"m 60 0 l 60 1007 l 274 1007 l 274 0 l 60 0 z "},"m":{"ha":1057,"x_min":60,"x_max":1001,"o":"m 274 403 l 274 0 l 60 0 l 60 747 l 274 747 l 274 660 q 458 771 324 771 q 622 646 589 771 q 822 771 678 771 q 960 708 919 771 q 1001 517 1001 644 l 1001 0 l 788 0 l 788 475 q 786 533 788 511 q 779 576 785 554 q 760 609 774 599 q 725 619 747 619 q 683 607 700 619 q 658 578 667 594 q 644 529 649 561 q 638 472 639 497 q 638 403 638 446 l 638 0 l 424 0 l 424 475 q 422 533 424 511 q 415 576 421 554 q 397 609 410 599 q 361 619 383 619 q 319 607 336 619 q 294 578 303 594 q 280 529 285 561 q 274 472 275 497 q 274 403 274 446 z "},"n":{"ha":693,"x_min":60,"x_max":638,"o":"m 274 0 l 60 0 l 60 747 l 274 747 l 274 660 q 458 771 324 771 q 597 708 556 771 q 638 517 638 644 l 638 0 l 424 0 l 424 475 q 422 533 424 511 q 415 576 421 554 q 397 609 410 599 q 361 619 383 619 q 319 607 336 619 q 294 578 303 594 q 280 529 285 561 q 274 472 275 497 q 274 403 274 446 l 274 0 z "},"o":{"ha":692,"x_min":40,"x_max":651,"o":"m 418 583 q 410 608 418 583 q 346 633 403 633 q 274 583 289 633 q 258 410 258 532 l 258 344 q 274 172 258 222 q 346 121 289 121 q 418 172 403 121 q 433 344 433 222 l 433 410 q 418 583 433 532 m 651 319 q 346 -17 651 -17 q 40 319 40 -17 l 40 435 q 346 771 40 771 q 651 435 651 771 l 651 319 z "},"p":{"ha":722,"x_min":60,"x_max":682,"o":"m 464 396 q 449 574 464 522 q 378 626 433 626 q 290 565 313 626 q 267 376 267 504 q 290 188 267 249 q 378 128 313 128 q 449 180 433 128 q 464 358 464 232 l 464 396 m 682 428 l 682 326 q 626 68 682 153 q 450 -17 571 -17 q 342 15 390 -17 q 274 94 294 46 l 274 -243 l 60 -243 l 60 747 l 274 747 l 274 660 q 342 740 294 708 q 450 771 390 771 q 626 686 571 771 q 682 428 682 601 z "},"q":{"ha":722,"x_min":40,"x_max":663,"o":"m 40 428 q 96 686 40 601 q 272 771 151 771 q 380 740 332 771 q 449 660 428 708 l 449 747 l 663 747 l 663 -243 l 449 -243 l 449 94 q 380 15 428 46 q 272 -17 332 -17 q 96 68 151 -17 q 40 326 40 153 l 40 428 m 258 396 l 258 358 q 274 180 258 232 q 344 128 289 128 q 433 188 410 128 q 456 376 456 249 q 433 565 456 504 q 344 626 410 626 q 274 574 289 626 q 258 396 258 522 z "},"r":{"ha":469,"x_min":60,"x_max":456,"o":"m 60 0 l 60 747 l 271 747 l 271 576 q 325 699 286 650 q 429 747 364 747 l 456 747 l 456 529 l 400 529 q 298 503 322 529 q 274 382 274 476 l 274 0 l 60 0 z "},"s":{"ha":638,"x_min":31,"x_max":610,"o":"m 329 -17 q 108 54 186 -17 q 31 246 31 125 l 31 250 l 225 250 l 225 244 q 252 153 225 186 q 329 121 279 121 q 418 194 418 121 q 397 255 418 233 q 326 294 376 276 l 214 338 q 82 421 125 371 q 40 554 39 471 q 119 717 40 663 q 319 771 197 771 q 513 713 435 771 q 590 529 590 654 l 590 526 l 401 526 l 401 529 q 306 635 401 635 q 250 616 271 633 q 229 568 229 599 q 293 486 229 510 l 396 444 q 467 415 442 426 q 524 384 493 404 q 571 343 556 364 q 598 289 586 322 q 610 214 610 256 q 531 42 610 101 q 329 -17 453 -17 z "},"t":{"ha":465,"x_min":0,"x_max":429,"o":"m 276 0 q 128 44 168 0 q 89 201 89 88 l 89 615 l 0 615 l 0 747 l 89 747 l 89 950 l 303 950 l 303 747 l 429 747 l 429 615 l 303 615 l 303 222 q 318 149 303 167 q 375 132 333 132 l 429 132 l 429 0 l 276 0 z "},"u":{"ha":683,"x_min":56,"x_max":624,"o":"m 253 -15 q 101 49 146 -15 q 56 256 56 114 l 56 747 l 269 747 l 269 313 q 271 242 269 265 q 277 188 272 218 q 296 144 282 157 q 332 131 310 131 q 365 138 351 131 q 388 162 379 144 q 401 193 396 179 q 408 240 406 207 q 410 289 410 272 q 410 347 410 306 l 410 747 l 624 747 l 624 0 l 417 0 l 417 100 q 253 -15 365 -15 z "},"v":{"ha":606,"x_min":0,"x_max":606,"o":"m 167 0 l 0 747 l 210 747 l 301 210 l 406 747 l 606 747 l 428 0 l 167 0 z "},"w":{"ha":836,"x_min":28,"x_max":808,"o":"m 113 0 l 28 747 l 206 747 l 247 231 l 319 747 l 515 747 l 589 232 l 631 747 l 808 747 l 724 0 l 494 0 l 418 567 l 340 0 l 113 0 z "},"x":{"ha":674,"x_min":14,"x_max":660,"o":"m 332 207 l 217 0 l 14 0 l 236 379 l 29 747 l 243 747 l 342 561 l 444 747 l 646 747 l 439 392 l 660 0 l 443 0 l 332 207 z "},"y":{"ha":597,"x_min":0,"x_max":597,"o":"m 60 -243 l 60 -111 l 113 -111 q 179 -92 158 -111 q 207 -32 200 -74 l 214 4 l 0 747 l 208 747 l 315 207 l 403 747 l 597 747 l 422 0 q 333 -194 389 -144 q 147 -243 276 -243 l 60 -243 z "},"z":{"ha":588,"x_min":31,"x_max":558,"o":"m 31 0 l 31 132 l 326 615 l 63 615 l 63 747 l 547 747 l 547 615 l 251 132 l 558 132 l 558 0 l 31 0 z "},"{":{"ha":446,"x_min":7,"x_max":432,"o":"m 390 1007 l 432 1007 l 432 854 l 410 854 q 319 833 342 854 q 297 756 297 811 l 297 572 q 263 441 297 483 q 165 382 228 399 l 165 379 q 263 321 228 363 q 297 190 297 279 l 297 8 q 319 -69 297 -47 q 410 -90 342 -90 l 432 -90 l 432 -243 l 390 -243 q 177 -193 240 -243 q 114 -3 114 -143 l 114 161 q 93 269 114 235 q 7 304 72 304 l 7 457 q 93 492 72 457 q 114 600 114 526 l 114 767 q 177 957 114 907 q 390 1007 240 1007 z "},"|":{"ha":344,"x_min":75,"x_max":269,"o":"m 75 -125 l 75 1007 l 269 1007 l 269 -125 l 75 -125 z "},"}":{"ha":446,"x_min":14,"x_max":439,"o":"m 14 1007 l 56 1007 q 269 957 206 1007 q 332 767 332 907 l 332 600 q 353 492 332 526 q 439 457 374 457 l 439 304 q 353 269 374 304 q 332 161 332 235 l 332 -3 q 269 -193 332 -143 q 56 -243 206 -243 l 14 -243 l 14 -90 l 36 -90 q 126 -69 104 -90 q 149 8 149 -47 l 149 190 q 183 321 149 279 q 281 379 218 363 l 281 382 q 183 441 218 399 q 149 572 149 483 l 149 756 q 126 833 149 811 q 36 854 104 854 l 14 854 l 14 1007 z "},"~":{"ha":761,"x_min":61,"x_max":700,"o":"m 61 219 q 110 421 65 353 q 260 489 154 489 q 350 465 308 489 q 426 419 392 442 q 490 396 460 396 q 535 417 521 396 q 551 489 550 438 l 700 489 q 651 287 696 354 q 503 219 607 219 q 381 266 449 219 q 271 313 313 313 q 226 292 240 313 q 210 219 211 271 l 61 219 z "}," ":{"ha":250,"x_min":0,"x_max":0,"o":""},"¡":{"ha":344,"x_min":60,"x_max":285,"o":"m 65 -243 l 65 15 l 97 458 l 247 458 l 279 15 l 279 -243 l 65 -243 m 60 532 l 60 747 l 285 747 l 285 532 l 60 532 z "},"¢":{"ha":644,"x_min":40,"x_max":622,"o":"m 310 -115 l 310 -8 q 40 329 40 6 l 40 440 q 106 683 40 600 q 310 775 172 767 l 310 869 l 379 869 l 379 774 q 622 499 622 756 l 622 493 l 424 493 l 424 499 q 403 610 424 581 q 340 639 383 639 q 306 633 319 639 q 283 612 292 628 q 268 581 274 596 q 260 536 263 567 q 258 483 258 506 q 257 415 257 460 l 257 353 q 258 285 257 308 q 260 231 258 263 q 268 185 263 200 q 283 155 274 171 q 306 133 292 139 q 340 128 319 128 q 403 158 383 128 q 424 271 424 188 l 424 275 l 622 275 l 622 269 q 379 -7 622 11 l 379 -115 l 310 -115 z "},"£":{"ha":711,"x_min":35,"x_max":697,"o":"m 35 433 l 35 543 l 165 543 q 148 579 161 553 q 129 617 135 606 q 115 653 124 629 q 101 694 106 678 q 92 735 96 711 q 89 782 89 758 q 167 965 89 904 q 385 1026 244 1026 q 601 952 529 1026 q 672 718 672 878 l 672 713 l 472 713 l 472 726 q 452 854 472 819 q 382 889 432 889 q 317 860 335 889 q 300 776 300 832 q 303 727 300 751 q 316 676 307 703 q 331 633 325 649 q 351 586 338 618 q 369 543 365 554 l 596 543 l 596 433 l 403 433 q 406 396 406 408 q 293 178 406 242 l 294 175 q 378 185 339 192 q 449 160 401 181 q 526 142 496 140 q 633 176 581 143 l 697 44 q 536 -14 608 -14 q 422 13 488 -14 q 321 40 357 40 q 126 -17 229 40 l 54 129 q 176 233 140 178 q 211 363 211 289 q 203 433 211 400 l 35 433 z "},"¤":{"ha":885,"x_min":75,"x_max":810,"o":"m 144 115 l 75 182 l 171 279 q 110 472 110 364 q 171 665 110 581 l 75 763 l 144 829 l 239 736 q 439 804 325 804 q 643 733 553 804 l 740 829 l 810 763 l 711 664 q 771 472 771 578 q 710 283 771 367 l 810 182 l 740 115 l 642 213 q 439 143 550 143 q 240 210 329 143 l 144 115 m 438 300 q 560 349 513 300 q 607 472 607 399 q 560 599 607 549 q 438 649 513 649 q 322 599 367 649 q 276 472 276 549 q 322 349 276 399 q 438 300 367 300 z "},"¥":{"ha":722,"x_min":0,"x_max":722,"o":"m 68 338 l 68 440 l 243 440 l 0 1007 l 219 1007 l 361 615 l 507 1007 l 722 1007 l 474 440 l 649 440 l 649 338 l 464 338 l 464 225 l 649 225 l 649 124 l 464 124 l 464 0 l 251 0 l 251 124 l 68 124 l 68 225 l 251 225 l 251 338 l 68 338 z "},"¦":{"ha":314,"x_min":60,"x_max":254,"o":"m 60 -125 l 60 299 l 254 299 l 254 -125 l 60 -125 m 60 583 l 60 1007 l 254 1007 l 254 583 l 60 583 z "},"§":{"ha":726,"x_min":31,"x_max":697,"o":"m 356 -236 q 209 -214 275 -236 q 96 -132 143 -192 q 49 17 49 -72 l 49 19 l 257 19 l 257 17 q 287 -72 257 -44 q 360 -99 317 -99 q 427 -76 400 -97 q 454 -15 454 -56 q 378 90 454 44 l 214 181 q 75 284 119 235 q 31 414 31 333 q 190 613 31 533 q 76 821 76 697 q 161 985 76 926 q 381 1043 246 1043 q 594 982 507 1043 q 681 790 681 921 l 681 788 l 474 788 l 474 790 q 444 878 474 851 q 372 906 415 906 q 285 822 285 903 q 356 717 285 758 l 518 626 q 654 524 611 574 q 697 393 697 475 q 542 194 697 274 q 661 -14 661 108 q 576 -178 661 -119 q 356 -236 490 -236 m 240 432 q 339 314 240 368 l 413 272 q 488 375 488 314 q 394 493 488 442 l 318 535 q 240 432 240 490 z "},"¨":{"ha":524,"x_min":31,"x_max":494,"o":"m 31 836 l 31 1007 l 217 1007 l 217 836 l 31 836 m 308 836 l 308 1007 l 494 1007 l 494 836 l 308 836 z "},"©":{"ha":1146,"x_min":60,"x_max":1086,"o":"m 273 191 q 332 129 273 191 q 572 67 392 67 q 872 191 753 67 q 992 507 992 315 q 872 820 992 697 q 572 943 753 943 q 273 820 392 943 q 154 507 154 697 q 273 191 154 315 m 936 133 q 861 58 936 133 q 572 -17 786 -17 q 209 133 358 -17 q 60 507 60 282 q 209 879 60 732 q 572 1026 358 1026 q 936 879 786 1026 q 1086 507 1086 732 q 936 133 1086 282 m 578 211 q 413 270 457 211 q 368 463 368 329 l 368 553 q 413 746 368 686 q 578 806 458 806 q 725 758 678 806 q 772 604 772 711 l 772 594 l 611 594 l 611 601 q 605 681 611 667 q 576 694 599 694 q 560 691 567 694 q 549 679 553 688 q 544 662 546 671 q 541 636 542 653 q 540 606 540 619 q 541 569 540 593 q 542 529 542 546 l 542 486 q 541 445 542 469 q 540 408 540 421 q 541 377 540 394 q 544 351 542 360 q 549 335 546 343 q 560 323 553 326 q 576 319 567 319 q 605 333 599 319 q 611 411 611 346 l 611 418 l 772 418 l 772 411 q 725 257 772 303 q 578 211 678 211 z "},"ª":{"ha":389,"x_min":15,"x_max":357,"o":"m 131 597 q 46 631 76 597 q 15 721 15 665 l 15 731 q 50 808 15 776 q 168 865 79 838 l 222 883 l 222 917 q 214 952 222 940 q 182 964 206 964 q 147 952 156 964 q 139 907 139 940 l 139 899 l 24 899 l 24 907 q 183 1040 24 1040 q 311 1011 271 1040 q 351 892 351 982 l 351 832 l 350 746 q 357 608 350 649 l 239 608 l 236 654 q 131 597 206 597 m 183 676 q 216 696 207 676 q 225 757 225 715 l 225 814 l 193 801 q 147 739 147 783 l 147 728 q 183 676 147 676 z "},"«":{"ha":549,"x_min":42,"x_max":507,"o":"m 251 57 l 42 267 l 42 517 l 251 722 l 251 483 l 150 390 l 251 297 l 251 57 m 507 57 l 297 267 l 297 517 l 507 722 l 507 483 l 406 390 l 507 297 l 507 57 z "},"¬":{"ha":761,"x_min":10,"x_max":696,"o":"m 529 97 l 529 446 l 10 446 l 10 607 l 696 607 l 696 97 l 529 97 z "},"­":{"ha":489,"x_min":60,"x_max":429,"o":"m 60 258 l 60 440 l 429 440 l 429 258 l 60 258 z "},"®":{"ha":1146,"x_min":60,"x_max":1086,"o":"m 936 133 q 861 58 936 133 q 572 -17 786 -17 q 209 133 358 -17 q 60 507 60 282 q 209 879 60 732 q 572 1026 358 1026 q 936 879 786 1026 q 1086 507 1086 732 q 936 133 1086 282 m 273 191 q 332 129 273 191 q 572 67 392 67 q 872 191 753 67 q 992 507 992 315 q 872 820 992 697 q 572 943 753 943 q 273 820 392 943 q 154 507 154 697 q 273 191 154 315 m 526 226 l 375 226 l 375 801 l 551 801 q 721 765 671 800 q 771 629 771 729 q 699 493 771 535 l 785 226 l 639 226 l 576 464 l 526 464 l 526 226 m 526 693 l 526 560 l 549 560 q 592 574 583 561 q 600 629 600 588 q 592 681 600 669 q 547 693 583 693 l 526 693 z "},"¯":{"ha":410,"x_min":31,"x_max":381,"o":"m 31 850 l 31 990 l 381 990 l 381 850 l 31 850 z "},"°":{"ha":467,"x_min":11,"x_max":457,"o":"m 233 692 q 308 723 279 692 q 338 800 338 754 q 308 879 338 847 q 233 911 279 911 q 160 879 189 911 q 132 800 132 847 q 160 723 132 754 q 233 692 189 692 m 233 578 q 76 643 142 578 q 11 800 11 708 q 76 959 11 893 q 233 1025 142 1025 q 392 959 326 1025 q 457 800 457 893 q 392 643 457 708 q 233 578 326 578 z "},"±":{"ha":761,"x_min":56,"x_max":707,"o":"m 299 228 l 299 407 l 56 407 l 56 568 l 299 568 l 299 747 l 464 747 l 464 568 l 707 568 l 707 407 l 464 407 l 464 228 l 299 228 m 56 0 l 56 161 l 707 161 l 707 0 l 56 0 z "},"²":{"ha":407,"x_min":33,"x_max":383,"o":"m 33 608 l 33 701 l 97 781 q 217 943 185 889 q 249 1040 249 997 q 204 1101 249 1101 q 173 1080 182 1101 q 164 1006 164 1058 l 164 997 l 38 997 l 38 1004 q 81 1140 38 1096 q 215 1185 124 1185 q 340 1149 297 1185 q 382 1049 382 1114 q 349 930 382 990 q 240 776 315 869 l 186 707 l 383 707 l 383 608 l 33 608 z "},"³":{"ha":414,"x_min":25,"x_max":388,"o":"m 193 597 q 25 765 25 597 l 25 768 l 147 768 l 147 765 q 157 701 147 721 q 194 681 167 681 q 241 703 229 681 q 253 769 253 726 q 249 815 253 799 q 230 844 246 831 q 183 857 214 857 l 147 857 l 147 944 l 181 944 q 224 964 214 944 q 235 1022 235 983 q 226 1082 235 1063 q 188 1101 217 1101 q 157 1086 165 1101 q 149 1024 149 1071 l 149 1021 l 26 1021 l 26 1024 q 194 1185 26 1185 q 368 1036 368 1185 q 344 951 368 982 q 288 911 319 919 q 388 769 388 879 q 338 638 388 678 q 193 597 289 597 z "},"´":{"ha":388,"x_min":31,"x_max":358,"o":"m 31 836 l 117 1007 l 358 1007 l 161 836 l 31 836 z "},"µ":{"ha":688,"x_min":43,"x_max":628,"o":"m 421 100 q 272 -14 374 -8 q 256 -243 272 -142 l 43 -243 q 60 -4 60 -144 l 60 747 l 274 747 l 274 313 q 275 242 274 265 q 281 188 276 218 q 300 144 286 157 q 336 131 314 131 q 369 138 356 131 q 392 162 383 144 q 405 193 400 179 q 412 240 410 207 q 414 289 414 272 q 414 347 414 306 l 414 747 l 628 747 l 628 0 l 421 0 l 421 100 z "},"μ":{"ha":688,"x_min":43,"x_max":628,"o":"m 421 100 q 272 -14 374 -8 q 256 -243 272 -142 l 43 -243 q 60 -4 60 -144 l 60 747 l 274 747 l 274 313 q 275 242 274 265 q 281 188 276 218 q 300 144 286 157 q 336 131 314 131 q 369 138 356 131 q 392 162 383 144 q 405 193 400 179 q 412 240 410 207 q 414 289 414 272 q 414 347 414 306 l 414 747 l 628 747 l 628 0 l 421 0 l 421 100 z "},"¶":{"ha":635,"x_min":1,"x_max":560,"o":"m 231 -124 l 231 532 q 1 768 1 557 q 83 953 1 899 q 318 1007 165 1007 l 560 1007 l 560 -124 l 446 -124 l 446 900 l 344 900 l 344 -124 l 231 -124 z "},"·":{"ha":331,"x_min":53,"x_max":278,"o":"m 53 267 l 53 482 l 278 482 l 278 267 l 53 267 z "},"¸":{"ha":371,"x_min":31,"x_max":342,"o":"m 163 -269 q 31 -249 88 -269 l 54 -178 q 142 -197 88 -197 q 213 -157 213 -197 q 158 -118 213 -118 q 104 -131 128 -118 l 63 -107 l 133 8 l 214 8 l 169 -64 q 222 -58 188 -58 q 306 -84 269 -60 q 342 -153 342 -108 q 289 -240 342 -210 q 163 -269 236 -269 z "},"¹":{"ha":253,"x_min":0,"x_max":213,"o":"m 90 608 l 90 1025 l 0 1025 l 0 1106 q 80 1119 61 1108 q 111 1175 99 1129 l 213 1175 l 213 608 l 90 608 z "},"º":{"ha":397,"x_min":21,"x_max":375,"o":"m 199 681 q 223 687 214 681 q 235 712 232 693 q 240 747 239 731 q 240 800 240 764 l 240 839 q 240 890 240 875 q 235 924 239 906 q 223 950 232 943 q 199 957 214 957 q 163 931 169 957 q 156 839 156 904 l 156 800 q 163 706 156 732 q 199 681 169 681 m 199 597 q 21 788 21 597 l 21 853 q 199 1040 21 1040 q 375 853 375 1040 l 375 788 q 199 597 375 597 z "},"»":{"ha":549,"x_min":42,"x_max":507,"o":"m 42 57 l 42 297 l 143 390 l 42 483 l 42 722 l 251 517 l 251 267 l 42 57 m 297 57 l 297 297 l 399 390 l 297 483 l 297 722 l 507 517 l 507 267 l 297 57 z "},"¼":{"ha":910,"x_min":0,"x_max":893,"o":"m 90 440 l 90 857 l 0 857 l 0 938 q 80 951 61 940 q 111 1007 99 961 l 213 1007 l 213 440 l 90 440 m 176 0 l 472 1007 l 564 1007 l 268 0 l 176 0 m 707 0 l 707 133 l 504 133 l 504 224 l 700 567 l 825 567 l 825 233 l 893 233 l 893 133 l 825 133 l 825 0 l 707 0 m 601 233 l 707 233 l 707 410 l 601 233 z "},"½":{"ha":894,"x_min":0,"x_max":871,"o":"m 90 440 l 90 857 l 0 857 l 0 938 q 80 951 61 940 q 111 1007 99 961 l 213 1007 l 213 440 l 90 440 m 176 0 l 472 1007 l 564 1007 l 268 0 l 176 0 m 521 0 l 521 93 l 585 172 q 704 335 672 281 q 736 432 736 389 q 692 493 736 493 q 660 472 669 493 q 651 397 651 450 l 651 389 l 525 389 l 525 396 q 568 532 525 488 q 703 576 611 576 q 827 541 785 576 q 869 440 869 506 q 836 322 869 382 q 728 168 803 261 l 674 99 l 871 99 l 871 0 l 521 0 z "},"¾":{"ha":1071,"x_min":25,"x_max":1054,"o":"m 193 429 q 25 597 25 429 l 25 600 l 147 600 l 147 597 q 157 533 147 553 q 194 513 167 513 q 241 535 229 513 q 253 601 253 558 q 249 647 253 631 q 230 676 246 663 q 183 689 214 689 l 147 689 l 147 776 l 181 776 q 224 796 214 776 q 235 854 235 815 q 226 914 235 894 q 188 933 217 933 q 157 918 165 933 q 149 856 149 903 l 149 853 l 26 853 l 26 856 q 194 1017 26 1017 q 368 868 368 1017 q 344 783 368 814 q 288 743 319 751 q 388 601 388 711 q 338 469 388 510 q 193 429 289 429 m 338 0 l 633 1007 l 725 1007 l 429 0 l 338 0 m 868 0 l 868 133 l 665 133 l 665 224 l 861 567 l 986 567 l 986 233 l 1054 233 l 1054 133 l 986 133 l 986 0 l 868 0 m 763 233 l 868 233 l 868 410 l 763 233 z "},"¿":{"ha":658,"x_min":28,"x_max":631,"o":"m 331 -261 q 28 -7 28 -261 q 49 103 28 53 q 91 179 69 154 q 146 233 113 204 q 196 276 163 249 q 240 314 229 303 q 261 352 250 325 q 272 415 272 379 l 272 460 l 474 460 l 474 411 q 470 358 474 382 q 457 313 467 335 q 440 278 447 292 q 415 244 433 264 q 388 217 397 225 q 355 187 379 208 q 321 157 331 165 q 261 84 278 119 q 244 -6 244 49 q 266 -97 244 -71 q 335 -124 288 -124 q 408 -87 385 -124 q 432 47 432 -50 l 432 53 l 631 53 l 631 47 q 552 -185 631 -110 q 331 -261 474 -261 m 261 532 l 261 747 l 486 747 l 486 532 l 261 532 z "},"À":{"ha":763,"x_min":7,"x_max":756,"o":"m 335 1074 l 153 1231 l 414 1231 l 490 1074 l 335 1074 m 7 0 l 247 1007 l 514 1007 l 756 0 l 531 0 l 489 211 l 261 211 l 221 0 l 7 0 m 375 793 l 289 351 l 461 351 l 375 793 z "},"Á":{"ha":763,"x_min":7,"x_max":756,"o":"m 274 1074 l 350 1231 l 611 1231 l 429 1074 l 274 1074 m 7 0 l 247 1007 l 514 1007 l 756 0 l 531 0 l 489 211 l 261 211 l 221 0 l 7 0 m 375 793 l 289 351 l 461 351 l 375 793 z "},"Â":{"ha":763,"x_min":7,"x_max":756,"o":"m 7 0 l 247 1007 l 514 1007 l 756 0 l 531 0 l 489 211 l 261 211 l 221 0 l 7 0 m 375 793 l 289 351 l 461 351 l 375 793 m 119 1074 l 283 1231 l 478 1231 l 642 1074 l 450 1074 l 381 1142 l 311 1074 l 119 1074 z "},"Ã":{"ha":763,"x_min":7,"x_max":756,"o":"m 7 0 l 247 1007 l 514 1007 l 756 0 l 531 0 l 489 211 l 261 211 l 221 0 l 7 0 m 375 793 l 289 351 l 461 351 l 375 793 m 453 1196 q 496 1242 494 1196 l 611 1242 q 565 1117 606 1164 q 465 1071 525 1071 q 385 1094 438 1071 q 311 1117 333 1117 q 268 1071 269 1117 l 153 1071 q 199 1195 158 1149 q 299 1242 239 1242 q 385 1219 333 1242 q 453 1196 436 1196 z "},"Ä":{"ha":763,"x_min":7,"x_max":756,"o":"m 7 0 l 247 1007 l 514 1007 l 756 0 l 531 0 l 489 211 l 261 211 l 221 0 l 7 0 m 375 793 l 289 351 l 461 351 l 375 793 m 150 1074 l 150 1231 l 336 1231 l 336 1074 l 150 1074 m 428 1074 l 428 1231 l 614 1231 l 614 1074 l 428 1074 z "},"Å":{"ha":763,"x_min":7,"x_max":756,"o":"m 7 0 l 247 1007 l 514 1007 l 756 0 l 531 0 l 489 211 l 261 211 l 221 0 l 7 0 m 375 793 l 289 351 l 461 351 l 375 793 m 340 1139 q 348 1131 340 1139 q 382 1122 357 1122 q 424 1139 407 1122 q 442 1181 442 1156 q 424 1223 442 1206 q 382 1240 407 1240 q 340 1223 357 1240 q 322 1181 322 1206 q 340 1139 322 1156 m 471 1096 q 453 1079 471 1096 q 382 1063 435 1063 q 293 1096 329 1063 q 257 1181 257 1129 q 294 1265 257 1231 q 382 1299 331 1299 q 470 1265 433 1299 q 507 1181 507 1231 q 471 1096 507 1129 z "},"Æ":{"ha":1163,"x_min":0,"x_max":1132,"o":"m 0 0 l 579 1007 l 1132 1007 l 1132 846 l 799 846 l 799 594 l 1101 594 l 1101 433 l 799 433 l 799 161 l 1132 161 l 1132 0 l 579 0 l 579 204 l 338 204 l 233 0 l 0 0 m 579 672 l 421 367 l 579 367 l 579 672 z "},"Ç":{"ha":751,"x_min":44,"x_max":721,"o":"m 388 -269 q 256 -249 313 -269 l 279 -178 q 367 -197 313 -197 q 438 -157 438 -197 q 383 -118 438 -118 q 329 -131 349 -118 l 288 -107 l 344 -14 q 111 105 178 -1 q 44 433 44 211 l 44 576 q 122 920 44 814 q 396 1026 200 1026 q 640 943 560 1026 q 721 683 721 860 l 721 671 l 501 671 l 501 681 q 478 836 501 799 q 394 874 454 874 q 328 854 353 874 q 294 781 304 835 q 281 683 283 728 q 279 538 279 638 l 279 472 q 281 327 279 372 q 294 228 283 282 q 328 156 304 175 q 394 136 353 136 q 478 174 454 136 q 501 329 501 211 l 501 339 l 721 339 l 721 326 q 647 74 721 157 q 424 -15 572 -8 l 394 -64 q 447 -58 413 -58 q 531 -84 496 -60 q 567 -153 567 -108 q 514 -240 567 -210 q 388 -269 461 -269 z "},"È":{"ha":660,"x_min":75,"x_max":629,"o":"m 304 1074 l 122 1231 l 383 1231 l 460 1074 l 304 1074 m 75 0 l 75 1007 l 629 1007 l 629 846 l 296 846 l 296 596 l 600 596 l 600 435 l 296 435 l 296 161 l 629 161 l 629 0 l 75 0 z "},"É":{"ha":660,"x_min":75,"x_max":629,"o":"m 249 1074 l 325 1231 l 586 1231 l 404 1074 l 249 1074 m 75 0 l 75 1007 l 629 1007 l 629 846 l 296 846 l 296 596 l 600 596 l 600 435 l 296 435 l 296 161 l 629 161 l 629 0 l 75 0 z "},"Ê":{"ha":660,"x_min":75,"x_max":629,"o":"m 89 1074 l 253 1231 l 447 1231 l 611 1074 l 419 1074 l 350 1142 l 281 1074 l 89 1074 m 75 0 l 75 1007 l 629 1007 l 629 846 l 296 846 l 296 596 l 600 596 l 600 435 l 296 435 l 296 161 l 629 161 l 629 0 l 75 0 z "},"Ë":{"ha":660,"x_min":75,"x_max":629,"o":"m 125 1074 l 125 1231 l 311 1231 l 311 1074 l 125 1074 m 403 1074 l 403 1231 l 589 1231 l 589 1074 l 403 1074 m 75 0 l 75 1007 l 629 1007 l 629 846 l 296 846 l 296 596 l 600 596 l 600 435 l 296 435 l 296 161 l 629 161 l 629 0 l 75 0 z "},"Ì":{"ha":371,"x_min":-56,"x_max":296,"o":"m 126 1074 l -56 1231 l 206 1231 l 282 1074 l 126 1074 m 75 0 l 75 1007 l 296 1007 l 296 0 l 75 0 z "},"Í":{"ha":371,"x_min":75,"x_max":429,"o":"m 92 1074 l 168 1231 l 429 1231 l 247 1074 l 92 1074 m 75 0 l 75 1007 l 296 1007 l 296 0 l 75 0 z "},"Î":{"ha":371,"x_min":-60,"x_max":435,"o":"m -60 1076 l 90 1233 l 285 1233 l 435 1076 l 257 1076 l 188 1144 l 118 1076 l -60 1076 m 75 0 l 75 1007 l 296 1007 l 296 0 l 75 0 z "},"Ï":{"ha":371,"x_min":-32,"x_max":404,"o":"m -32 1076 l -32 1233 l 154 1233 l 154 1076 l -32 1076 m 218 1076 l 218 1233 l 404 1233 l 404 1076 l 218 1076 m 75 0 l 75 1007 l 296 1007 l 296 0 l 75 0 z "},"Ð":{"ha":786,"x_min":-25,"x_max":742,"o":"m -25 426 l -25 590 l 75 590 l 75 1007 l 314 1007 q 505 989 431 1007 q 635 923 579 971 q 717 786 692 875 q 742 558 742 697 l 742 442 q 717 218 742 306 q 635 83 692 131 q 504 17 579 35 q 314 0 429 0 l 75 0 l 75 426 l -25 426 m 296 149 l 324 149 q 422 158 389 149 q 476 206 456 168 q 502 301 497 244 q 507 472 507 358 l 507 538 q 503 678 507 628 q 490 769 500 729 q 458 827 481 810 q 406 852 436 844 q 324 860 375 860 l 296 860 l 296 590 l 422 590 l 422 426 l 296 426 l 296 149 z "},"Ñ":{"ha":819,"x_min":75,"x_max":744,"o":"m 75 0 l 75 1007 l 331 1007 l 549 283 l 549 1007 l 744 1007 l 744 0 l 489 0 l 271 724 l 271 0 l 75 0 m 481 1196 q 524 1242 522 1196 l 639 1242 q 593 1117 633 1164 q 493 1071 553 1071 q 413 1094 465 1071 q 339 1117 361 1117 q 296 1071 297 1117 l 181 1071 q 226 1195 186 1149 q 326 1242 267 1242 q 413 1219 361 1242 q 481 1196 464 1196 z "},"Ò":{"ha":792,"x_min":44,"x_max":747,"o":"m 444 865 q 434 869 444 865 q 396 874 424 874 q 347 865 368 874 q 314 832 326 856 q 294 786 301 808 q 284 717 288 764 q 280 638 281 671 q 279 538 279 604 l 279 472 q 280 372 279 406 q 284 292 281 339 q 294 224 288 246 q 314 178 301 201 q 347 145 326 154 q 396 136 368 136 q 444 145 424 136 q 478 178 465 154 q 497 224 490 201 q 508 292 504 246 q 512 372 511 339 q 513 472 513 406 l 513 538 q 512 638 513 604 q 508 717 511 671 q 497 786 504 764 q 478 832 490 808 q 444 865 465 856 m 669 90 q 631 36 669 90 q 396 -17 592 -17 q 122 90 200 -17 q 44 433 44 196 l 44 576 q 122 920 44 814 q 396 1026 200 1026 q 669 920 592 1026 q 747 576 747 814 l 747 433 q 669 90 747 196 m 347 1074 l 165 1231 l 426 1231 l 503 1074 l 347 1074 z "},"Ó":{"ha":792,"x_min":44,"x_max":747,"o":"m 444 865 q 434 869 444 865 q 396 874 424 874 q 347 865 368 874 q 314 832 326 856 q 294 786 301 808 q 284 717 288 764 q 280 638 281 671 q 279 538 279 604 l 279 472 q 280 372 279 406 q 284 292 281 339 q 294 224 288 246 q 314 178 301 201 q 347 145 326 154 q 396 136 368 136 q 444 145 424 136 q 478 178 465 154 q 497 224 490 201 q 508 292 504 246 q 512 372 511 339 q 513 472 513 406 l 513 538 q 512 638 513 604 q 508 717 511 671 q 497 786 504 764 q 478 832 490 808 q 444 865 465 856 m 669 90 q 631 36 669 90 q 396 -17 592 -17 q 122 90 200 -17 q 44 433 44 196 l 44 576 q 122 920 44 814 q 396 1026 200 1026 q 669 920 592 1026 q 747 576 747 814 l 747 433 q 669 90 747 196 m 314 1074 l 390 1231 l 651 1231 l 469 1074 l 314 1074 z "},"Ô":{"ha":792,"x_min":44,"x_max":747,"o":"m 146 1074 l 310 1231 l 504 1231 l 668 1074 l 476 1074 l 407 1142 l 338 1074 l 146 1074 m 444 865 q 434 869 444 865 q 396 874 424 874 q 347 865 368 874 q 314 832 326 856 q 294 786 301 808 q 284 717 288 764 q 280 638 281 671 q 279 538 279 604 l 279 472 q 280 372 279 406 q 284 292 281 339 q 294 224 288 246 q 314 178 301 201 q 347 145 326 154 q 396 136 368 136 q 444 145 424 136 q 478 178 465 154 q 497 224 490 201 q 508 292 504 246 q 512 372 511 339 q 513 472 513 406 l 513 538 q 512 638 513 604 q 508 717 511 671 q 497 786 504 764 q 478 832 490 808 q 444 865 465 856 m 669 90 q 631 36 669 90 q 396 -17 592 -17 q 122 90 200 -17 q 44 433 44 196 l 44 576 q 122 920 44 814 q 396 1026 200 1026 q 669 920 592 1026 q 747 576 747 814 l 747 433 q 669 90 747 196 z "},"Õ":{"ha":792,"x_min":44,"x_max":747,"o":"m 444 865 q 434 869 444 865 q 396 874 424 874 q 347 865 368 874 q 314 832 326 856 q 294 786 301 808 q 284 717 288 764 q 280 638 281 671 q 279 538 279 604 l 279 472 q 280 372 279 406 q 284 292 281 339 q 294 224 288 246 q 314 178 301 201 q 347 145 326 154 q 396 136 368 136 q 444 145 424 136 q 478 178 465 154 q 497 224 490 201 q 508 292 504 246 q 512 372 511 339 q 513 472 513 406 l 513 538 q 512 638 513 604 q 508 717 511 671 q 497 786 504 764 q 478 832 490 808 q 444 865 465 856 m 669 90 q 631 36 669 90 q 396 -17 592 -17 q 122 90 200 -17 q 44 433 44 196 l 44 576 q 122 920 44 814 q 396 1026 200 1026 q 669 920 592 1026 q 747 576 747 814 l 747 433 q 669 90 747 196 m 469 1196 q 513 1242 511 1196 l 628 1242 q 582 1117 622 1164 q 482 1071 542 1071 q 402 1094 454 1071 q 328 1117 350 1117 q 285 1071 286 1117 l 169 1071 q 215 1195 175 1149 q 315 1242 256 1242 q 401 1219 350 1242 q 469 1196 453 1196 z "},"Ö":{"ha":792,"x_min":44,"x_max":747,"o":"m 444 865 q 434 869 444 865 q 396 874 424 874 q 347 865 368 874 q 314 832 326 856 q 294 786 301 808 q 284 717 288 764 q 280 638 281 671 q 279 538 279 604 l 279 472 q 280 372 279 406 q 284 292 281 339 q 294 224 288 246 q 314 178 301 201 q 347 145 326 154 q 396 136 368 136 q 444 145 424 136 q 478 178 465 154 q 497 224 490 201 q 508 292 504 246 q 512 372 511 339 q 513 472 513 406 l 513 538 q 512 638 513 604 q 508 717 511 671 q 497 786 504 764 q 478 832 490 808 q 444 865 465 856 m 669 90 q 631 36 669 90 q 396 -17 592 -17 q 122 90 200 -17 q 44 433 44 196 l 44 576 q 122 920 44 814 q 396 1026 200 1026 q 669 920 592 1026 q 747 576 747 814 l 747 433 q 669 90 747 196 m 176 1074 l 176 1231 l 363 1231 l 363 1074 l 176 1074 m 454 1074 l 454 1231 l 640 1231 l 640 1074 l 454 1074 z "},"×":{"ha":761,"x_min":56,"x_max":707,"o":"m 169 42 l 58 158 l 267 367 l 56 579 l 169 694 l 382 481 l 593 692 l 707 578 l 496 367 l 707 156 l 593 42 l 381 253 l 169 42 z "},"Ø":{"ha":792,"x_min":44,"x_max":747,"o":"m 176 -83 l 96 -83 l 156 53 q 44 433 44 149 l 44 576 q 122 920 44 814 q 396 1026 200 1026 q 572 994 500 1026 l 621 1103 l 701 1103 l 636 956 q 747 576 747 860 l 747 433 q 669 90 747 196 q 396 -17 592 -17 q 219 14 289 -17 l 176 -83 m 396 874 q 347 865 368 874 q 314 832 326 856 q 294 786 301 808 q 284 717 288 764 q 280 638 281 671 q 279 538 279 604 l 279 472 q 281 335 279 375 l 490 807 q 396 874 464 874 m 513 538 q 511 672 513 632 l 301 200 q 396 136 326 136 q 444 145 424 136 q 478 178 465 154 q 497 224 490 201 q 508 292 504 246 q 512 372 511 339 q 513 472 513 406 l 513 538 z "},"Ù":{"ha":778,"x_min":61,"x_max":717,"o":"m 313 1074 l 131 1231 l 392 1231 l 468 1074 l 313 1074 m 389 -17 q 219 1 282 -17 q 121 71 157 19 q 73 196 85 122 q 61 397 61 269 l 61 1007 l 282 1007 l 282 397 q 282 385 282 393 q 283 292 282 321 q 289 226 283 264 q 306 174 294 189 q 337 147 317 158 q 389 136 357 136 q 441 147 421 136 q 472 173 461 158 q 489 226 483 188 q 495 292 494 264 q 496 385 496 321 q 496 397 496 393 l 496 1007 l 717 1007 l 717 408 q 709 236 717 303 q 682 117 701 169 q 624 37 663 64 q 531 -3 586 10 q 389 -17 475 -17 z "},"Ú":{"ha":778,"x_min":61,"x_max":717,"o":"m 300 1074 l 376 1231 l 638 1231 l 456 1074 l 300 1074 m 389 -17 q 219 1 282 -17 q 121 71 157 19 q 73 196 85 122 q 61 397 61 269 l 61 1007 l 282 1007 l 282 397 q 282 385 282 393 q 283 292 282 321 q 289 226 283 264 q 306 174 294 189 q 337 147 317 158 q 389 136 357 136 q 441 147 421 136 q 472 173 461 158 q 489 226 483 188 q 495 292 494 264 q 496 385 496 321 q 496 397 496 393 l 496 1007 l 717 1007 l 717 408 q 709 236 717 303 q 682 117 701 169 q 624 37 663 64 q 531 -3 586 10 q 389 -17 475 -17 z "},"Û":{"ha":778,"x_min":61,"x_max":717,"o":"m 129 1074 l 293 1231 l 488 1231 l 651 1074 l 460 1074 l 390 1142 l 321 1074 l 129 1074 m 389 -17 q 219 1 282 -17 q 121 71 157 19 q 73 196 85 122 q 61 397 61 269 l 61 1007 l 282 1007 l 282 397 q 282 385 282 393 q 283 292 282 321 q 289 226 283 264 q 306 174 294 189 q 337 147 317 158 q 389 136 357 136 q 441 147 421 136 q 472 173 461 158 q 489 226 483 188 q 495 292 494 264 q 496 385 496 321 q 496 397 496 393 l 496 1007 l 717 1007 l 717 408 q 709 236 717 303 q 682 117 701 169 q 624 37 663 64 q 531 -3 586 10 q 389 -17 475 -17 z "},"Ü":{"ha":778,"x_min":61,"x_max":717,"o":"m 157 1074 l 157 1231 l 343 1231 l 343 1074 l 157 1074 m 435 1074 l 435 1231 l 621 1231 l 621 1074 l 435 1074 m 389 -17 q 219 1 282 -17 q 121 71 157 19 q 73 196 85 122 q 61 397 61 269 l 61 1007 l 282 1007 l 282 397 q 282 385 282 393 q 283 292 282 321 q 289 226 283 264 q 306 174 294 189 q 337 147 317 158 q 389 136 357 136 q 441 147 421 136 q 472 173 461 158 q 489 226 483 188 q 495 292 494 264 q 496 385 496 321 q 496 397 496 393 l 496 1007 l 717 1007 l 717 408 q 709 236 717 303 q 682 117 701 169 q 624 37 663 64 q 531 -3 586 10 q 389 -17 475 -17 z "},"Ý":{"ha":722,"x_min":0,"x_max":722,"o":"m 261 1074 l 338 1231 l 599 1231 l 417 1074 l 261 1074 m 247 0 l 247 421 l 0 1007 l 224 1007 l 361 615 l 503 1007 l 722 1007 l 468 418 l 468 0 l 247 0 z "},"Þ":{"ha":738,"x_min":75,"x_max":724,"o":"m 75 0 l 75 1007 l 296 1007 l 296 811 l 361 811 q 510 800 450 811 q 622 758 571 789 q 699 666 674 728 q 724 511 724 604 q 699 356 724 418 q 623 260 674 293 q 510 215 572 228 q 361 203 449 203 l 296 203 l 296 0 l 75 0 m 296 351 l 333 351 q 459 380 429 351 q 489 507 489 408 q 458 635 489 606 q 333 664 428 664 l 296 664 l 296 351 z "},"ß":{"ha":744,"x_min":60,"x_max":704,"o":"m 60 0 l 60 728 q 140 960 60 896 q 374 1025 221 1025 q 594 965 514 1025 q 674 782 674 906 q 636 641 674 697 q 550 567 599 585 q 704 307 704 519 q 635 68 704 136 q 403 0 567 0 l 335 0 l 335 132 l 379 132 q 493 307 493 132 q 378 485 493 485 l 335 485 l 335 618 l 368 618 q 465 756 465 618 q 368 888 465 888 q 296 854 319 888 q 272 742 272 821 l 272 0 l 60 0 z "},"à":{"ha":665,"x_min":36,"x_max":622,"o":"m 236 -17 q 90 40 144 -17 q 36 193 36 97 l 36 201 q 65 309 36 265 q 174 394 94 353 q 403 482 253 436 l 403 524 q 384 612 403 583 q 322 640 365 640 q 232 525 232 640 l 232 513 l 46 513 l 46 525 q 124 703 46 635 q 332 771 201 771 q 544 712 475 771 q 613 506 614 653 l 611 243 q 622 0 611 61 l 431 0 l 425 100 q 236 -17 375 -17 m 317 117 q 408 318 408 117 l 408 367 q 319 335 353 351 q 270 301 285 319 q 251 267 256 282 q 247 225 247 251 l 247 213 q 317 117 247 117 m 293 836 l 96 1007 l 338 1007 l 424 836 l 293 836 z "},"á":{"ha":665,"x_min":36,"x_max":622,"o":"m 236 -17 q 90 40 144 -17 q 36 193 36 97 l 36 201 q 65 309 36 265 q 174 394 94 353 q 403 482 253 436 l 403 524 q 384 612 403 583 q 322 640 365 640 q 232 525 232 640 l 232 513 l 46 513 l 46 525 q 124 703 46 635 q 332 771 201 771 q 544 712 475 771 q 613 506 614 653 l 611 243 q 622 0 611 61 l 431 0 l 425 100 q 236 -17 375 -17 m 317 117 q 408 318 408 117 l 408 367 q 319 335 353 351 q 270 301 285 319 q 251 267 256 282 q 247 225 247 251 l 247 213 q 317 117 247 117 m 274 836 l 360 1007 l 601 1007 l 404 836 l 274 836 z "},"â":{"ha":665,"x_min":36,"x_max":622,"o":"m 79 836 l 246 1007 l 426 1007 l 593 836 l 429 836 l 336 908 l 243 836 l 79 836 m 236 -17 q 90 40 144 -17 q 36 193 36 97 l 36 201 q 65 309 36 265 q 174 394 94 353 q 403 482 253 436 l 403 524 q 384 612 403 583 q 322 640 365 640 q 232 525 232 640 l 232 513 l 46 513 l 46 525 q 124 703 46 635 q 332 771 201 771 q 544 712 475 771 q 613 506 614 653 l 611 243 q 622 0 611 61 l 431 0 l 425 100 q 236 -17 375 -17 m 317 117 q 408 318 408 117 l 408 367 q 319 335 353 351 q 270 301 285 319 q 251 267 256 282 q 247 225 247 251 l 247 213 q 317 117 247 117 z "},"ã":{"ha":665,"x_min":36,"x_max":622,"o":"m 236 -17 q 90 40 144 -17 q 36 193 36 97 l 36 201 q 65 309 36 265 q 174 394 94 353 q 403 482 253 436 l 403 524 q 384 612 403 583 q 322 640 365 640 q 232 525 232 640 l 232 513 l 46 513 l 46 525 q 124 703 46 635 q 332 771 201 771 q 544 712 475 771 q 613 506 614 653 l 611 243 q 622 0 611 61 l 431 0 l 425 100 q 236 -17 375 -17 m 317 117 q 408 318 408 117 l 408 367 q 319 335 353 351 q 270 301 285 319 q 251 267 256 282 q 247 225 247 251 l 247 213 q 317 117 247 117 m 408 961 q 451 1007 450 961 l 567 1007 q 521 883 561 929 q 421 836 481 836 q 341 859 393 836 q 267 882 289 882 q 224 836 225 882 l 108 836 q 154 960 114 914 q 254 1007 194 1007 q 340 984 289 1007 q 408 961 392 961 z "},"ä":{"ha":665,"x_min":36,"x_max":622,"o":"m 110 836 l 110 1007 l 296 1007 l 296 836 l 110 836 m 388 836 l 388 1007 l 574 1007 l 574 836 l 388 836 m 236 -17 q 90 40 144 -17 q 36 193 36 97 l 36 201 q 65 309 36 265 q 174 394 94 353 q 403 482 253 436 l 403 524 q 384 612 403 583 q 322 640 365 640 q 232 525 232 640 l 232 513 l 46 513 l 46 525 q 124 703 46 635 q 332 771 201 771 q 544 712 475 771 q 613 506 614 653 l 611 243 q 622 0 611 61 l 431 0 l 425 100 q 236 -17 375 -17 m 317 117 q 408 318 408 117 l 408 367 q 319 335 353 351 q 270 301 285 319 q 251 267 256 282 q 247 225 247 251 l 247 213 q 317 117 247 117 z "},"å":{"ha":665,"x_min":36,"x_max":622,"o":"m 296 902 q 304 894 296 902 q 336 886 313 886 q 376 902 360 886 q 393 942 393 918 q 376 983 393 967 q 336 999 360 999 q 296 983 313 999 q 279 942 279 967 q 296 902 279 918 m 430 853 q 411 836 430 853 q 336 818 392 818 q 242 853 281 818 q 204 942 204 889 q 242 1031 204 996 q 336 1067 281 1067 q 430 1031 392 1067 q 468 942 468 996 q 430 853 468 889 m 236 -17 q 90 40 144 -17 q 36 193 36 97 l 36 201 q 65 309 36 265 q 174 394 94 353 q 403 482 253 436 l 403 524 q 384 612 403 583 q 322 640 365 640 q 232 525 232 640 l 232 513 l 46 513 l 46 525 q 124 703 46 635 q 332 771 201 771 q 544 712 475 771 q 613 506 614 653 l 611 243 q 622 0 611 61 l 431 0 l 425 100 q 236 -17 375 -17 m 317 117 q 408 318 408 117 l 408 367 q 319 335 353 351 q 270 301 285 319 q 251 267 256 282 q 247 225 247 251 l 247 213 q 317 117 247 117 z "},"æ":{"ha":1039,"x_min":31,"x_max":1001,"o":"m 233 -17 q 84 42 138 -17 q 31 201 31 100 l 31 217 q 88 354 31 301 q 289 453 138 400 l 399 489 l 399 553 q 381 622 399 599 q 318 644 363 644 q 248 621 267 644 q 229 535 229 597 l 229 522 l 44 522 l 44 535 q 321 771 44 771 q 517 700 458 771 q 701 769 565 769 q 934 680 867 769 q 1001 394 1001 590 l 1001 354 l 608 354 l 608 303 q 629 164 611 207 q 699 121 647 121 q 767 147 743 121 q 790 247 790 174 l 790 253 l 990 253 l 990 246 q 965 120 990 174 q 897 38 940 67 q 804 -3 854 10 q 696 -17 754 -17 q 540 16 604 -17 q 460 97 476 49 q 368 7 418 31 q 233 -17 318 -17 m 314 114 q 384 151 363 114 q 406 269 406 189 l 406 375 q 339 349 381 363 q 263 302 285 329 q 242 231 242 275 l 242 211 q 314 114 242 114 m 610 468 l 806 468 l 806 493 q 782 603 804 569 q 707 636 760 636 q 632 602 654 636 q 610 492 610 568 l 610 468 z "},"ç":{"ha":644,"x_min":40,"x_max":622,"o":"m 311 -269 q 179 -249 236 -269 l 203 -178 q 290 -197 236 -197 q 361 -157 361 -197 q 307 -118 361 -118 q 253 -131 275 -118 l 211 -107 l 269 -11 q 40 321 40 24 l 40 435 q 340 771 40 771 q 544 707 467 771 q 622 493 622 643 l 622 488 l 424 488 l 424 493 q 403 604 424 575 q 340 633 383 633 q 306 628 319 633 q 283 606 292 622 q 269 576 274 590 q 262 531 264 563 q 259 477 260 499 q 258 410 258 456 l 258 344 q 259 277 258 299 q 262 224 260 256 q 269 178 264 192 q 283 148 274 164 q 306 126 292 132 q 340 121 319 121 q 403 150 383 121 q 424 263 424 179 l 424 267 l 622 267 l 622 261 q 347 -17 622 -11 l 318 -64 q 371 -58 336 -58 q 454 -84 418 -60 q 490 -153 490 -108 q 438 -240 490 -210 q 311 -269 385 -269 z "},"è":{"ha":682,"x_min":40,"x_max":644,"o":"m 340 -17 q 40 317 40 -17 l 40 440 q 346 771 40 771 q 577 681 510 771 q 644 396 644 592 l 644 356 l 251 356 l 251 344 q 269 173 251 225 q 344 121 288 121 q 413 147 389 121 q 436 247 436 174 l 436 253 l 635 253 l 635 246 q 610 120 635 174 q 541 38 585 67 q 448 -3 497 10 q 340 -17 399 -17 m 251 482 l 251 469 l 449 469 l 449 482 q 427 602 449 567 q 350 638 406 638 q 273 601 294 638 q 251 482 251 565 m 306 836 l 108 1007 l 350 1007 l 436 836 l 306 836 z "},"é":{"ha":682,"x_min":40,"x_max":644,"o":"m 340 -17 q 40 317 40 -17 l 40 440 q 346 771 40 771 q 577 681 510 771 q 644 396 644 592 l 644 356 l 251 356 l 251 344 q 269 173 251 225 q 344 121 288 121 q 413 147 389 121 q 436 247 436 174 l 436 253 l 635 253 l 635 246 q 610 120 635 174 q 541 38 585 67 q 448 -3 497 10 q 340 -17 399 -17 m 251 482 l 251 469 l 449 469 l 449 482 q 427 602 449 567 q 350 638 406 638 q 273 601 294 638 q 251 482 251 565 m 251 836 l 338 1007 l 579 1007 l 382 836 l 251 836 z "},"ê":{"ha":682,"x_min":40,"x_max":644,"o":"m 93 836 l 260 1007 l 440 1007 l 607 836 l 443 836 l 350 908 l 257 836 l 93 836 m 340 -17 q 40 317 40 -17 l 40 440 q 346 771 40 771 q 577 681 510 771 q 644 396 644 592 l 644 356 l 251 356 l 251 344 q 269 173 251 225 q 344 121 288 121 q 413 147 389 121 q 436 247 436 174 l 436 253 l 635 253 l 635 246 q 610 120 635 174 q 541 38 585 67 q 448 -3 497 10 q 340 -17 399 -17 m 251 482 l 251 469 l 449 469 l 449 482 q 427 602 449 567 q 350 638 406 638 q 273 601 294 638 q 251 482 251 565 z "},"ë":{"ha":682,"x_min":40,"x_max":644,"o":"m 126 836 l 126 1007 l 313 1007 l 313 836 l 126 836 m 404 836 l 404 1007 l 590 1007 l 590 836 l 404 836 m 340 -17 q 40 317 40 -17 l 40 440 q 346 771 40 771 q 577 681 510 771 q 644 396 644 592 l 644 356 l 251 356 l 251 344 q 269 173 251 225 q 344 121 288 121 q 413 147 389 121 q 436 247 436 174 l 436 253 l 635 253 l 635 246 q 610 120 635 174 q 541 38 585 67 q 448 -3 497 10 q 340 -17 399 -17 m 251 482 l 251 469 l 449 469 l 449 482 q 427 602 449 567 q 350 638 406 638 q 273 601 294 638 q 251 482 251 565 z "},"ì":{"ha":333,"x_min":-81,"x_max":274,"o":"m 117 836 l -81 1007 l 161 1007 l 247 836 l 117 836 m 60 0 l 60 747 l 274 747 l 274 0 l 60 0 z "},"í":{"ha":333,"x_min":60,"x_max":404,"o":"m 76 836 l 163 1007 l 404 1007 l 207 836 l 76 836 m 60 0 l 60 747 l 274 747 l 274 0 l 60 0 z "},"î":{"ha":333,"x_min":-76,"x_max":410,"o":"m -76 836 l 76 1007 l 257 1007 l 410 836 l 232 836 l 167 908 l 101 836 l -76 836 m 60 0 l 60 747 l 274 747 l 274 0 l 60 0 z "},"ï":{"ha":333,"x_min":-49,"x_max":381,"o":"m -49 836 l -49 1007 l 138 1007 l 138 836 l -49 836 m 194 836 l 194 1007 l 381 1007 l 381 836 l 194 836 m 60 0 l 60 747 l 274 747 l 274 0 l 60 0 z "},"ð":{"ha":692,"x_min":40,"x_max":651,"o":"m 192 786 l 113 824 l 215 888 q 104 940 161 917 l 239 1022 q 290 999 251 1017 q 350 971 329 982 l 425 1018 l 506 979 l 424 929 q 590 743 529 861 q 651 418 651 625 l 651 319 q 346 -17 651 -17 q 40 319 40 -17 l 40 435 q 346 771 40 771 q 413 754 383 771 l 417 756 q 290 847 381 793 l 192 786 m 346 121 q 394 134 376 121 q 419 181 411 147 q 430 247 428 214 q 432 344 432 281 l 432 410 q 430 507 432 474 q 419 574 428 540 q 394 620 411 607 q 346 633 376 633 q 274 583 289 633 q 258 410 258 532 l 258 344 q 274 172 258 222 q 346 121 289 121 z "},"ñ":{"ha":693,"x_min":60,"x_max":638,"o":"m 440 961 q 483 1007 482 961 l 599 1007 q 553 883 593 929 q 453 836 513 836 q 373 859 425 836 q 299 882 321 882 q 256 836 257 882 l 140 836 q 186 960 146 914 q 286 1007 226 1007 q 372 984 321 1007 q 440 961 424 961 m 274 0 l 60 0 l 60 747 l 274 747 l 274 660 q 458 771 324 771 q 597 708 556 771 q 638 517 638 644 l 638 0 l 424 0 l 424 475 q 422 533 424 511 q 415 576 421 554 q 397 609 410 599 q 361 619 383 619 q 319 607 336 619 q 294 578 303 594 q 280 529 285 561 q 274 472 275 497 q 274 403 274 446 l 274 0 z "},"ò":{"ha":692,"x_min":40,"x_max":651,"o":"m 299 836 l 101 1007 l 343 1007 l 429 836 l 299 836 m 418 583 q 410 608 418 583 q 346 633 403 633 q 274 583 289 633 q 258 410 258 532 l 258 344 q 274 172 258 222 q 346 121 289 121 q 418 172 403 121 q 433 344 433 222 l 433 410 q 418 583 433 532 m 651 319 q 346 -17 651 -17 q 40 319 40 -17 l 40 435 q 346 771 40 771 q 651 435 651 771 l 651 319 z "},"ó":{"ha":692,"x_min":40,"x_max":651,"o":"m 275 836 l 361 1007 l 603 1007 l 406 836 l 275 836 m 418 583 q 410 608 418 583 q 346 633 403 633 q 274 583 289 633 q 258 410 258 532 l 258 344 q 274 172 258 222 q 346 121 289 121 q 418 172 403 121 q 433 344 433 222 l 433 410 q 418 583 433 532 m 651 319 q 346 -17 651 -17 q 40 319 40 -17 l 40 435 q 346 771 40 771 q 651 435 651 771 l 651 319 z "},"ô":{"ha":692,"x_min":40,"x_max":651,"o":"m 418 583 q 410 608 418 583 q 346 633 403 633 q 274 583 289 633 q 258 410 258 532 l 258 344 q 274 172 258 222 q 346 121 289 121 q 418 172 403 121 q 433 344 433 222 l 433 410 q 418 583 433 532 m 651 319 q 346 -17 651 -17 q 40 319 40 -17 l 40 435 q 346 771 40 771 q 651 435 651 771 l 651 319 m 89 836 l 256 1007 l 436 1007 l 603 836 l 439 836 l 346 908 l 253 836 l 89 836 z "},"õ":{"ha":692,"x_min":40,"x_max":651,"o":"m 418 583 q 410 608 418 583 q 346 633 403 633 q 274 583 289 633 q 258 410 258 532 l 258 344 q 274 172 258 222 q 346 121 289 121 q 418 172 403 121 q 433 344 433 222 l 433 410 q 418 583 433 532 m 651 319 q 346 -17 651 -17 q 40 319 40 -17 l 40 435 q 346 771 40 771 q 651 435 651 771 l 651 319 m 417 961 q 460 1007 458 961 l 575 1007 q 529 883 569 929 q 429 836 489 836 q 349 859 401 836 q 275 882 297 882 q 232 836 233 882 l 117 836 q 163 960 122 914 q 263 1007 203 1007 q 349 984 297 1007 q 417 961 400 961 z "},"ö":{"ha":692,"x_min":40,"x_max":651,"o":"m 418 583 q 410 608 418 583 q 346 633 403 633 q 274 583 289 633 q 258 410 258 532 l 258 344 q 274 172 258 222 q 346 121 289 121 q 418 172 403 121 q 433 344 433 222 l 433 410 q 418 583 433 532 m 651 319 q 346 -17 651 -17 q 40 319 40 -17 l 40 435 q 346 771 40 771 q 651 435 651 771 l 651 319 m 114 836 l 114 1007 l 300 1007 l 300 836 l 114 836 m 392 836 l 392 1007 l 578 1007 l 578 836 l 392 836 z "},"÷":{"ha":761,"x_min":60,"x_max":701,"o":"m 268 13 l 268 222 l 490 222 l 490 13 l 268 13 m 60 289 l 60 450 l 701 450 l 701 289 l 60 289 m 268 518 l 268 726 l 490 726 l 490 518 l 268 518 z "},"ø":{"ha":692,"x_min":40,"x_max":651,"o":"m 176 -83 l 103 -83 l 154 33 q 40 319 40 113 l 40 435 q 346 771 40 771 q 474 751 418 771 l 515 843 l 589 843 l 535 722 q 651 435 651 642 l 651 319 q 346 -17 651 -17 q 215 3 274 -17 l 176 -83 m 433 410 q 432 490 433 467 l 282 153 q 346 121 301 121 q 418 172 403 121 q 433 344 433 222 l 433 410 m 346 633 q 274 583 289 633 q 258 410 258 532 l 258 344 l 258 268 l 408 603 q 346 633 386 633 z "},"ù":{"ha":683,"x_min":56,"x_max":624,"o":"m 308 836 l 111 1007 l 353 1007 l 439 836 l 308 836 m 253 -15 q 101 49 146 -15 q 56 256 56 114 l 56 747 l 269 747 l 269 313 q 271 242 269 265 q 277 188 272 218 q 296 144 282 157 q 332 131 310 131 q 365 138 351 131 q 388 162 379 144 q 401 193 396 179 q 408 240 406 207 q 410 289 410 272 q 410 347 410 306 l 410 747 l 624 747 l 624 0 l 417 0 l 417 100 q 253 -15 365 -15 z "},"ú":{"ha":683,"x_min":56,"x_max":624,"o":"m 251 836 l 338 1007 l 579 1007 l 382 836 l 251 836 m 253 -15 q 101 49 146 -15 q 56 256 56 114 l 56 747 l 269 747 l 269 313 q 271 242 269 265 q 277 188 272 218 q 296 144 282 157 q 332 131 310 131 q 365 138 351 131 q 388 162 379 144 q 401 193 396 179 q 408 240 406 207 q 410 289 410 272 q 410 347 410 306 l 410 747 l 624 747 l 624 0 l 417 0 l 417 100 q 253 -15 365 -15 z "},"û":{"ha":683,"x_min":56,"x_max":624,"o":"m 76 836 l 243 1007 l 424 1007 l 590 836 l 426 836 l 333 908 l 240 836 l 76 836 m 253 -15 q 101 49 146 -15 q 56 256 56 114 l 56 747 l 269 747 l 269 313 q 271 242 269 265 q 277 188 272 218 q 296 144 282 157 q 332 131 310 131 q 365 138 351 131 q 388 162 379 144 q 401 193 396 179 q 408 240 406 207 q 410 289 410 272 q 410 347 410 306 l 410 747 l 624 747 l 624 0 l 417 0 l 417 100 q 253 -15 365 -15 z "},"ü":{"ha":683,"x_min":56,"x_max":624,"o":"m 115 836 l 115 1007 l 301 1007 l 301 836 l 115 836 m 393 836 l 393 1007 l 579 1007 l 579 836 l 393 836 m 253 -15 q 101 49 146 -15 q 56 256 56 114 l 56 747 l 269 747 l 269 313 q 271 242 269 265 q 277 188 272 218 q 296 144 282 157 q 332 131 310 131 q 365 138 351 131 q 388 162 379 144 q 401 193 396 179 q 408 240 406 207 q 410 289 410 272 q 410 347 410 306 l 410 747 l 624 747 l 624 0 l 417 0 l 417 100 q 253 -15 365 -15 z "},"ý":{"ha":597,"x_min":0,"x_max":597,"o":"m 240 836 l 326 1007 l 568 1007 l 371 836 l 240 836 m 60 -243 l 60 -111 l 113 -111 q 179 -92 158 -111 q 207 -32 200 -74 l 214 4 l 0 747 l 208 747 l 315 207 l 403 747 l 597 747 l 422 0 q 333 -194 389 -144 q 147 -243 276 -243 l 60 -243 z "},"þ":{"ha":722,"x_min":60,"x_max":682,"o":"m 60 -240 l 60 1007 l 274 1007 l 274 661 q 342 740 294 710 q 450 771 390 771 q 626 686 571 771 q 682 428 682 601 l 682 329 q 626 70 682 156 q 450 -15 571 -15 q 342 16 390 -15 q 274 96 294 47 l 274 -240 l 60 -240 m 378 131 q 449 183 433 131 q 464 361 464 235 l 464 394 q 462 497 464 460 q 451 566 460 533 q 424 613 442 599 q 378 626 407 626 q 290 566 313 626 q 267 378 267 506 q 290 191 267 251 q 378 131 313 131 z "},"ÿ":{"ha":597,"x_min":0,"x_max":597,"o":"m 72 836 l 72 1007 l 258 1007 l 258 836 l 72 836 m 350 836 l 350 1007 l 536 1007 l 536 836 l 350 836 m 60 -243 l 60 -111 l 113 -111 q 179 -92 158 -111 q 207 -32 200 -74 l 214 4 l 0 747 l 208 747 l 315 207 l 403 747 l 597 747 l 422 0 q 333 -194 389 -144 q 147 -243 276 -243 l 60 -243 z "},"Ā":{"ha":763,"x_min":7,"x_max":756,"o":"m 7 0 l 247 1007 l 514 1007 l 756 0 l 531 0 l 489 211 l 261 211 l 221 0 l 7 0 m 375 793 l 289 351 l 461 351 l 375 793 m 207 1088 l 207 1231 l 557 1231 l 557 1088 l 207 1088 z "},"ā":{"ha":665,"x_min":36,"x_max":622,"o":"m 165 850 l 165 990 l 515 990 l 515 850 l 165 850 m 236 -17 q 90 40 144 -17 q 36 193 36 97 l 36 201 q 65 309 36 265 q 174 394 94 353 q 403 482 253 436 l 403 524 q 384 612 403 583 q 322 640 365 640 q 232 525 232 640 l 232 513 l 46 513 l 46 525 q 124 703 46 635 q 332 771 201 771 q 544 712 475 771 q 613 506 614 653 l 611 243 q 622 0 611 61 l 431 0 l 425 100 q 236 -17 375 -17 m 317 117 q 408 318 408 117 l 408 367 q 319 335 353 351 q 270 301 285 319 q 251 267 256 282 q 247 225 247 251 l 247 213 q 317 117 247 117 z "},"Ă":{"ha":763,"x_min":7,"x_max":756,"o":"m 7 0 l 247 1007 l 514 1007 l 756 0 l 531 0 l 489 211 l 261 211 l 221 0 l 7 0 m 375 793 l 289 351 l 461 351 l 375 793 m 542 1108 q 515 1088 542 1108 q 382 1068 488 1068 q 222 1108 276 1068 q 161 1231 167 1147 l 310 1231 q 330 1181 313 1196 q 382 1167 347 1167 q 435 1181 418 1167 q 454 1231 451 1196 l 603 1231 q 542 1108 596 1147 z "},"ă":{"ha":665,"x_min":36,"x_max":622,"o":"m 331 836 q 128 1007 128 836 l 271 1007 q 286 956 271 969 q 331 942 301 942 q 375 956 360 942 q 390 1007 390 969 l 533 1007 q 487 880 533 924 q 331 836 440 836 m 236 -17 q 90 40 144 -17 q 36 193 36 97 l 36 201 q 65 309 36 265 q 174 394 94 353 q 403 482 253 436 l 403 524 q 384 612 403 583 q 322 640 365 640 q 232 525 232 640 l 232 513 l 46 513 l 46 525 q 124 703 46 635 q 332 771 201 771 q 544 712 475 771 q 613 506 614 653 l 611 243 q 622 0 611 61 l 431 0 l 425 100 q 236 -17 375 -17 m 317 117 q 408 318 408 117 l 408 367 q 319 335 353 351 q 270 301 285 319 q 251 267 256 282 q 247 225 247 251 l 247 213 q 317 117 247 117 z "},"Ą":{"ha":763,"x_min":7,"x_max":756,"o":"m 7 0 l 247 1007 l 514 1007 l 756 0 q 661 -51 690 -31 q 632 -100 632 -72 q 693 -146 632 -146 q 756 -137 719 -146 l 756 -250 q 640 -261 697 -261 q 499 -228 557 -261 q 442 -132 442 -196 q 531 0 442 -46 l 489 211 l 261 211 l 221 0 l 7 0 m 375 793 l 289 351 l 461 351 l 375 793 z "},"ą":{"ha":665,"x_min":36,"x_max":649,"o":"m 236 -17 q 90 40 144 -17 q 36 193 36 97 l 36 201 q 65 309 36 265 q 174 394 94 353 q 403 482 253 436 l 403 524 q 384 612 403 583 q 322 640 365 640 q 232 525 232 640 l 232 513 l 46 513 l 46 525 q 124 703 46 635 q 332 771 201 771 q 544 712 475 771 q 613 506 614 653 l 611 243 q 622 0 611 61 q 536 -49 563 -26 q 510 -101 510 -72 q 571 -147 510 -147 q 649 -133 610 -147 l 649 -247 q 519 -262 594 -262 q 383 -231 438 -262 q 328 -133 328 -199 q 356 -58 328 -93 q 431 0 385 -22 l 425 100 q 236 -17 375 -17 m 317 117 q 408 318 408 117 l 408 367 q 319 335 353 351 q 270 301 285 319 q 251 267 256 282 q 247 225 247 251 l 247 213 q 317 117 247 117 z "},"Ć":{"ha":751,"x_min":44,"x_max":721,"o":"m 396 -17 q 122 90 200 -17 q 44 433 44 196 l 44 576 q 122 920 44 814 q 396 1026 200 1026 q 640 943 560 1026 q 721 683 721 860 l 721 671 l 501 671 l 501 681 q 478 836 501 799 q 394 874 454 874 q 328 854 353 874 q 294 781 304 835 q 281 683 283 728 q 279 538 279 638 l 279 472 q 281 327 279 372 q 294 228 283 282 q 328 156 304 175 q 394 136 353 136 q 478 174 454 136 q 501 329 501 211 l 501 339 l 721 339 l 721 326 q 640 67 721 150 q 396 -17 560 -17 m 285 1074 l 361 1231 l 622 1231 l 440 1074 l 285 1074 z "},"ć":{"ha":644,"x_min":40,"x_max":622,"o":"m 340 -17 q 40 321 40 -17 l 40 435 q 340 771 40 771 q 544 707 467 771 q 622 493 622 643 l 622 488 l 424 488 l 424 493 q 403 604 424 575 q 340 633 383 633 q 306 628 319 633 q 283 606 292 622 q 269 576 274 590 q 262 531 264 563 q 259 477 260 499 q 258 410 258 456 l 258 344 q 259 277 258 299 q 262 224 260 256 q 269 178 264 192 q 283 148 274 164 q 306 126 292 132 q 340 121 319 121 q 403 150 383 121 q 424 263 424 179 l 424 267 l 622 267 l 622 261 q 544 47 622 111 q 340 -17 467 -17 m 267 836 l 353 1007 l 594 1007 l 397 836 l 267 836 z "},"Ĉ":{"ha":751,"x_min":44,"x_max":721,"o":"m 136 1074 l 300 1231 l 494 1231 l 658 1074 l 467 1074 l 397 1142 l 328 1074 l 136 1074 m 396 -17 q 122 90 200 -17 q 44 433 44 196 l 44 576 q 122 920 44 814 q 396 1026 200 1026 q 640 943 560 1026 q 721 683 721 860 l 721 671 l 501 671 l 501 681 q 478 836 501 799 q 394 874 454 874 q 328 854 353 874 q 294 781 304 835 q 281 683 283 728 q 279 538 279 638 l 279 472 q 281 327 279 372 q 294 228 283 282 q 328 156 304 175 q 394 136 353 136 q 478 174 454 136 q 501 329 501 211 l 501 339 l 721 339 l 721 326 q 640 67 721 150 q 396 -17 560 -17 z "},"ĉ":{"ha":644,"x_min":40,"x_max":622,"o":"m 88 836 l 254 1007 l 435 1007 l 601 836 l 438 836 l 344 908 l 251 836 l 88 836 m 340 -17 q 40 321 40 -17 l 40 435 q 340 771 40 771 q 544 707 467 771 q 622 493 622 643 l 622 488 l 424 488 l 424 493 q 403 604 424 575 q 340 633 383 633 q 306 628 319 633 q 283 606 292 622 q 269 576 274 590 q 262 531 264 563 q 259 477 260 499 q 258 410 258 456 l 258 344 q 259 277 258 299 q 262 224 260 256 q 269 178 264 192 q 283 148 274 164 q 306 126 292 132 q 340 121 319 121 q 403 150 383 121 q 424 263 424 179 l 424 267 l 622 267 l 622 261 q 544 47 622 111 q 340 -17 467 -17 z "},"Ċ":{"ha":751,"x_min":44,"x_max":721,"o":"m 285 1074 l 285 1231 l 507 1231 l 507 1074 l 285 1074 m 396 -17 q 122 90 200 -17 q 44 433 44 196 l 44 576 q 122 920 44 814 q 396 1026 200 1026 q 640 943 560 1026 q 721 683 721 860 l 721 671 l 501 671 l 501 681 q 478 836 501 799 q 394 874 454 874 q 328 854 353 874 q 294 781 304 835 q 281 683 283 728 q 279 538 279 638 l 279 472 q 281 327 279 372 q 294 228 283 282 q 328 156 304 175 q 394 136 353 136 q 478 174 454 136 q 501 329 501 211 l 501 339 l 721 339 l 721 326 q 640 67 721 150 q 396 -17 560 -17 z "},"ċ":{"ha":644,"x_min":40,"x_max":622,"o":"m 251 836 l 251 1007 l 438 1007 l 438 836 l 251 836 m 340 -17 q 40 321 40 -17 l 40 435 q 340 771 40 771 q 544 707 467 771 q 622 493 622 643 l 622 488 l 424 488 l 424 493 q 403 604 424 575 q 340 633 383 633 q 306 628 319 633 q 283 606 292 622 q 269 576 274 590 q 262 531 264 563 q 259 477 260 499 q 258 410 258 456 l 258 344 q 259 277 258 299 q 262 224 260 256 q 269 178 264 192 q 283 148 274 164 q 306 126 292 132 q 340 121 319 121 q 403 150 383 121 q 424 263 424 179 l 424 267 l 622 267 l 622 261 q 544 47 622 111 q 340 -17 467 -17 z "},"Č":{"ha":751,"x_min":44,"x_max":721,"o":"m 493 1074 l 299 1074 l 135 1231 l 326 1231 l 396 1163 l 465 1231 l 657 1231 l 493 1074 m 396 -17 q 122 90 200 -17 q 44 433 44 196 l 44 576 q 122 920 44 814 q 396 1026 200 1026 q 640 943 560 1026 q 721 683 721 860 l 721 671 l 501 671 l 501 681 q 478 836 501 799 q 394 874 454 874 q 328 854 353 874 q 294 781 304 835 q 281 683 283 728 q 279 538 279 638 l 279 472 q 281 327 279 372 q 294 228 283 282 q 328 156 304 175 q 394 136 353 136 q 478 174 454 136 q 501 329 501 211 l 501 339 l 721 339 l 721 326 q 640 67 721 150 q 396 -17 560 -17 z "},"č":{"ha":644,"x_min":40,"x_max":622,"o":"m 260 836 l 90 1007 l 254 1007 l 347 935 l 440 1007 l 603 1007 l 438 836 l 260 836 m 340 -17 q 40 321 40 -17 l 40 435 q 340 771 40 771 q 544 707 467 771 q 622 493 622 643 l 622 488 l 424 488 l 424 493 q 403 604 424 575 q 340 633 383 633 q 306 628 319 633 q 283 606 292 622 q 269 576 274 590 q 262 531 264 563 q 259 477 260 499 q 258 410 258 456 l 258 344 q 259 277 258 299 q 262 224 260 256 q 269 178 264 192 q 283 148 274 164 q 306 126 292 132 q 340 121 319 121 q 403 150 383 121 q 424 263 424 179 l 424 267 l 622 267 l 622 261 q 544 47 622 111 q 340 -17 467 -17 z "},"Ď":{"ha":786,"x_min":75,"x_max":742,"o":"m 486 1074 l 292 1074 l 128 1231 l 319 1231 l 389 1163 l 458 1231 l 650 1231 l 486 1074 m 296 149 l 324 149 q 422 158 389 149 q 476 206 456 168 q 502 301 497 244 q 507 472 507 358 l 507 538 q 503 678 507 628 q 490 769 500 729 q 458 827 481 810 q 406 852 436 844 q 324 860 375 860 l 296 860 l 296 149 m 75 0 l 75 1007 l 314 1007 q 505 989 431 1007 q 635 923 579 971 q 717 786 692 875 q 742 558 742 697 l 742 442 q 717 218 742 306 q 635 83 692 131 q 504 17 579 35 q 314 0 429 0 l 75 0 z "},"ď":{"ha":931,"x_min":40,"x_max":944,"o":"m 40 428 q 96 686 40 601 q 272 771 151 771 q 380 740 332 771 q 449 660 428 708 l 449 1007 l 663 1007 l 663 0 l 449 0 l 449 94 q 380 15 428 46 q 272 -17 332 -17 q 96 68 151 -17 q 40 326 40 153 l 40 428 m 258 396 l 258 358 q 274 180 258 232 q 344 128 289 128 q 433 188 410 128 q 456 376 456 249 q 433 565 456 504 q 344 626 410 626 q 274 574 289 626 q 258 396 258 522 m 713 771 l 747 1007 l 944 1007 l 854 771 l 713 771 z "},"Đ":{"ha":786,"x_min":-25,"x_max":742,"o":"m -25 426 l -25 590 l 75 590 l 75 1007 l 314 1007 q 505 989 431 1007 q 635 923 579 971 q 717 786 692 875 q 742 558 742 697 l 742 442 q 717 218 742 306 q 635 83 692 131 q 504 17 579 35 q 314 0 429 0 l 75 0 l 75 426 l -25 426 m 296 149 l 324 149 q 422 158 389 149 q 476 206 456 168 q 502 301 497 244 q 507 472 507 358 l 507 538 q 503 678 507 628 q 490 769 500 729 q 458 827 481 810 q 406 852 436 844 q 324 860 375 860 l 296 860 l 296 590 l 422 590 l 422 426 l 296 426 l 296 149 z "},"đ":{"ha":722,"x_min":40,"x_max":749,"o":"m 267 799 l 267 911 l 449 911 l 449 1007 l 663 1007 l 663 911 l 749 911 l 749 799 l 663 799 l 663 0 l 449 0 l 449 94 q 380 15 428 46 q 272 -17 332 -17 q 96 68 151 -17 q 40 326 40 153 l 40 428 q 96 686 40 601 q 272 771 151 771 q 380 740 332 771 q 449 660 428 708 l 449 799 l 267 799 m 258 396 l 258 358 q 274 180 258 232 q 344 128 289 128 q 433 188 410 128 q 456 376 456 249 q 433 565 456 504 q 344 626 410 626 q 274 574 289 626 q 258 396 258 522 z "},"Ē":{"ha":660,"x_min":75,"x_max":629,"o":"m 189 1088 l 189 1231 l 539 1231 l 539 1088 l 189 1088 m 75 0 l 75 1007 l 629 1007 l 629 846 l 296 846 l 296 596 l 600 596 l 600 435 l 296 435 l 296 161 l 629 161 l 629 0 l 75 0 z "},"ē":{"ha":682,"x_min":40,"x_max":644,"o":"m 182 850 l 182 990 l 532 990 l 532 850 l 182 850 m 340 -17 q 40 317 40 -17 l 40 440 q 346 771 40 771 q 577 681 510 771 q 644 396 644 592 l 644 356 l 251 356 l 251 344 q 269 173 251 225 q 344 121 288 121 q 413 147 389 121 q 436 247 436 174 l 436 253 l 635 253 l 635 246 q 610 120 635 174 q 541 38 585 67 q 448 -3 497 10 q 340 -17 399 -17 m 251 482 l 251 469 l 449 469 l 449 482 q 427 602 449 567 q 350 638 406 638 q 273 601 294 638 q 251 482 251 565 z "},"Ĕ":{"ha":660,"x_min":75,"x_max":629,"o":"m 522 1108 q 495 1088 522 1108 q 363 1068 468 1068 q 202 1108 257 1068 q 142 1231 147 1147 l 290 1231 q 310 1181 293 1196 q 363 1167 328 1167 q 415 1181 399 1167 q 435 1231 432 1196 l 583 1231 q 522 1108 576 1147 m 75 0 l 75 1007 l 629 1007 l 629 846 l 296 846 l 296 596 l 600 596 l 600 435 l 296 435 l 296 161 l 629 161 l 629 0 l 75 0 z "},"ĕ":{"ha":682,"x_min":40,"x_max":644,"o":"m 358 836 q 156 1007 156 836 l 299 1007 q 314 956 299 969 q 358 942 329 942 q 403 956 388 942 q 418 1007 418 969 l 561 1007 q 515 880 561 924 q 358 836 468 836 m 340 -17 q 40 317 40 -17 l 40 440 q 346 771 40 771 q 577 681 510 771 q 644 396 644 592 l 644 356 l 251 356 l 251 344 q 269 173 251 225 q 344 121 288 121 q 413 147 389 121 q 436 247 436 174 l 436 253 l 635 253 l 635 246 q 610 120 635 174 q 541 38 585 67 q 448 -3 497 10 q 340 -17 399 -17 m 251 482 l 251 469 l 449 469 l 449 482 q 427 602 449 567 q 350 638 406 638 q 273 601 294 638 q 251 482 251 565 z "},"Ė":{"ha":660,"x_min":75,"x_max":629,"o":"m 250 1074 l 250 1231 l 472 1231 l 472 1074 l 250 1074 m 75 0 l 75 1007 l 629 1007 l 629 846 l 296 846 l 296 596 l 600 596 l 600 435 l 296 435 l 296 161 l 629 161 l 629 0 l 75 0 z "},"ė":{"ha":682,"x_min":40,"x_max":644,"o":"m 263 836 l 263 1007 l 449 1007 l 449 836 l 263 836 m 340 -17 q 40 317 40 -17 l 40 440 q 346 771 40 771 q 577 681 510 771 q 644 396 644 592 l 644 356 l 251 356 l 251 344 q 269 173 251 225 q 344 121 288 121 q 413 147 389 121 q 436 247 436 174 l 436 253 l 635 253 l 635 246 q 610 120 635 174 q 541 38 585 67 q 448 -3 497 10 q 340 -17 399 -17 m 251 482 l 251 469 l 449 469 l 449 482 q 427 602 449 567 q 350 638 406 638 q 273 601 294 638 q 251 482 251 565 z "},"Ę":{"ha":660,"x_min":75,"x_max":629,"o":"m 75 0 l 75 1007 l 629 1007 l 629 846 l 296 846 l 296 596 l 600 596 l 600 435 l 296 435 l 296 161 l 629 161 l 629 0 q 564 -33 585 -21 q 524 -62 543 -44 q 506 -100 506 -81 q 567 -146 506 -146 q 629 -136 597 -146 l 629 -250 q 515 -261 571 -261 q 378 -229 432 -261 q 324 -132 324 -197 q 348 -56 324 -93 q 406 0 372 -19 l 75 0 z "},"ę":{"ha":682,"x_min":40,"x_max":644,"o":"m 251 481 l 251 468 l 449 468 l 449 481 q 427 601 449 565 q 350 636 406 636 q 273 600 294 636 q 251 481 251 564 m 568 -250 q 458 -261 513 -261 q 321 -229 375 -261 q 267 -132 267 -197 q 281 -74 267 -108 q 317 -15 296 -40 q 111 74 182 -15 q 40 317 40 163 l 40 439 q 346 769 40 769 q 577 680 510 769 q 644 394 644 590 l 644 354 l 251 354 l 251 344 q 269 173 251 225 q 343 121 286 121 q 411 147 388 121 q 435 247 435 174 l 435 253 l 635 253 l 635 246 q 543 38 635 113 q 476 -34 504 6 q 449 -100 449 -74 q 510 -146 449 -146 q 568 -137 535 -146 l 568 -250 z "},"Ě":{"ha":660,"x_min":75,"x_max":629,"o":"m 456 1074 l 261 1074 l 97 1231 l 289 1231 l 358 1163 l 428 1231 l 619 1231 l 456 1074 m 75 0 l 75 1007 l 629 1007 l 629 846 l 296 846 l 296 596 l 600 596 l 600 435 l 296 435 l 296 161 l 629 161 l 629 0 l 75 0 z "},"ě":{"ha":682,"x_min":40,"x_max":644,"o":"m 271 836 l 101 1007 l 265 1007 l 358 935 l 451 1007 l 614 1007 l 449 836 l 271 836 m 340 -17 q 40 317 40 -17 l 40 440 q 346 771 40 771 q 577 681 510 771 q 644 396 644 592 l 644 356 l 251 356 l 251 344 q 269 173 251 225 q 344 121 288 121 q 413 147 389 121 q 436 247 436 174 l 436 253 l 635 253 l 635 246 q 610 120 635 174 q 541 38 585 67 q 448 -3 497 10 q 340 -17 399 -17 m 251 482 l 251 469 l 449 469 l 449 482 q 427 602 449 567 q 350 638 406 638 q 273 601 294 638 q 251 482 251 565 z "},"Ĝ":{"ha":803,"x_min":44,"x_max":735,"o":"m 138 1074 l 301 1231 l 496 1231 l 660 1074 l 468 1074 l 399 1142 l 329 1074 l 138 1074 m 544 390 l 374 390 l 374 536 l 735 536 l 735 0 l 579 0 l 572 113 q 356 -17 517 -17 q 116 93 188 -17 q 44 433 44 203 l 44 576 q 124 919 44 813 q 399 1026 203 1026 q 644 945 560 1026 q 729 708 729 864 l 729 700 l 510 700 l 510 710 q 483 840 510 807 q 394 874 456 874 q 328 854 353 874 q 294 781 304 835 q 281 683 283 728 q 279 538 279 638 l 279 472 q 281 327 279 372 q 294 228 283 282 q 328 156 304 175 q 394 136 353 136 q 508 188 472 136 q 544 381 544 240 l 544 390 z "},"ĝ":{"ha":729,"x_min":40,"x_max":669,"o":"m 128 836 l 294 1007 l 475 1007 l 642 836 l 478 836 l 385 908 l 292 836 l 128 836 m 350 -269 q 144 -212 222 -269 q 65 -39 65 -156 l 65 -36 l 261 -36 l 261 -39 q 287 -106 261 -83 q 356 -129 313 -129 q 432 -101 408 -129 q 456 8 456 -74 l 456 136 q 294 26 410 26 q 108 106 176 26 q 40 343 40 186 l 40 440 q 108 688 40 606 q 294 771 175 771 q 456 660 408 771 l 456 747 l 669 747 l 669 67 q 592 -190 669 -111 q 350 -269 515 -269 m 351 171 q 443 222 422 171 q 464 389 464 274 q 460 492 464 454 q 446 565 457 531 q 412 613 435 599 q 351 626 389 626 q 276 577 293 626 q 258 414 258 528 l 258 383 q 276 220 258 269 q 351 171 293 171 z "},"Ğ":{"ha":803,"x_min":44,"x_max":735,"o":"m 544 390 l 374 390 l 374 536 l 735 536 l 735 0 l 579 0 l 572 113 q 356 -17 517 -17 q 116 93 188 -17 q 44 433 44 203 l 44 576 q 124 919 44 813 q 399 1026 203 1026 q 644 945 560 1026 q 729 708 729 864 l 729 700 l 510 700 l 510 710 q 483 840 510 807 q 394 874 456 874 q 328 854 353 874 q 294 781 304 835 q 281 683 283 728 q 279 538 279 638 l 279 472 q 281 327 279 372 q 294 228 283 282 q 328 156 304 175 q 394 136 353 136 q 508 188 472 136 q 544 381 544 240 l 544 390 m 561 1108 q 534 1088 561 1108 q 401 1068 507 1068 q 241 1108 296 1068 q 181 1231 186 1147 l 329 1231 q 349 1181 332 1196 q 401 1167 367 1167 q 454 1181 438 1167 q 474 1231 471 1196 l 622 1231 q 561 1108 615 1147 z "},"ğ":{"ha":729,"x_min":40,"x_max":669,"o":"m 376 836 q 174 1007 174 836 l 317 1007 q 332 956 317 969 q 376 942 347 942 q 421 956 406 942 q 436 1007 436 969 l 579 1007 q 533 880 579 924 q 376 836 486 836 m 350 -269 q 144 -212 222 -269 q 65 -39 65 -156 l 65 -36 l 261 -36 l 261 -39 q 287 -106 261 -83 q 356 -129 313 -129 q 432 -101 408 -129 q 456 8 456 -74 l 456 136 q 294 26 410 26 q 108 106 176 26 q 40 343 40 186 l 40 440 q 108 688 40 606 q 294 771 175 771 q 456 660 408 771 l 456 747 l 669 747 l 669 67 q 592 -190 669 -111 q 350 -269 515 -269 m 351 171 q 443 222 422 171 q 464 389 464 274 q 460 492 464 454 q 446 565 457 531 q 412 613 435 599 q 351 626 389 626 q 276 577 293 626 q 258 414 258 528 l 258 383 q 276 220 258 269 q 351 171 293 171 z "},"Ġ":{"ha":803,"x_min":44,"x_max":735,"o":"m 288 1074 l 288 1231 l 510 1231 l 510 1074 l 288 1074 m 544 390 l 374 390 l 374 536 l 735 536 l 735 0 l 579 0 l 572 113 q 356 -17 517 -17 q 116 93 188 -17 q 44 433 44 203 l 44 576 q 124 919 44 813 q 399 1026 203 1026 q 644 945 560 1026 q 729 708 729 864 l 729 700 l 510 700 l 510 710 q 483 840 510 807 q 394 874 456 874 q 328 854 353 874 q 294 781 304 835 q 281 683 283 728 q 279 538 279 638 l 279 472 q 281 327 279 372 q 294 228 283 282 q 328 156 304 175 q 394 136 353 136 q 508 188 472 136 q 544 381 544 240 l 544 390 z "},"ġ":{"ha":729,"x_min":40,"x_max":669,"o":"m 276 836 l 276 1007 l 463 1007 l 463 836 l 276 836 m 350 -269 q 144 -212 222 -269 q 65 -39 65 -156 l 65 -36 l 261 -36 l 261 -39 q 287 -106 261 -83 q 356 -129 313 -129 q 432 -101 408 -129 q 456 8 456 -74 l 456 136 q 294 26 410 26 q 108 106 176 26 q 40 343 40 186 l 40 440 q 108 688 40 606 q 294 771 175 771 q 456 660 408 771 l 456 747 l 669 747 l 669 67 q 592 -190 669 -111 q 350 -269 515 -269 m 351 171 q 443 222 422 171 q 464 389 464 274 q 460 492 464 454 q 446 565 457 531 q 412 613 435 599 q 351 626 389 626 q 276 577 293 626 q 258 414 258 528 l 258 383 q 276 220 258 269 q 351 171 293 171 z "},"Ģ":{"ha":803,"x_min":44,"x_max":735,"o":"m 311 -342 l 364 -208 l 315 -208 l 315 -69 l 479 -69 l 479 -218 l 418 -342 l 311 -342 m 544 390 l 374 390 l 374 536 l 735 536 l 735 0 l 579 0 l 572 113 q 356 -17 517 -17 q 116 93 188 -17 q 44 433 44 203 l 44 576 q 124 919 44 813 q 399 1026 203 1026 q 644 945 560 1026 q 729 708 729 864 l 729 700 l 510 700 l 510 710 q 483 840 510 807 q 394 874 456 874 q 328 854 353 874 q 294 781 304 835 q 281 683 283 728 q 279 538 279 638 l 279 472 q 281 327 279 372 q 294 228 283 282 q 328 156 304 175 q 394 136 353 136 q 508 188 472 136 q 544 381 544 240 l 544 390 z "},"ģ":{"ha":729,"x_min":40,"x_max":669,"o":"m 460 1124 l 407 990 l 456 990 l 456 851 l 292 851 l 292 1000 l 353 1124 l 460 1124 m 350 -269 q 144 -212 222 -269 q 65 -39 65 -156 l 65 -36 l 261 -36 l 261 -39 q 287 -106 261 -83 q 356 -129 313 -129 q 432 -101 408 -129 q 456 8 456 -74 l 456 136 q 294 26 410 26 q 108 106 176 26 q 40 343 40 186 l 40 440 q 108 688 40 606 q 294 771 175 771 q 456 660 408 771 l 456 747 l 669 747 l 669 67 q 592 -190 669 -111 q 350 -269 515 -269 m 351 171 q 443 222 422 171 q 464 389 464 274 q 460 492 464 454 q 446 565 457 531 q 412 613 435 599 q 351 626 389 626 q 276 577 293 626 q 258 414 258 528 l 258 383 q 276 220 258 269 q 351 171 293 171 z "},"Ĥ":{"ha":819,"x_min":75,"x_max":744,"o":"m 147 1074 l 311 1231 l 506 1231 l 669 1074 l 478 1074 l 408 1142 l 339 1074 l 147 1074 m 75 0 l 75 1007 l 296 1007 l 296 596 l 524 596 l 524 1007 l 744 1007 l 744 0 l 524 0 l 524 435 l 296 435 l 296 0 l 75 0 z "},"ĥ":{"ha":693,"x_min":-93,"x_max":638,"o":"m 274 0 l 60 0 l 60 1007 l 274 1007 l 274 660 q 458 771 324 771 q 597 708 556 771 q 638 517 638 644 l 638 0 l 424 0 l 424 475 q 422 533 424 511 q 415 576 421 554 q 397 609 410 599 q 361 619 383 619 q 319 607 336 619 q 294 578 303 594 q 280 529 285 561 q 274 472 275 497 q 274 403 274 446 l 274 0 m -93 1074 l 71 1231 l 265 1231 l 429 1074 l 238 1074 l 168 1142 l 99 1074 l -93 1074 z "},"Ħ":{"ha":819,"x_min":6,"x_max":814,"o":"m 6 721 l 6 882 l 75 882 l 75 1007 l 296 1007 l 296 882 l 524 882 l 524 1007 l 744 1007 l 744 882 l 814 882 l 814 721 l 744 721 l 744 0 l 524 0 l 524 435 l 296 435 l 296 0 l 75 0 l 75 721 l 6 721 m 296 596 l 524 596 l 524 721 l 296 721 l 296 596 z "},"ħ":{"ha":693,"x_min":-31,"x_max":638,"o":"m -31 799 l -31 910 l 60 910 l 60 1007 l 274 1007 l 274 910 l 453 910 l 453 799 l 274 799 l 274 660 q 458 771 324 771 q 597 708 556 771 q 638 517 638 644 l 638 0 l 424 0 l 424 475 q 422 533 424 511 q 415 576 421 554 q 397 609 410 599 q 361 619 383 619 q 319 607 336 619 q 294 578 303 594 q 280 529 285 561 q 274 472 275 497 q 274 403 274 446 l 274 0 l 60 0 l 60 799 l -31 799 z "},"Ĩ":{"ha":371,"x_min":-15,"x_max":388,"o":"m -15 1076 q 126 1233 1 1233 q 194 1210 163 1233 q 238 1186 225 1186 q 272 1233 267 1186 l 388 1233 q 337 1111 378 1146 q 244 1076 296 1076 q 185 1097 215 1076 q 136 1118 154 1118 q 100 1076 106 1118 l -15 1076 m 75 0 l 75 1007 l 296 1007 l 296 0 l 75 0 z "},"ĩ":{"ha":333,"x_min":-42,"x_max":374,"o":"m -42 836 q 8 967 -32 926 q 101 1007 47 1007 q 170 983 138 1007 q 215 960 203 960 q 258 1007 246 960 l 374 1007 q 322 877 364 918 q 232 836 281 836 q 169 859 203 836 q 117 882 135 882 q 74 836 86 882 l -42 836 m 60 0 l 60 747 l 274 747 l 274 0 l 60 0 z "},"Ī":{"ha":371,"x_min":26,"x_max":349,"o":"m 26 1083 l 26 1226 l 349 1226 l 349 1083 l 26 1083 m 75 0 l 75 1007 l 296 1007 l 296 0 l 75 0 z "},"ī":{"ha":333,"x_min":0,"x_max":332,"o":"m 0 850 l 0 990 l 332 990 l 332 850 l 0 850 m 60 0 l 60 747 l 274 747 l 274 0 l 60 0 z "},"Ĭ":{"ha":371,"x_min":-17,"x_max":389,"o":"m 186 1071 q 36 1109 82 1071 q -17 1233 -10 1147 l 132 1233 q 147 1183 135 1197 q 186 1169 160 1169 q 226 1183 214 1169 q 240 1233 238 1197 l 389 1233 q 335 1109 382 1147 q 186 1071 289 1071 m 75 0 l 75 1007 l 296 1007 l 296 0 l 75 0 z "},"ĭ":{"ha":333,"x_min":-24,"x_max":354,"o":"m 165 836 q 18 879 60 836 q -24 1007 -24 922 l 119 1007 q 165 942 119 942 q 211 1007 211 942 l 354 1007 q 314 878 354 921 q 165 836 274 836 m 60 0 l 60 747 l 274 747 l 274 0 l 60 0 z "},"Į":{"ha":371,"x_min":-10,"x_max":296,"o":"m 182 -261 q 44 -229 99 -261 q -10 -132 -10 -197 q 15 -56 -10 -93 q 72 0 39 -19 l 75 0 l 75 1007 l 296 1007 l 296 0 q 231 -33 251 -21 q 191 -62 210 -44 q 172 -100 172 -81 q 233 -146 172 -146 q 296 -136 264 -146 l 296 -250 q 182 -261 238 -261 z "},"į":{"ha":333,"x_min":-31,"x_max":274,"o":"m 60 0 l 60 747 l 274 747 l 274 0 q 209 -33 229 -22 q 170 -62 189 -43 q 151 -100 151 -81 q 213 -146 151 -146 q 271 -137 238 -146 l 271 -250 q 161 -261 215 -261 q 24 -229 78 -261 q -31 -132 -31 -197 q 60 0 -31 -46 m 60 829 l 60 1007 l 274 1007 l 274 829 l 60 829 z "},"İ":{"ha":371,"x_min":75,"x_max":297,"o":"m 75 1074 l 75 1231 l 297 1231 l 297 1074 l 75 1074 m 75 0 l 75 1007 l 296 1007 l 296 0 l 75 0 z "},"ı":{"ha":333,"x_min":60,"x_max":274,"o":"m 60 0 l 60 747 l 274 747 l 274 0 l 60 0 z "},"Ĵ":{"ha":664,"x_min":-7,"x_max":739,"o":"m 217 1074 l 381 1231 l 575 1231 l 739 1074 l 547 1074 l 478 1142 l 408 1074 l 217 1074 m 296 -17 q 69 56 144 -17 q -7 286 -7 129 l -7 315 l 214 315 l 214 286 q 231 166 214 196 q 290 136 247 136 q 351 166 333 136 q 368 286 368 196 l 368 1008 l 589 1008 l 589 285 q 515 49 589 114 q 296 -17 440 -17 z "},"ĵ":{"ha":333,"x_min":-89,"x_max":397,"o":"m -89 836 l 64 1007 l 244 1007 l 397 836 l 219 836 l 154 908 l 89 836 l -89 836 m -40 -243 l -40 -114 l -1 -114 q 50 -92 40 -114 q 60 -6 60 -71 l 60 747 l 274 747 l 274 7 q 217 -193 274 -143 q 18 -243 160 -243 l -40 -243 z "},"Ķ":{"ha":786,"x_min":75,"x_max":793,"o":"m 333 -342 l 386 -208 l 338 -208 l 338 -69 l 501 -69 l 501 -218 l 440 -342 l 333 -342 m 567 0 l 372 400 l 296 282 l 296 0 l 75 0 l 75 1007 l 296 1007 l 296 596 l 551 1007 l 768 1007 l 501 597 l 793 0 l 567 0 z "},"ķ":{"ha":657,"x_min":60,"x_max":682,"o":"m 281 -342 l 333 -208 l 285 -208 l 285 -69 l 449 -69 l 449 -218 l 388 -342 l 281 -342 m 478 0 l 347 286 l 274 183 l 274 0 l 60 0 l 60 1007 l 274 1007 l 274 453 l 481 747 l 676 747 l 471 460 l 682 0 l 478 0 z "},"Ĺ":{"ha":644,"x_min":75,"x_max":629,"o":"m 89 1074 l 165 1231 l 426 1231 l 244 1074 l 89 1074 m 75 0 l 75 1007 l 296 1007 l 296 161 l 629 161 l 629 0 l 75 0 z "},"ĺ":{"ha":333,"x_min":60,"x_max":417,"o":"m 79 1074 l 156 1231 l 417 1231 l 235 1074 l 79 1074 m 60 0 l 60 1007 l 274 1007 l 274 0 l 60 0 z "},"Ļ":{"ha":644,"x_min":75,"x_max":629,"o":"m 265 -342 l 318 -208 l 269 -208 l 269 -69 l 433 -69 l 433 -218 l 372 -342 l 265 -342 m 75 0 l 75 1007 l 296 1007 l 296 161 l 629 161 l 629 0 l 75 0 z "},"ļ":{"ha":333,"x_min":60,"x_max":274,"o":"m 83 -342 l 136 -208 l 88 -208 l 88 -69 l 251 -69 l 251 -218 l 190 -342 l 83 -342 m 60 0 l 60 1007 l 274 1007 l 274 0 l 60 0 z "},"Ľ":{"ha":644,"x_min":75,"x_max":629,"o":"m 75 0 l 75 1007 l 296 1007 l 296 161 l 629 161 l 629 0 l 75 0 m 364 771 l 399 1007 l 596 1007 l 506 771 l 364 771 z "},"ľ":{"ha":542,"x_min":60,"x_max":556,"o":"m 60 0 l 60 1007 l 274 1007 l 274 0 l 60 0 m 324 771 l 358 1007 l 556 1007 l 465 771 l 324 771 z "},"Ŀ":{"ha":644,"x_min":75,"x_max":629,"o":"m 396 503 l 396 660 l 618 660 l 618 503 l 396 503 m 75 0 l 75 1007 l 296 1007 l 296 161 l 629 161 l 629 0 l 75 0 z "},"ŀ":{"ha":535,"x_min":67,"x_max":533,"o":"m 67 0 l 67 1007 l 281 1007 l 281 0 l 67 0 m 347 497 l 347 668 l 533 668 l 533 497 l 347 497 z "},"Ł":{"ha":665,"x_min":0,"x_max":671,"o":"m 0 268 l 0 442 l 117 515 l 117 1007 l 338 1007 l 338 656 l 568 801 l 568 626 l 338 481 l 338 161 l 671 161 l 671 0 l 117 0 l 117 342 l 0 268 z "},"ł":{"ha":403,"x_min":0,"x_max":403,"o":"m 0 350 l 0 524 l 99 578 l 99 1007 l 313 1007 l 313 697 l 403 747 l 403 574 l 313 524 l 313 0 l 99 0 l 99 404 l 0 350 z "},"Ń":{"ha":819,"x_min":75,"x_max":744,"o":"m 339 1074 l 415 1231 l 676 1231 l 494 1074 l 339 1074 m 75 0 l 75 1007 l 331 1007 l 549 283 l 549 1007 l 744 1007 l 744 0 l 489 0 l 271 724 l 271 0 l 75 0 z "},"ń":{"ha":693,"x_min":60,"x_max":638,"o":"m 274 836 l 360 1007 l 601 1007 l 404 836 l 274 836 m 274 0 l 60 0 l 60 747 l 274 747 l 274 660 q 458 771 324 771 q 597 708 556 771 q 638 517 638 644 l 638 0 l 424 0 l 424 475 q 422 533 424 511 q 415 576 421 554 q 397 609 410 599 q 361 619 383 619 q 319 607 336 619 q 294 578 303 594 q 280 529 285 561 q 274 472 275 497 q 274 403 274 446 l 274 0 z "},"Ņ":{"ha":819,"x_min":75,"x_max":744,"o":"m 326 -342 l 379 -208 l 331 -208 l 331 -69 l 494 -69 l 494 -218 l 433 -342 l 326 -342 m 75 0 l 75 1007 l 331 1007 l 549 283 l 549 1007 l 744 1007 l 744 0 l 489 0 l 271 724 l 271 0 l 75 0 z "},"ņ":{"ha":693,"x_min":60,"x_max":638,"o":"m 269 -342 l 322 -208 l 274 -208 l 274 -69 l 438 -69 l 438 -218 l 376 -342 l 269 -342 m 274 0 l 60 0 l 60 747 l 274 747 l 274 660 q 458 771 324 771 q 597 708 556 771 q 638 517 638 644 l 638 0 l 424 0 l 424 475 q 422 533 424 511 q 415 576 421 554 q 397 609 410 599 q 361 619 383 619 q 319 607 336 619 q 294 578 303 594 q 280 529 285 561 q 274 472 275 497 q 274 403 274 446 l 274 0 z "},"Ň":{"ha":819,"x_min":75,"x_max":744,"o":"m 521 1074 l 326 1074 l 163 1231 l 354 1231 l 424 1163 l 493 1231 l 685 1231 l 521 1074 m 75 0 l 75 1007 l 331 1007 l 549 283 l 549 1007 l 744 1007 l 744 0 l 489 0 l 271 724 l 271 0 l 75 0 z "},"ň":{"ha":693,"x_min":60,"x_max":638,"o":"m 269 836 l 100 1007 l 264 1007 l 357 935 l 450 1007 l 613 1007 l 447 836 l 269 836 m 274 0 l 60 0 l 60 747 l 274 747 l 274 660 q 458 771 324 771 q 597 708 556 771 q 638 517 638 644 l 638 0 l 424 0 l 424 475 q 422 533 424 511 q 415 576 421 554 q 397 609 410 599 q 361 619 383 619 q 319 607 336 619 q 294 578 303 594 q 280 529 285 561 q 274 472 275 497 q 274 403 274 446 l 274 0 z "},"Ŋ":{"ha":819,"x_min":75,"x_max":744,"o":"m 385 -243 l 385 -78 l 447 -78 q 526 -62 506 -78 q 547 -1 547 -47 l 547 18 l 271 724 l 271 0 l 75 0 l 75 1007 l 331 1007 l 549 401 l 549 1007 l 744 1007 l 744 13 q 692 -190 744 -136 q 492 -243 639 -243 l 385 -243 z "},"ŋ":{"ha":704,"x_min":60,"x_max":649,"o":"m 335 -226 l 335 -97 l 374 -97 q 425 -76 415 -97 q 435 11 435 -54 l 435 458 q 433 533 435 510 q 426 586 432 557 q 406 627 421 615 q 365 639 390 639 q 321 626 339 639 q 294 598 303 614 q 280 549 285 582 q 274 491 275 515 q 274 422 274 467 l 274 17 l 60 17 l 60 764 l 274 764 l 274 674 q 458 785 324 785 q 605 727 561 785 q 649 532 649 669 l 649 15 q 590 -178 647 -131 q 393 -226 533 -226 l 335 -226 z "},"Ō":{"ha":792,"x_min":44,"x_max":747,"o":"m 232 1088 l 232 1231 l 582 1231 l 582 1088 l 232 1088 m 444 865 q 434 869 444 865 q 396 874 424 874 q 347 865 368 874 q 314 832 326 856 q 294 786 301 808 q 284 717 288 764 q 280 638 281 671 q 279 538 279 604 l 279 472 q 280 372 279 406 q 284 292 281 339 q 294 224 288 246 q 314 178 301 201 q 347 145 326 154 q 396 136 368 136 q 444 145 424 136 q 478 178 465 154 q 497 224 490 201 q 508 292 504 246 q 512 372 511 339 q 513 472 513 406 l 513 538 q 512 638 513 604 q 508 717 511 671 q 497 786 504 764 q 478 832 490 808 q 444 865 465 856 m 669 90 q 631 36 669 90 q 396 -17 592 -17 q 122 90 200 -17 q 44 433 44 196 l 44 576 q 122 920 44 814 q 396 1026 200 1026 q 669 920 592 1026 q 747 576 747 814 l 747 433 q 669 90 747 196 z "},"ō":{"ha":692,"x_min":40,"x_max":651,"o":"m 188 850 l 188 990 l 538 990 l 538 850 l 188 850 m 418 583 q 410 608 418 583 q 346 633 403 633 q 274 583 289 633 q 258 410 258 532 l 258 344 q 274 172 258 222 q 346 121 289 121 q 418 172 403 121 q 433 344 433 222 l 433 410 q 418 583 433 532 m 651 319 q 346 -17 651 -17 q 40 319 40 -17 l 40 435 q 346 771 40 771 q 651 435 651 771 l 651 319 z "},"Ŏ":{"ha":792,"x_min":44,"x_max":747,"o":"m 444 865 q 434 869 444 865 q 396 874 424 874 q 347 865 368 874 q 314 832 326 856 q 294 786 301 808 q 284 717 288 764 q 280 638 281 671 q 279 538 279 604 l 279 472 q 280 372 279 406 q 284 292 281 339 q 294 224 288 246 q 314 178 301 201 q 347 145 326 154 q 396 136 368 136 q 444 145 424 136 q 478 178 465 154 q 497 224 490 201 q 508 292 504 246 q 512 372 511 339 q 513 472 513 406 l 513 538 q 512 638 513 604 q 508 717 511 671 q 497 786 504 764 q 478 832 490 808 q 444 865 465 856 m 669 90 q 631 36 669 90 q 396 -17 592 -17 q 122 90 200 -17 q 44 433 44 196 l 44 576 q 122 920 44 814 q 396 1026 200 1026 q 669 920 592 1026 q 747 576 747 814 l 747 433 q 669 90 747 196 m 568 1108 q 541 1088 568 1108 q 408 1068 514 1068 q 248 1108 303 1068 q 188 1231 193 1147 l 336 1231 q 356 1181 339 1196 q 408 1167 374 1167 q 461 1181 444 1167 q 481 1231 478 1196 l 629 1231 q 568 1108 622 1147 z "},"ŏ":{"ha":692,"x_min":40,"x_max":651,"o":"m 418 583 q 410 608 418 583 q 346 633 403 633 q 274 583 289 633 q 258 410 258 532 l 258 344 q 274 172 258 222 q 346 121 289 121 q 418 172 403 121 q 433 344 433 222 l 433 410 q 418 583 433 532 m 651 319 q 346 -17 651 -17 q 40 319 40 -17 l 40 435 q 346 771 40 771 q 651 435 651 771 l 651 319 m 346 836 q 143 1007 143 836 l 286 1007 q 301 956 286 969 q 346 942 317 942 q 390 956 375 942 q 406 1007 406 969 l 549 1007 q 502 880 549 924 q 346 836 456 836 z "},"Ő":{"ha":792,"x_min":44,"x_max":775,"o":"m 444 865 q 434 869 444 865 q 396 874 424 874 q 347 865 368 874 q 314 832 326 856 q 294 786 301 808 q 284 717 288 764 q 280 638 281 671 q 279 538 279 604 l 279 472 q 280 372 279 406 q 284 292 281 339 q 294 224 288 246 q 314 178 301 201 q 347 145 326 154 q 396 136 368 136 q 444 145 424 136 q 478 178 465 154 q 497 224 490 201 q 508 292 504 246 q 512 372 511 339 q 513 472 513 406 l 513 538 q 512 638 513 604 q 508 717 511 671 q 497 786 504 764 q 478 832 490 808 q 444 865 465 856 m 669 90 q 631 36 669 90 q 396 -17 592 -17 q 122 90 200 -17 q 44 433 44 196 l 44 576 q 122 920 44 814 q 396 1026 200 1026 q 669 920 592 1026 q 747 576 747 814 l 747 433 q 669 90 747 196 m 451 1074 l 528 1231 l 775 1231 l 607 1074 l 451 1074 m 169 1074 l 246 1231 l 493 1231 l 325 1074 l 169 1074 z "},"ő":{"ha":692,"x_min":40,"x_max":749,"o":"m 418 583 q 410 608 418 583 q 346 633 403 633 q 274 583 289 633 q 258 410 258 532 l 258 344 q 274 172 258 222 q 346 121 289 121 q 418 172 403 121 q 433 344 433 222 l 433 410 q 418 583 433 532 m 651 319 q 346 -17 651 -17 q 40 319 40 -17 l 40 435 q 346 771 40 771 q 651 435 651 771 l 651 319 m 143 836 l 229 1007 l 471 1007 l 274 836 l 143 836 m 421 836 l 507 1007 l 749 1007 l 551 836 l 421 836 z "},"Œ":{"ha":1118,"x_min":44,"x_max":1088,"o":"m 533 -1 l 533 0 q 396 -17 475 -17 q 122 90 200 -17 q 44 433 44 196 l 44 576 q 122 920 44 814 q 396 1026 200 1026 q 546 1006 483 1026 l 1088 1006 l 1088 844 l 754 844 l 754 594 l 1058 594 l 1058 433 l 754 433 l 754 160 l 1088 160 l 1088 -1 l 533 -1 m 444 865 q 434 869 444 865 q 396 874 424 874 q 347 865 368 874 q 314 832 326 856 q 294 786 301 808 q 284 717 288 764 q 280 638 281 671 q 279 538 279 604 l 279 472 q 280 372 279 406 q 284 292 281 339 q 294 224 288 246 q 314 178 301 201 q 347 145 326 154 q 396 136 368 136 q 444 145 424 136 q 478 178 465 154 q 497 224 490 201 q 508 292 504 246 q 512 372 511 339 q 513 472 513 406 l 513 538 q 512 638 513 604 q 508 717 511 671 q 497 786 504 764 q 478 832 490 808 q 444 865 465 856 z "},"œ":{"ha":1078,"x_min":40,"x_max":1040,"o":"m 344 -17 q 40 319 40 -17 l 40 435 q 344 771 40 771 q 543 703 463 771 q 742 769 625 769 q 973 680 906 769 q 1040 394 1040 590 l 1040 354 l 650 354 l 650 319 q 668 170 650 219 q 739 121 686 121 q 807 147 783 121 q 831 247 831 174 l 831 253 l 1031 253 l 1031 246 q 1006 120 1031 174 q 937 38 981 67 q 844 -3 893 10 q 736 -17 794 -17 q 542 50 622 -17 q 344 -17 463 -17 m 344 121 q 392 134 375 121 q 418 181 410 147 q 428 247 426 214 q 431 344 431 281 l 431 410 q 428 507 431 474 q 418 574 426 540 q 392 620 410 607 q 344 633 375 633 q 272 583 288 633 q 257 410 257 532 l 257 344 q 272 172 257 222 q 344 121 288 121 m 647 468 l 846 468 l 846 492 q 823 602 846 568 q 746 636 800 636 q 669 602 690 636 q 647 490 647 568 l 647 468 z "},"Ŕ":{"ha":783,"x_min":75,"x_max":753,"o":"m 300 1074 l 376 1231 l 638 1231 l 456 1074 l 300 1074 m 525 0 l 389 435 q 356 433 378 433 l 296 433 l 296 0 l 75 0 l 75 1007 l 361 1007 q 652 948 565 1007 q 739 731 739 889 q 701 572 739 631 q 588 483 663 514 l 753 0 l 525 0 m 296 568 l 360 568 q 480 596 451 568 q 508 713 508 624 q 480 831 508 801 q 360 860 451 860 l 296 860 l 296 568 z "},"ŕ":{"ha":469,"x_min":60,"x_max":517,"o":"m 189 836 l 275 1007 l 517 1007 l 319 836 l 189 836 m 60 0 l 60 747 l 271 747 l 271 576 q 325 699 286 650 q 429 747 364 747 l 456 747 l 456 529 l 400 529 q 298 503 322 529 q 274 382 274 476 l 274 0 l 60 0 z "},"Ŗ":{"ha":783,"x_min":75,"x_max":753,"o":"m 324 -342 l 376 -208 l 328 -208 l 328 -69 l 492 -69 l 492 -218 l 431 -342 l 324 -342 m 525 0 l 389 435 q 356 433 378 433 l 296 433 l 296 0 l 75 0 l 75 1007 l 361 1007 q 652 948 565 1007 q 739 731 739 889 q 701 572 739 631 q 588 483 663 514 l 753 0 l 525 0 m 296 568 l 360 568 q 480 596 451 568 q 508 713 508 624 q 480 831 508 801 q 360 860 451 860 l 296 860 l 296 568 z "},"ŗ":{"ha":469,"x_min":60,"x_max":456,"o":"m 81 -342 l 133 -208 l 85 -208 l 85 -69 l 249 -69 l 249 -218 l 188 -342 l 81 -342 m 60 0 l 60 747 l 271 747 l 271 576 q 325 699 286 650 q 429 747 364 747 l 456 747 l 456 529 l 400 529 q 298 503 322 529 q 274 382 274 476 l 274 0 l 60 0 z "},"Ř":{"ha":783,"x_min":75,"x_max":753,"o":"m 485 1074 l 290 1074 l 126 1231 l 318 1231 l 388 1163 l 457 1231 l 649 1231 l 485 1074 m 525 0 l 389 435 q 356 433 378 433 l 296 433 l 296 0 l 75 0 l 75 1007 l 361 1007 q 652 948 565 1007 q 739 731 739 889 q 701 572 739 631 q 588 483 663 514 l 753 0 l 525 0 m 296 568 l 360 568 q 480 596 451 568 q 508 713 508 624 q 480 831 508 801 q 360 860 451 860 l 296 860 l 296 568 z "},"ř":{"ha":469,"x_min":-3,"x_max":510,"o":"m 167 836 l -3 1007 l 161 1007 l 254 935 l 347 1007 l 510 1007 l 344 836 l 167 836 m 60 0 l 60 747 l 271 747 l 271 576 q 325 699 286 650 q 429 747 364 747 l 456 747 l 456 529 l 400 529 q 298 503 322 529 q 274 382 274 476 l 274 0 l 60 0 z "},"Ś":{"ha":725,"x_min":33,"x_max":699,"o":"m 372 -17 q 33 321 33 -17 l 33 331 l 251 331 l 251 321 q 278 176 251 219 q 372 132 306 132 q 456 163 429 132 q 482 261 482 193 q 453 351 482 317 q 365 413 424 386 l 279 451 q 98 574 153 508 q 43 761 43 640 q 124 960 43 893 q 349 1026 206 1026 q 592 956 507 1026 q 678 724 678 885 l 678 718 l 463 718 l 463 724 q 435 845 463 810 q 347 881 407 881 q 256 768 256 881 q 332 646 256 678 l 429 601 q 537 549 497 571 q 619 490 576 526 q 680 405 661 454 q 699 289 699 356 q 613 60 699 138 q 372 -17 528 -17 m 271 1074 l 347 1231 l 608 1231 l 426 1074 l 271 1074 z "},"ś":{"ha":638,"x_min":31,"x_max":610,"o":"m 235 836 l 321 1007 l 563 1007 l 365 836 l 235 836 m 329 -17 q 108 54 186 -17 q 31 246 31 125 l 31 250 l 225 250 l 225 244 q 252 153 225 186 q 329 121 279 121 q 418 194 418 121 q 397 255 418 233 q 326 294 376 276 l 214 338 q 82 421 125 371 q 40 554 39 471 q 119 717 40 663 q 319 771 197 771 q 513 713 435 771 q 590 529 590 654 l 590 526 l 401 526 l 401 529 q 306 635 401 635 q 250 616 271 633 q 229 568 229 599 q 293 486 229 510 l 396 444 q 467 415 442 426 q 524 384 493 404 q 571 343 556 364 q 598 289 586 322 q 610 214 610 256 q 531 42 610 101 q 329 -17 453 -17 z "},"Ŝ":{"ha":725,"x_min":33,"x_max":699,"o":"m 111 1074 l 275 1231 l 469 1231 l 633 1074 l 442 1074 l 372 1142 l 303 1074 l 111 1074 m 372 -17 q 33 321 33 -17 l 33 331 l 251 331 l 251 321 q 278 176 251 219 q 372 132 306 132 q 456 163 429 132 q 482 261 482 193 q 453 351 482 317 q 365 413 424 386 l 279 451 q 98 574 153 508 q 43 761 43 640 q 124 960 43 893 q 349 1026 206 1026 q 592 956 507 1026 q 678 724 678 885 l 678 718 l 463 718 l 463 724 q 435 845 463 810 q 347 881 407 881 q 256 768 256 881 q 332 646 256 678 l 429 601 q 537 549 497 571 q 619 490 576 526 q 680 405 661 454 q 699 289 699 356 q 613 60 699 138 q 372 -17 528 -17 z "},"ŝ":{"ha":638,"x_min":31,"x_max":610,"o":"m 60 836 l 226 1007 l 407 1007 l 574 836 l 410 836 l 317 908 l 224 836 l 60 836 m 329 -17 q 108 54 186 -17 q 31 246 31 125 l 31 250 l 225 250 l 225 244 q 252 153 225 186 q 329 121 279 121 q 418 194 418 121 q 397 255 418 233 q 326 294 376 276 l 214 338 q 82 421 125 371 q 40 554 39 471 q 119 717 40 663 q 319 771 197 771 q 513 713 435 771 q 590 529 590 654 l 590 526 l 401 526 l 401 529 q 306 635 401 635 q 250 616 271 633 q 229 568 229 599 q 293 486 229 510 l 396 444 q 467 415 442 426 q 524 384 493 404 q 571 343 556 364 q 598 289 586 322 q 610 214 610 256 q 531 42 610 101 q 329 -17 453 -17 z "},"Ş":{"ha":725,"x_min":33,"x_max":699,"o":"m 369 -269 q 238 -249 294 -269 l 261 -178 q 349 -197 294 -197 q 419 -157 419 -197 q 365 -118 419 -118 q 311 -131 331 -118 l 269 -107 l 325 -15 q 33 321 33 7 l 33 331 l 251 331 l 251 321 q 278 176 251 219 q 372 132 306 132 q 456 163 429 132 q 482 261 482 193 q 453 351 482 317 q 365 413 424 386 l 279 451 q 98 574 153 508 q 43 761 43 640 q 124 960 43 893 q 349 1026 206 1026 q 592 956 507 1026 q 678 724 678 885 l 678 718 l 463 718 l 463 724 q 435 845 463 810 q 347 881 407 881 q 256 768 256 881 q 332 646 256 678 l 429 601 q 537 549 497 571 q 619 490 576 526 q 680 405 661 454 q 699 289 699 356 q 622 70 699 147 q 406 -15 546 -7 l 376 -64 q 429 -58 394 -58 q 513 -84 478 -60 q 549 -153 549 -108 q 496 -240 549 -210 q 369 -269 443 -269 z "},"ş":{"ha":638,"x_min":31,"x_max":610,"o":"m 317 -269 q 185 -249 242 -269 l 208 -178 q 296 -197 242 -197 q 367 -157 367 -197 q 313 -118 367 -118 q 258 -131 281 -118 l 217 -107 l 274 -14 q 94 69 157 0 q 31 246 31 138 l 31 250 l 225 250 l 225 244 q 252 153 225 186 q 329 121 279 121 q 418 194 418 121 q 397 255 418 233 q 326 294 376 276 l 214 338 q 82 421 125 371 q 40 554 39 471 q 119 717 40 663 q 319 771 197 771 q 513 713 435 771 q 590 529 590 654 l 590 526 l 401 526 l 401 529 q 306 635 401 635 q 250 616 271 633 q 229 568 229 599 q 293 486 229 510 l 396 444 q 467 415 442 426 q 524 384 493 404 q 571 343 556 364 q 598 289 586 322 q 610 214 610 256 q 539 49 610 107 q 353 -15 468 -10 l 324 -64 q 376 -58 342 -58 q 460 -84 424 -60 q 496 -153 496 -108 q 443 -240 496 -210 q 317 -269 390 -269 z "},"Š":{"ha":725,"x_min":33,"x_max":699,"o":"m 460 1074 l 265 1074 l 101 1231 l 293 1231 l 363 1163 l 432 1231 l 624 1231 l 460 1074 m 372 -17 q 33 321 33 -17 l 33 331 l 251 331 l 251 321 q 278 176 251 219 q 372 132 306 132 q 456 163 429 132 q 482 261 482 193 q 453 351 482 317 q 365 413 424 386 l 279 451 q 98 574 153 508 q 43 761 43 640 q 124 960 43 893 q 349 1026 206 1026 q 592 956 507 1026 q 678 724 678 885 l 678 718 l 463 718 l 463 724 q 435 845 463 810 q 347 881 407 881 q 256 768 256 881 q 332 646 256 678 l 429 601 q 537 549 497 571 q 619 490 576 526 q 680 405 661 454 q 699 289 699 356 q 613 60 699 138 q 372 -17 528 -17 z "},"š":{"ha":638,"x_min":31,"x_max":610,"o":"m 235 836 l 65 1007 l 229 1007 l 322 935 l 415 1007 l 578 1007 l 413 836 l 235 836 m 329 -17 q 108 54 186 -17 q 31 246 31 125 l 31 250 l 225 250 l 225 244 q 252 153 225 186 q 329 121 279 121 q 418 194 418 121 q 397 255 418 233 q 326 294 376 276 l 214 338 q 82 421 125 371 q 40 554 39 471 q 119 717 40 663 q 319 771 197 771 q 513 713 435 771 q 590 529 590 654 l 590 526 l 401 526 l 401 529 q 306 635 401 635 q 250 616 271 633 q 229 568 229 599 q 293 486 229 510 l 396 444 q 467 415 442 426 q 524 384 493 404 q 571 343 556 364 q 598 289 586 322 q 610 214 610 256 q 531 42 610 101 q 329 -17 453 -17 z "},"Ţ":{"ha":663,"x_min":15,"x_max":647,"o":"m 244 -342 l 297 -208 l 249 -208 l 249 -69 l 413 -69 l 413 -218 l 351 -342 l 244 -342 m 221 0 l 221 846 l 15 846 l 15 1007 l 647 1007 l 647 846 l 442 846 l 442 0 l 221 0 z "},"ţ":{"ha":433,"x_min":0,"x_max":429,"o":"m 144 -342 l 197 -208 l 149 -208 l 149 -69 l 313 -69 l 313 -218 l 251 -342 l 144 -342 m 276 0 q 128 44 168 0 q 89 201 89 88 l 89 615 l 0 615 l 0 747 l 89 747 l 89 950 l 303 950 l 303 747 l 429 747 l 429 615 l 303 615 l 303 222 q 318 149 303 167 q 375 132 333 132 l 429 132 l 429 0 l 276 0 z "},"Ť":{"ha":663,"x_min":15,"x_max":647,"o":"m 221 0 l 221 846 l 15 846 l 15 1007 l 647 1007 l 647 846 l 442 846 l 442 0 l 221 0 m 428 1074 l 233 1074 l 69 1231 l 261 1231 l 331 1163 l 400 1231 l 592 1231 l 428 1074 z "},"ť":{"ha":625,"x_min":0,"x_max":639,"o":"m 407 771 l 442 1007 l 639 1007 l 549 771 l 407 771 m 276 0 q 128 44 168 0 q 89 201 89 88 l 89 615 l 0 615 l 0 747 l 89 747 l 89 950 l 303 950 l 303 747 l 429 747 l 429 615 l 303 615 l 303 222 q 318 149 303 167 q 375 132 333 132 l 429 132 l 429 0 l 276 0 z "},"Ŧ":{"ha":663,"x_min":15,"x_max":647,"o":"m 15 428 l 15 589 l 221 589 l 221 846 l 15 846 l 15 1007 l 647 1007 l 647 846 l 442 846 l 442 589 l 647 589 l 647 428 l 442 428 l 442 0 l 221 0 l 221 428 l 15 428 z "},"ŧ":{"ha":465,"x_min":0,"x_max":429,"o":"m 0 367 l 0 508 l 89 508 l 89 615 l 0 615 l 0 747 l 89 747 l 89 950 l 303 950 l 303 747 l 429 747 l 429 615 l 303 615 l 303 508 l 429 508 l 429 367 l 303 367 l 303 222 q 318 149 303 167 q 375 132 333 132 l 429 132 l 429 0 l 276 0 q 128 44 168 0 q 89 201 89 88 l 89 367 l 0 367 z "},"Ũ":{"ha":778,"x_min":61,"x_max":717,"o":"m 461 1196 q 504 1242 503 1196 l 619 1242 q 574 1117 614 1164 q 474 1071 533 1071 q 394 1094 446 1071 q 319 1117 342 1117 q 276 1071 278 1117 l 161 1071 q 207 1195 167 1149 q 307 1242 247 1242 q 393 1219 342 1242 q 461 1196 444 1196 m 389 -17 q 219 1 282 -17 q 121 71 157 19 q 73 196 85 122 q 61 397 61 269 l 61 1007 l 282 1007 l 282 397 q 282 385 282 393 q 283 292 282 321 q 289 226 283 264 q 306 174 294 189 q 337 147 317 158 q 389 136 357 136 q 441 147 421 136 q 472 173 461 158 q 489 226 483 188 q 495 292 494 264 q 496 385 496 321 q 496 397 496 393 l 496 1007 l 717 1007 l 717 408 q 709 236 717 303 q 682 117 701 169 q 624 37 663 64 q 531 -3 586 10 q 389 -17 475 -17 z "},"ũ":{"ha":683,"x_min":56,"x_max":624,"o":"m 253 -15 q 101 49 146 -15 q 56 256 56 114 l 56 747 l 269 747 l 269 313 q 271 242 269 265 q 277 188 272 218 q 296 144 282 157 q 332 131 310 131 q 365 138 351 131 q 388 162 379 144 q 401 193 396 179 q 408 240 406 207 q 410 289 410 272 q 410 347 410 306 l 410 747 l 624 747 l 624 0 l 417 0 l 417 100 q 253 -15 365 -15 m 426 961 q 469 1007 468 961 l 585 1007 q 539 883 579 929 q 439 836 499 836 q 359 859 411 836 q 285 882 307 882 q 242 836 243 882 l 126 836 q 172 960 132 914 q 272 1007 213 1007 q 358 984 307 1007 q 426 961 410 961 z "},"Ū":{"ha":778,"x_min":61,"x_max":717,"o":"m 215 1088 l 215 1231 l 565 1231 l 565 1088 l 215 1088 m 389 -17 q 219 1 282 -17 q 121 71 157 19 q 73 196 85 122 q 61 397 61 269 l 61 1007 l 282 1007 l 282 397 q 282 385 282 393 q 283 292 282 321 q 289 226 283 264 q 306 174 294 189 q 337 147 317 158 q 389 136 357 136 q 441 147 421 136 q 472 173 461 158 q 489 226 483 188 q 495 292 494 264 q 496 385 496 321 q 496 397 496 393 l 496 1007 l 717 1007 l 717 408 q 709 236 717 303 q 682 117 701 169 q 624 37 663 64 q 531 -3 586 10 q 389 -17 475 -17 z "},"ū":{"ha":683,"x_min":56,"x_max":624,"o":"m 161 850 l 161 990 l 511 990 l 511 850 l 161 850 m 253 -15 q 101 49 146 -15 q 56 256 56 114 l 56 747 l 269 747 l 269 313 q 271 242 269 265 q 277 188 272 218 q 296 144 282 157 q 332 131 310 131 q 365 138 351 131 q 388 162 379 144 q 401 193 396 179 q 408 240 406 207 q 410 289 410 272 q 410 347 410 306 l 410 747 l 624 747 l 624 0 l 417 0 l 417 100 q 253 -15 365 -15 z "},"Ŭ":{"ha":778,"x_min":61,"x_max":717,"o":"m 550 1108 q 523 1088 550 1108 q 390 1068 496 1068 q 230 1108 285 1068 q 169 1231 175 1147 l 318 1231 q 338 1181 321 1196 q 390 1167 356 1167 q 443 1181 426 1167 q 463 1231 460 1196 l 611 1231 q 550 1108 604 1147 m 389 -17 q 219 1 282 -17 q 121 71 157 19 q 73 196 85 122 q 61 397 61 269 l 61 1007 l 282 1007 l 282 397 q 282 385 282 393 q 283 292 282 321 q 289 226 283 264 q 306 174 294 189 q 337 147 317 158 q 389 136 357 136 q 441 147 421 136 q 472 173 461 158 q 489 226 483 188 q 495 292 494 264 q 496 385 496 321 q 496 397 496 393 l 496 1007 l 717 1007 l 717 408 q 709 236 717 303 q 682 117 701 169 q 624 37 663 64 q 531 -3 586 10 q 389 -17 475 -17 z "},"ŭ":{"ha":683,"x_min":56,"x_max":624,"o":"m 342 836 q 139 1007 139 836 l 282 1007 q 297 956 282 969 q 342 942 313 942 q 386 956 371 942 q 401 1007 401 969 l 544 1007 q 498 880 544 924 q 342 836 451 836 m 253 -15 q 101 49 146 -15 q 56 256 56 114 l 56 747 l 269 747 l 269 313 q 271 242 269 265 q 277 188 272 218 q 296 144 282 157 q 332 131 310 131 q 365 138 351 131 q 388 162 379 144 q 401 193 396 179 q 408 240 406 207 q 410 289 410 272 q 410 347 410 306 l 410 747 l 624 747 l 624 0 l 417 0 l 417 100 q 253 -15 365 -15 z "},"Ů":{"ha":778,"x_min":61,"x_max":717,"o":"m 348 1139 q 357 1131 348 1139 q 390 1122 365 1122 q 433 1139 415 1122 q 450 1181 450 1156 q 433 1223 450 1206 q 390 1240 415 1240 q 348 1223 365 1240 q 331 1181 331 1206 q 348 1139 331 1156 m 479 1096 q 461 1079 479 1096 q 390 1063 443 1063 q 301 1096 338 1063 q 265 1181 265 1129 q 302 1265 265 1231 q 390 1299 339 1299 q 478 1265 442 1299 q 515 1181 515 1231 q 479 1096 515 1129 m 389 -17 q 219 1 282 -17 q 121 71 157 19 q 73 196 85 122 q 61 397 61 269 l 61 1007 l 282 1007 l 282 397 q 282 385 282 393 q 283 292 282 321 q 289 226 283 264 q 306 174 294 189 q 337 147 317 158 q 389 136 357 136 q 441 147 421 136 q 472 173 461 158 q 489 226 483 188 q 495 292 494 264 q 496 385 496 321 q 496 397 496 393 l 496 1007 l 717 1007 l 717 408 q 709 236 717 303 q 682 117 701 169 q 624 37 663 64 q 531 -3 586 10 q 389 -17 475 -17 z "},"ů":{"ha":683,"x_min":56,"x_max":624,"o":"m 301 902 q 310 894 301 902 q 342 886 318 886 q 382 902 365 886 q 399 942 399 918 q 382 983 399 967 q 342 999 365 999 q 301 983 318 999 q 285 942 285 967 q 301 902 285 918 m 435 853 q 416 836 435 853 q 342 818 397 818 q 248 853 286 818 q 210 942 210 889 q 248 1031 210 996 q 342 1067 286 1067 q 435 1031 397 1067 q 474 942 474 996 q 435 853 474 889 m 253 -15 q 101 49 146 -15 q 56 256 56 114 l 56 747 l 269 747 l 269 313 q 271 242 269 265 q 277 188 272 218 q 296 144 282 157 q 332 131 310 131 q 365 138 351 131 q 388 162 379 144 q 401 193 396 179 q 408 240 406 207 q 410 289 410 272 q 410 347 410 306 l 410 747 l 624 747 l 624 0 l 417 0 l 417 100 q 253 -15 365 -15 z "},"Ű":{"ha":778,"x_min":61,"x_max":768,"o":"m 389 -17 q 219 1 282 -17 q 121 71 157 19 q 73 196 85 122 q 61 397 61 269 l 61 1007 l 282 1007 l 282 397 q 282 385 282 393 q 283 292 282 321 q 289 226 283 264 q 306 174 294 189 q 337 147 317 158 q 389 136 357 136 q 441 147 421 136 q 472 173 461 158 q 489 226 483 188 q 495 292 494 264 q 496 385 496 321 q 496 397 496 393 l 496 1007 l 717 1007 l 717 408 q 709 236 717 303 q 682 117 701 169 q 624 37 663 64 q 531 -3 586 10 q 389 -17 475 -17 m 444 1074 l 521 1231 l 768 1231 l 600 1074 l 444 1074 m 163 1074 l 239 1231 l 486 1231 l 318 1074 l 163 1074 z "},"ű":{"ha":683,"x_min":56,"x_max":732,"o":"m 253 -15 q 101 49 146 -15 q 56 256 56 114 l 56 747 l 269 747 l 269 313 q 271 242 269 265 q 277 188 272 218 q 296 144 282 157 q 332 131 310 131 q 365 138 351 131 q 388 162 379 144 q 401 193 396 179 q 408 240 406 207 q 410 289 410 272 q 410 347 410 306 l 410 747 l 624 747 l 624 0 l 417 0 l 417 100 q 253 -15 365 -15 m 126 836 l 213 1007 l 454 1007 l 257 836 l 126 836 m 404 836 l 490 1007 l 732 1007 l 535 836 l 404 836 z "},"Ų":{"ha":778,"x_min":61,"x_max":717,"o":"m 390 -261 q 253 -229 307 -261 q 199 -132 199 -197 q 219 -63 199 -97 q 268 -8 239 -29 q 102 100 143 13 q 61 397 61 188 l 61 1007 l 282 1007 l 282 397 q 282 385 282 393 q 283 292 282 321 q 289 226 283 264 q 306 174 294 189 q 337 147 317 158 q 389 136 357 136 q 441 147 421 136 q 472 173 461 158 q 489 226 483 188 q 495 292 494 264 q 496 385 496 321 q 496 397 496 393 l 496 1007 l 717 1007 l 717 408 q 670 91 717 179 q 478 -12 624 3 q 404 -56 428 -37 q 381 -100 381 -75 q 442 -146 381 -146 q 504 -136 472 -146 l 504 -250 q 390 -261 446 -261 z "},"ų":{"ha":683,"x_min":56,"x_max":624,"o":"m 253 -15 q 101 49 146 -15 q 56 256 56 114 l 56 747 l 269 747 l 269 313 q 271 242 269 265 q 277 188 272 218 q 296 144 282 157 q 332 131 310 131 q 365 138 351 131 q 388 162 379 144 q 401 193 396 179 q 408 240 406 207 q 410 289 410 272 q 410 347 410 306 l 410 747 l 624 747 l 624 0 q 559 -33 579 -21 q 521 -62 539 -44 q 503 -100 503 -81 q 564 -146 503 -146 q 622 -137 589 -146 l 622 -250 q 513 -261 567 -261 q 375 -229 429 -261 q 321 -132 321 -197 q 418 0 321 -50 l 417 0 l 417 100 q 253 -15 365 -15 z "},"Ŵ":{"ha":1014,"x_min":15,"x_max":999,"o":"m 243 1074 l 407 1231 l 601 1231 l 765 1074 l 574 1074 l 504 1142 l 435 1074 l 243 1074 m 142 0 l 15 1007 l 215 1007 l 294 243 l 414 1007 l 600 1007 l 719 243 l 799 1007 l 999 1007 l 872 0 l 622 0 l 507 761 l 392 0 l 142 0 z "},"ŵ":{"ha":836,"x_min":28,"x_max":808,"o":"m 161 836 l 328 1007 l 508 1007 l 675 836 l 511 836 l 418 908 l 325 836 l 161 836 m 113 0 l 28 747 l 206 747 l 247 231 l 319 747 l 515 747 l 589 232 l 631 747 l 808 747 l 724 0 l 494 0 l 418 567 l 340 0 l 113 0 z "},"Ŷ":{"ha":722,"x_min":0,"x_max":722,"o":"m 99 1074 l 263 1231 l 457 1231 l 621 1074 l 429 1074 l 360 1142 l 290 1074 l 99 1074 m 247 0 l 247 421 l 0 1007 l 224 1007 l 361 615 l 503 1007 l 722 1007 l 468 418 l 468 0 l 247 0 z "},"ŷ":{"ha":597,"x_min":0,"x_max":597,"o":"m 43 836 l 210 1007 l 390 1007 l 557 836 l 393 836 l 300 908 l 207 836 l 43 836 m 60 -243 l 60 -111 l 113 -111 q 179 -92 158 -111 q 207 -32 200 -74 l 214 4 l 0 747 l 208 747 l 315 207 l 403 747 l 597 747 l 422 0 q 333 -194 389 -144 q 147 -243 276 -243 l 60 -243 z "},"Ÿ":{"ha":722,"x_min":0,"x_max":722,"o":"m 129 1074 l 129 1231 l 315 1231 l 315 1074 l 129 1074 m 407 1074 l 407 1231 l 593 1231 l 593 1074 l 407 1074 m 247 0 l 247 421 l 0 1007 l 224 1007 l 361 615 l 503 1007 l 722 1007 l 468 418 l 468 0 l 247 0 z "},"Ź":{"ha":714,"x_min":31,"x_max":676,"o":"m 264 1074 l 340 1231 l 601 1231 l 419 1074 l 264 1074 m 31 0 l 31 149 l 421 846 l 74 846 l 74 1007 l 663 1007 l 663 860 l 271 161 l 676 161 l 676 0 l 31 0 z "},"ź":{"ha":589,"x_min":31,"x_max":560,"o":"m 232 836 l 318 1007 l 560 1007 l 363 836 l 232 836 m 31 0 l 31 132 l 326 615 l 63 615 l 63 747 l 547 747 l 547 615 l 251 132 l 558 132 l 558 0 l 31 0 z "},"Ż":{"ha":714,"x_min":31,"x_max":676,"o":"m 260 1074 l 260 1231 l 482 1231 l 482 1074 l 260 1074 m 31 0 l 31 149 l 421 846 l 74 846 l 74 1007 l 663 1007 l 663 860 l 271 161 l 676 161 l 676 0 l 31 0 z "},"ż":{"ha":589,"x_min":31,"x_max":558,"o":"m 229 836 l 229 1007 l 415 1007 l 415 836 l 229 836 m 31 0 l 31 132 l 326 615 l 63 615 l 63 747 l 547 747 l 547 615 l 251 132 l 558 132 l 558 0 l 31 0 z "},"Ž":{"ha":714,"x_min":31,"x_max":676,"o":"m 476 1074 l 282 1074 l 118 1231 l 310 1231 l 379 1163 l 449 1231 l 640 1231 l 476 1074 m 31 0 l 31 149 l 421 846 l 74 846 l 74 1007 l 663 1007 l 663 860 l 271 161 l 676 161 l 676 0 l 31 0 z "},"ž":{"ha":589,"x_min":31,"x_max":575,"o":"m 232 836 l 63 1007 l 226 1007 l 319 935 l 413 1007 l 575 1007 l 410 836 l 232 836 m 31 0 l 31 132 l 326 615 l 63 615 l 63 747 l 547 747 l 547 615 l 251 132 l 558 132 l 558 0 l 31 0 z "},"Ə":{"ha":797,"x_min":44,"x_max":751,"o":"m 400 -17 q 123 90 201 -17 q 44 436 44 196 l 44 556 l 521 556 l 521 567 q 520 658 521 626 q 516 732 519 690 q 505 794 513 774 q 484 836 497 815 q 450 865 471 857 q 400 874 429 874 q 332 857 358 874 q 296 806 306 840 q 283 747 286 772 q 281 679 281 722 l 281 668 l 51 668 l 51 679 q 131 934 51 842 q 400 1026 210 1026 q 674 920 597 1026 q 751 576 751 814 l 751 435 q 674 90 751 196 q 400 -17 597 -17 m 400 136 q 455 149 432 136 q 490 180 478 161 q 510 233 503 199 q 519 299 517 267 q 521 382 521 332 l 521 403 l 278 403 l 278 389 q 304 201 278 265 q 400 136 331 136 z "},"Ș":{"ha":725,"x_min":33,"x_max":699,"o":"m 372 -17 q 33 321 33 -17 l 33 331 l 251 331 l 251 321 q 278 176 251 219 q 372 132 306 132 q 456 163 429 132 q 482 261 482 193 q 453 351 482 317 q 365 413 424 386 l 279 451 q 98 574 153 508 q 43 761 43 640 q 124 960 43 893 q 349 1026 206 1026 q 592 956 507 1026 q 678 724 678 885 l 678 718 l 463 718 l 463 724 q 435 845 463 810 q 347 881 407 881 q 256 768 256 881 q 332 646 256 678 l 429 601 q 537 549 497 571 q 619 490 576 526 q 680 405 661 454 q 699 289 699 356 q 613 60 699 138 q 372 -17 528 -17 m 283 -342 l 336 -208 l 288 -208 l 288 -69 l 451 -69 l 451 -218 l 390 -342 l 283 -342 z "},"ș":{"ha":638,"x_min":31,"x_max":610,"o":"m 231 -342 l 283 -208 l 235 -208 l 235 -69 l 399 -69 l 399 -218 l 338 -342 l 231 -342 m 329 -17 q 108 54 186 -17 q 31 246 31 125 l 31 250 l 225 250 l 225 244 q 252 153 225 186 q 329 121 279 121 q 418 194 418 121 q 397 255 418 233 q 326 294 376 276 l 214 338 q 82 421 125 371 q 40 554 39 471 q 119 717 40 663 q 319 771 197 771 q 513 713 435 771 q 590 529 590 654 l 590 526 l 401 526 l 401 529 q 306 635 401 635 q 250 616 271 633 q 229 568 229 599 q 293 486 229 510 l 396 444 q 467 415 442 426 q 524 384 493 404 q 571 343 556 364 q 598 289 586 322 q 610 214 610 256 q 531 42 610 101 q 329 -17 453 -17 z "},"Ț":{"ha":663,"x_min":15,"x_max":647,"o":"m 244 -342 l 297 -208 l 249 -208 l 249 -69 l 413 -69 l 413 -218 l 351 -342 l 244 -342 m 221 0 l 221 846 l 15 846 l 15 1007 l 647 1007 l 647 846 l 442 846 l 442 0 l 221 0 z "},"ț":{"ha":433,"x_min":0,"x_max":429,"o":"m 144 -342 l 197 -208 l 149 -208 l 149 -69 l 313 -69 l 313 -218 l 251 -342 l 144 -342 m 276 0 q 128 44 168 0 q 89 201 89 88 l 89 615 l 0 615 l 0 747 l 89 747 l 89 950 l 303 950 l 303 747 l 429 747 l 429 615 l 303 615 l 303 222 q 318 149 303 167 q 375 132 333 132 l 429 132 l 429 0 l 276 0 z "},"Ȳ":{"ha":722,"x_min":0,"x_max":722,"o":"m 186 1088 l 186 1231 l 536 1231 l 536 1088 l 186 1088 m 247 0 l 247 421 l 0 1007 l 224 1007 l 361 615 l 503 1007 l 722 1007 l 468 418 l 468 0 l 247 0 z "},"ȳ":{"ha":597,"x_min":0,"x_max":597,"o":"m 129 850 l 129 990 l 479 990 l 479 850 l 129 850 m 60 -243 l 60 -111 l 113 -111 q 179 -92 158 -111 q 207 -32 200 -74 l 214 4 l 0 747 l 208 747 l 315 207 l 403 747 l 597 747 l 422 0 q 333 -194 389 -144 q 147 -243 276 -243 l 60 -243 z "},"ȷ":{"ha":333,"x_min":-40,"x_max":274,"o":"m -40 -243 l -40 -114 l -1 -114 q 50 -92 40 -114 q 60 -6 60 -71 l 60 747 l 274 747 l 274 7 q 217 -193 274 -143 q 18 -243 160 -243 l -40 -243 z "},"ə":{"ha":694,"x_min":-1,"x_max":603,"o":"m 297 -15 q 66 74 133 -15 q -1 360 -1 164 l -1 400 l 392 400 l 392 410 q 374 582 392 531 q 300 633 357 633 q 232 607 256 633 q 208 507 208 581 l 208 501 l 8 501 l 8 508 q 33 634 8 581 q 102 716 58 688 q 195 758 146 744 q 303 771 244 771 q 603 438 603 771 l 603 315 q 297 -15 603 -15 m 216 153 q 227 136 216 153 q 293 118 238 118 q 370 154 349 118 q 392 274 392 190 l 392 286 l 194 286 l 194 274 q 216 153 194 189 z "},"ˆ":{"ha":575,"x_min":31,"x_max":544,"o":"m 31 836 l 197 1007 l 378 1007 l 544 836 l 381 836 l 288 908 l 194 836 l 31 836 z "},"ˇ":{"ha":572,"x_min":31,"x_max":543,"o":"m 200 836 l 31 1007 l 194 1007 l 288 935 l 381 1007 l 543 1007 l 378 836 l 200 836 z "},"˘":{"ha":467,"x_min":31,"x_max":436,"o":"m 233 836 q 31 1007 31 836 l 174 1007 q 189 956 174 969 q 233 942 204 942 q 278 956 263 942 q 293 1007 293 969 l 436 1007 q 390 880 436 924 q 233 836 343 836 z "},"˙":{"ha":246,"x_min":31,"x_max":217,"o":"m 31 836 l 31 1007 l 217 1007 l 217 836 l 31 836 z "},"˚":{"ha":324,"x_min":31,"x_max":294,"o":"m 122 902 q 131 894 122 902 q 163 886 139 886 q 203 902 186 886 q 219 942 219 918 q 203 983 219 967 q 163 999 186 999 q 122 983 139 999 q 106 942 106 967 q 122 902 106 918 m 256 853 q 237 836 256 853 q 163 818 218 818 q 69 853 107 818 q 31 942 31 889 q 69 1031 31 996 q 163 1067 107 1067 q 256 1031 218 1067 q 294 942 294 996 q 256 853 294 889 z "},"˛":{"ha":364,"x_min":31,"x_max":333,"o":"m 222 -261 q 85 -229 139 -261 q 31 -132 31 -197 q 56 -57 31 -92 q 126 0 82 -22 l 333 0 q 269 -33 289 -21 q 231 -62 249 -44 q 213 -100 213 -81 q 274 -146 213 -146 q 332 -137 299 -146 l 332 -250 q 222 -261 276 -261 z "},"˜":{"ha":519,"x_min":31,"x_max":489,"o":"m 331 961 q 374 1007 372 961 l 489 1007 q 443 883 483 929 q 343 836 403 836 q 263 859 315 836 q 189 882 211 882 q 146 836 147 882 l 31 836 q 76 960 36 914 q 176 1007 117 1007 q 263 984 211 1007 q 331 961 314 961 z "},"˝":{"ha":667,"x_min":31,"x_max":636,"o":"m 31 836 l 117 1007 l 358 1007 l 161 836 l 31 836 m 308 836 l 394 1007 l 636 1007 l 439 836 l 308 836 z "},"̬":{"ha":611,"x_min":31,"x_max":581,"o":"m 250 -178 l 31 14 l 199 14 l 304 -58 l 415 14 l 581 14 l 357 -178 l 250 -178 z "},"Δ":{"ha":903,"x_min":0,"x_max":903,"o":"m 258 169 l 643 169 l 451 631 l 258 169 m 0 0 l 451 1040 l 903 0 l 0 0 z "},"∆":{"ha":903,"x_min":0,"x_max":903,"o":"m 258 169 l 643 169 l 451 631 l 258 169 m 0 0 l 451 1040 l 903 0 l 0 0 z "},"Ω":{"ha":986,"x_min":72,"x_max":914,"o":"m 75 0 l 75 181 l 283 181 l 283 242 q 132 372 192 283 q 72 604 72 461 q 185 914 72 804 q 493 1024 297 1024 q 801 914 689 1024 q 914 604 914 804 q 854 372 914 461 q 703 242 794 283 l 703 181 l 911 181 l 911 0 l 538 0 l 538 346 q 669 435 621 369 q 717 599 717 500 q 657 795 717 726 q 493 864 597 864 q 329 795 389 864 q 269 599 269 726 q 317 435 269 500 q 449 346 365 369 l 449 0 l 75 0 z "},"Ω":{"ha":986,"x_min":72,"x_max":914,"o":"m 75 0 l 75 181 l 283 181 l 283 242 q 132 372 192 283 q 72 604 72 461 q 185 914 72 804 q 493 1024 297 1024 q 801 914 689 1024 q 914 604 914 804 q 854 372 914 461 q 703 242 794 283 l 703 181 l 911 181 l 911 0 l 538 0 l 538 346 q 669 435 621 369 q 717 599 717 500 q 657 795 717 726 q 493 864 597 864 q 329 795 389 864 q 269 599 269 726 q 317 435 269 500 q 449 346 365 369 l 449 0 l 75 0 z "},"π":{"ha":760,"x_min":31,"x_max":731,"o":"m 121 0 l 121 579 l 31 579 l 31 747 l 714 747 l 714 579 l 625 579 l 625 240 q 636 169 625 185 q 693 153 647 153 l 731 153 l 731 0 l 671 0 q 497 43 542 0 q 453 222 453 86 l 453 579 l 294 579 l 294 0 l 121 0 z "},"Ẁ":{"ha":1014,"x_min":15,"x_max":999,"o":"m 433 1074 l 251 1231 l 513 1231 l 589 1074 l 433 1074 m 142 0 l 15 1007 l 215 1007 l 294 243 l 414 1007 l 600 1007 l 719 243 l 799 1007 l 999 1007 l 872 0 l 622 0 l 507 761 l 392 0 l 142 0 z "},"ẁ":{"ha":836,"x_min":28,"x_max":808,"o":"m 367 836 l 169 1007 l 411 1007 l 497 836 l 367 836 m 113 0 l 28 747 l 206 747 l 247 231 l 319 747 l 515 747 l 589 232 l 631 747 l 808 747 l 724 0 l 494 0 l 418 567 l 340 0 l 113 0 z "},"Ẃ":{"ha":1014,"x_min":15,"x_max":999,"o":"m 426 1074 l 503 1231 l 764 1231 l 582 1074 l 426 1074 m 142 0 l 15 1007 l 215 1007 l 294 243 l 414 1007 l 600 1007 l 719 243 l 799 1007 l 999 1007 l 872 0 l 622 0 l 507 761 l 392 0 l 142 0 z "},"ẃ":{"ha":836,"x_min":28,"x_max":808,"o":"m 353 836 l 439 1007 l 681 1007 l 483 836 l 353 836 m 113 0 l 28 747 l 206 747 l 247 231 l 319 747 l 515 747 l 589 232 l 631 747 l 808 747 l 724 0 l 494 0 l 418 567 l 340 0 l 113 0 z "},"Ẅ":{"ha":1014,"x_min":15,"x_max":999,"o":"m 275 1074 l 275 1231 l 461 1231 l 461 1074 l 275 1074 m 553 1074 l 553 1231 l 739 1231 l 739 1074 l 553 1074 m 142 0 l 15 1007 l 215 1007 l 294 243 l 414 1007 l 600 1007 l 719 243 l 799 1007 l 999 1007 l 872 0 l 622 0 l 507 761 l 392 0 l 142 0 z "},"ẅ":{"ha":836,"x_min":28,"x_max":808,"o":"m 189 836 l 189 1007 l 375 1007 l 375 836 l 189 836 m 467 836 l 467 1007 l 653 1007 l 653 836 l 467 836 m 113 0 l 28 747 l 206 747 l 247 231 l 319 747 l 515 747 l 589 232 l 631 747 l 808 747 l 724 0 l 494 0 l 418 567 l 340 0 l 113 0 z "},"Ị":{"ha":371,"x_min":75,"x_max":296,"o":"m 93 -243 l 93 -79 l 279 -79 l 279 -243 l 93 -243 m 75 0 l 75 1007 l 296 1007 l 296 0 l 75 0 z "},"ị":{"ha":333,"x_min":60,"x_max":274,"o":"m 60 0 l 60 747 l 274 747 l 274 0 l 60 0 m 60 829 l 60 1007 l 274 1007 l 274 829 l 60 829 m 75 -243 l 75 -79 l 261 -79 l 261 -243 l 75 -243 z "},"Ọ":{"ha":792,"x_min":44,"x_max":747,"o":"m 317 -243 l 317 -79 l 503 -79 l 503 -243 l 317 -243 m 444 865 q 434 869 444 865 q 396 874 424 874 q 347 865 368 874 q 314 832 326 856 q 294 786 301 808 q 284 717 288 764 q 280 638 281 671 q 279 538 279 604 l 279 472 q 280 372 279 406 q 284 292 281 339 q 294 224 288 246 q 314 178 301 201 q 347 145 326 154 q 396 136 368 136 q 444 145 424 136 q 478 178 465 154 q 497 224 490 201 q 508 292 504 246 q 512 372 511 339 q 513 472 513 406 l 513 538 q 512 638 513 604 q 508 717 511 671 q 497 786 504 764 q 478 832 490 808 q 444 865 465 856 m 669 90 q 631 36 669 90 q 396 -17 592 -17 q 122 90 200 -17 q 44 433 44 196 l 44 576 q 122 920 44 814 q 396 1026 200 1026 q 669 920 592 1026 q 747 576 747 814 l 747 433 q 669 90 747 196 z "},"ọ":{"ha":692,"x_min":40,"x_max":651,"o":"m 418 583 q 410 608 418 583 q 346 633 403 633 q 274 583 289 633 q 258 410 258 532 l 258 344 q 274 172 258 222 q 346 121 289 121 q 418 172 403 121 q 433 344 433 222 l 433 410 q 418 583 433 532 m 651 319 q 346 -17 651 -17 q 40 319 40 -17 l 40 435 q 346 771 40 771 q 651 435 651 771 l 651 319 m 254 -243 l 254 -79 l 440 -79 l 440 -243 l 254 -243 z "},"Ụ":{"ha":778,"x_min":61,"x_max":717,"o":"m 297 -243 l 297 -79 l 483 -79 l 483 -243 l 297 -243 m 389 -17 q 219 1 282 -17 q 121 71 157 19 q 73 196 85 122 q 61 397 61 269 l 61 1007 l 282 1007 l 282 397 q 282 385 282 393 q 283 292 282 321 q 289 226 283 264 q 306 174 294 189 q 337 147 317 158 q 389 136 357 136 q 441 147 421 136 q 472 173 461 158 q 489 226 483 188 q 495 292 494 264 q 496 385 496 321 q 496 397 496 393 l 496 1007 l 717 1007 l 717 408 q 709 236 717 303 q 682 117 701 169 q 624 37 663 64 q 531 -3 586 10 q 389 -17 475 -17 z "},"ụ":{"ha":683,"x_min":56,"x_max":624,"o":"m 244 -243 l 244 -79 l 431 -79 l 431 -243 l 244 -243 m 253 -15 q 101 49 146 -15 q 56 256 56 114 l 56 747 l 269 747 l 269 313 q 271 242 269 265 q 277 188 272 218 q 296 144 282 157 q 332 131 310 131 q 365 138 351 131 q 388 162 379 144 q 401 193 396 179 q 408 240 406 207 q 410 289 410 272 q 410 347 410 306 l 410 747 l 624 747 l 624 0 l 417 0 l 417 100 q 253 -15 365 -15 z "},"Ỳ":{"ha":722,"x_min":0,"x_max":722,"o":"m 310 1074 l 128 1231 l 389 1231 l 465 1074 l 310 1074 m 247 0 l 247 421 l 0 1007 l 224 1007 l 361 615 l 503 1007 l 722 1007 l 468 418 l 468 0 l 247 0 z "},"ỳ":{"ha":597,"x_min":0,"x_max":597,"o":"m 272 836 l 75 1007 l 317 1007 l 403 836 l 272 836 m 60 -243 l 60 -111 l 113 -111 q 179 -92 158 -111 q 207 -32 200 -74 l 214 4 l 0 747 l 208 747 l 315 207 l 403 747 l 597 747 l 422 0 q 333 -194 389 -144 q 147 -243 276 -243 l 60 -243 z "},"–":{"ha":693,"x_min":36,"x_max":657,"o":"m 36 258 l 36 440 l 657 440 l 657 258 l 36 258 z "},"—":{"ha":1008,"x_min":36,"x_max":972,"o":"m 36 258 l 36 440 l 972 440 l 972 258 l 36 258 z "},"‘":{"ha":331,"x_min":53,"x_max":294,"o":"m 294 1007 l 181 779 l 278 779 l 278 565 l 53 565 l 53 793 l 169 1007 l 294 1007 z "},"’":{"ha":331,"x_min":36,"x_max":278,"o":"m 36 565 l 150 793 l 53 793 l 53 1007 l 278 1007 l 278 779 l 161 565 l 36 565 z "},"‚":{"ha":331,"x_min":36,"x_max":278,"o":"m 36 -228 l 150 0 l 53 0 l 53 214 l 278 214 l 278 -14 l 161 -228 l 36 -228 z "},"“":{"ha":625,"x_min":53,"x_max":589,"o":"m 589 1007 l 475 779 l 572 779 l 572 565 l 347 565 l 347 793 l 464 1007 l 589 1007 m 294 1007 l 181 779 l 278 779 l 278 565 l 53 565 l 53 793 l 169 1007 l 294 1007 z "},"”":{"ha":625,"x_min":36,"x_max":572,"o":"m 331 565 l 444 793 l 347 793 l 347 1007 l 572 1007 l 572 779 l 456 565 l 331 565 m 36 565 l 150 793 l 53 793 l 53 1007 l 278 1007 l 278 779 l 161 565 l 36 565 z "},"„":{"ha":625,"x_min":36,"x_max":572,"o":"m 331 -228 l 444 0 l 347 0 l 347 214 l 572 214 l 572 -14 l 456 -228 l 331 -228 m 36 -228 l 150 0 l 53 0 l 53 214 l 278 214 l 278 -14 l 161 -228 l 36 -228 z "},"†":{"ha":715,"x_min":31,"x_max":686,"o":"m 261 0 l 261 551 l 31 551 l 31 719 l 261 719 l 261 1007 l 456 1007 l 456 719 l 686 719 l 686 551 l 456 551 l 456 0 l 261 0 z "},"‡":{"ha":715,"x_min":31,"x_max":686,"o":"m 261 0 l 261 251 l 31 251 l 31 418 l 261 418 l 261 582 l 31 582 l 31 749 l 261 749 l 261 1007 l 456 1007 l 456 749 l 686 749 l 686 582 l 456 582 l 456 418 l 686 418 l 686 251 l 456 251 l 456 0 l 261 0 z "},"•":{"ha":621,"x_min":60,"x_max":561,"o":"m 306 124 q 132 197 204 124 q 60 378 60 271 q 132 551 60 479 q 306 624 204 624 q 488 552 414 624 q 561 378 561 481 q 488 197 561 271 q 306 124 414 124 z "},"…":{"ha":992,"x_min":53,"x_max":939,"o":"m 383 0 l 383 215 l 608 215 l 608 0 l 383 0 m 714 0 l 714 215 l 939 215 l 939 0 l 714 0 m 53 0 l 53 215 l 278 215 l 278 0 l 53 0 z "},"‰":{"ha":1526,"x_min":29,"x_max":1497,"o":"m 1311 72 q 1356 110 1349 72 q 1364 256 1364 149 l 1364 310 q 1364 325 1364 315 q 1363 398 1364 375 q 1358 447 1363 421 q 1342 483 1353 474 q 1311 493 1331 493 q 1278 483 1290 493 q 1262 442 1267 472 q 1256 389 1257 411 q 1256 310 1256 367 l 1256 256 q 1256 176 1256 199 q 1262 124 1257 154 q 1278 83 1267 93 q 1311 72 1290 72 m 1311 -11 q 1165 48 1204 -11 q 1125 242 1125 107 l 1125 324 q 1165 517 1125 458 q 1311 576 1204 576 q 1456 517 1415 576 q 1497 324 1497 457 l 1497 242 q 1456 49 1497 108 q 1311 -11 1415 -11 m 215 514 q 246 523 235 514 q 262 559 257 532 q 267 608 267 586 q 268 681 268 629 q 268 688 268 685 q 268 696 268 692 l 268 750 q 268 765 268 756 q 267 838 268 815 q 262 888 267 861 q 246 924 257 914 q 215 933 235 933 q 183 923 194 933 q 166 882 171 913 q 160 829 161 851 q 160 750 160 807 l 160 696 q 174 539 160 567 q 215 514 188 515 m 215 431 q 69 489 108 431 q 29 682 29 547 l 29 764 q 69 958 29 899 q 215 1017 108 1017 q 360 957 319 1017 q 401 764 401 897 l 401 682 q 361 490 401 549 q 215 431 321 431 m 354 0 l 650 1007 l 742 1007 l 446 0 l 354 0 m 881 72 q 926 110 918 72 q 933 256 933 149 l 933 310 q 933 325 933 315 q 933 398 933 375 q 927 447 932 421 q 911 483 922 474 q 881 493 900 493 q 848 483 860 493 q 831 442 836 472 q 826 389 826 411 q 825 310 825 367 l 825 256 q 826 176 825 199 q 831 124 826 154 q 848 83 836 93 q 881 72 860 72 m 881 -11 q 734 48 774 -11 q 694 242 694 107 l 694 324 q 734 517 694 458 q 881 576 774 576 q 1026 517 985 576 q 1067 324 1067 457 l 1067 242 q 1026 49 1067 108 q 881 -11 985 -11 z "},"‹":{"ha":293,"x_min":42,"x_max":251,"o":"m 251 57 l 42 267 l 42 517 l 251 722 l 251 483 l 150 390 l 251 297 l 251 57 z "},"›":{"ha":293,"x_min":42,"x_max":251,"o":"m 42 57 l 42 297 l 143 390 l 42 483 l 42 722 l 251 517 l 251 267 l 42 57 z "},"⁄":{"ha":235,"x_min":-76,"x_max":311,"o":"m -76 0 l 219 1007 l 311 1007 l 15 0 l -76 0 z "},"⁰":{"ha":429,"x_min":29,"x_max":401,"o":"m 215 681 q 260 719 253 681 q 268 864 268 757 l 268 918 q 268 933 268 924 q 267 1006 268 983 q 262 1056 267 1029 q 246 1092 257 1082 q 215 1101 235 1101 q 183 1091 194 1101 q 166 1050 171 1081 q 160 997 161 1019 q 160 918 160 975 l 160 864 q 160 785 160 807 q 166 732 161 763 q 183 691 171 701 q 215 681 194 681 m 215 597 q 69 656 108 597 q 29 850 29 715 l 29 932 q 69 1126 29 1067 q 215 1185 108 1185 q 360 1125 319 1185 q 401 932 401 1065 l 401 850 q 360 657 401 717 q 215 597 319 597 z "},"⁴":{"ha":422,"x_min":17,"x_max":406,"o":"m 219 608 l 219 742 l 17 742 l 17 832 l 213 1175 l 338 1175 l 338 842 l 406 842 l 406 742 l 338 742 l 338 608 l 219 608 m 114 842 l 219 842 l 219 1018 l 114 842 z "},"⁵":{"ha":400,"x_min":24,"x_max":375,"o":"m 196 597 q 24 765 24 597 l 24 768 l 147 768 l 147 765 q 158 701 147 722 q 196 681 168 681 q 231 703 222 681 q 240 775 240 726 l 240 815 q 193 910 240 910 q 149 860 160 910 l 33 865 l 58 1175 l 360 1175 l 360 1076 l 158 1076 l 147 936 q 181 978 156 961 q 240 996 207 996 q 344 953 313 996 q 375 818 375 910 l 375 775 q 196 597 375 597 z "},"⁶":{"ha":414,"x_min":32,"x_max":390,"o":"m 217 597 q 71 658 110 597 q 32 858 32 719 l 32 938 q 72 1127 32 1069 q 215 1185 111 1185 q 376 1033 376 1185 l 376 1026 l 254 1026 l 254 1031 q 214 1101 254 1101 q 186 1094 196 1101 q 172 1063 176 1086 q 167 1021 168 1039 q 167 956 167 1003 l 167 925 q 256 982 189 982 q 358 938 326 982 q 390 803 390 893 l 390 775 q 349 641 390 685 q 217 597 308 597 m 208 681 q 257 775 257 681 l 257 800 q 208 893 257 893 q 164 801 164 893 l 164 774 q 208 681 164 681 z "},"⁷":{"ha":314,"x_min":0,"x_max":314,"o":"m 47 608 q 210 1076 51 917 l 0 1076 l 0 1175 l 314 1175 l 314 1076 q 207 881 232 989 q 183 608 182 774 l 47 608 z "},"⁸":{"ha":421,"x_min":24,"x_max":396,"o":"m 211 597 q 69 637 115 597 q 24 769 24 676 q 110 910 24 878 q 58 952 82 921 q 35 1035 35 983 q 211 1185 35 1185 q 385 1035 385 1185 q 362 952 385 983 q 311 910 339 921 q 396 769 396 878 q 351 637 396 676 q 211 597 306 597 m 211 681 q 248 694 236 681 q 262 723 260 708 q 264 768 264 738 l 264 774 q 263 807 264 796 q 258 833 263 818 q 242 853 253 847 q 211 860 231 860 q 165 839 174 860 q 156 774 156 818 l 156 768 q 158 723 156 738 q 172 694 160 708 q 211 681 185 681 m 211 944 q 235 949 226 944 q 248 967 244 953 q 251 988 251 981 q 251 1021 251 994 l 251 1024 q 240 1092 251 1081 q 211 1101 231 1101 q 181 1090 190 1101 q 171 1066 172 1078 q 169 1024 169 1054 l 169 1021 q 171 978 169 990 q 181 956 172 967 q 211 944 190 944 z "},"⁹":{"ha":414,"x_min":24,"x_max":382,"o":"m 199 597 q 38 749 38 597 l 38 756 l 160 756 l 160 751 q 200 681 160 681 q 228 688 218 681 q 242 719 238 696 q 247 761 246 743 q 247 826 247 779 l 247 857 q 158 800 225 800 q 56 844 88 800 q 24 978 24 888 l 24 1007 q 65 1141 24 1097 q 197 1185 106 1185 q 343 1123 304 1185 q 382 924 382 1061 l 382 844 q 342 655 382 713 q 199 597 303 597 m 206 889 q 250 979 250 889 l 250 1008 q 206 1101 250 1101 q 168 1078 178 1101 q 158 1007 158 1054 l 158 982 q 168 912 158 935 q 206 889 178 889 z "},"⁺":{"ha":450,"x_min":25,"x_max":425,"o":"m 169 608 l 169 760 l 25 760 l 25 871 l 169 871 l 169 1024 l 282 1024 l 282 871 l 425 871 l 425 760 l 282 760 l 282 608 l 169 608 z "},"⁻":{"ha":450,"x_min":25,"x_max":425,"o":"m 25 749 l 25 861 l 425 861 l 425 749 l 25 749 z "},"⁼":{"ha":397,"x_min":33,"x_max":364,"o":"m 33 676 l 33 788 l 364 788 l 364 676 l 33 676 m 33 833 l 33 946 l 364 946 l 364 833 l 33 833 z "},"⁽":{"ha":210,"x_min":13,"x_max":226,"o":"m 121 474 q 45 630 78 536 q 13 829 13 724 q 45 1028 13 935 q 121 1185 78 1122 l 226 1185 q 133 829 133 1032 q 226 474 133 626 l 121 474 z "},"⁾":{"ha":214,"x_min":-17,"x_max":201,"o":"m -17 474 q 79 829 79 628 q -17 1185 79 1031 l 92 1185 q 168 1030 135 1124 q 201 829 201 936 q 168 628 201 722 q 92 474 135 535 l -17 474 z "},"ⁿ":{"ha":404,"x_min":32,"x_max":376,"o":"m 32 608 l 32 1028 l 165 1028 l 165 982 q 268 1040 192 1040 q 351 1008 326 1040 q 376 899 376 976 l 376 608 l 244 608 l 244 853 q 244 893 244 882 q 240 922 243 904 q 230 945 238 939 q 208 951 222 951 q 183 945 193 951 q 170 922 174 939 q 166 892 167 904 q 165 853 165 881 q 165 836 165 842 l 165 608 l 32 608 z "},"₀":{"ha":429,"x_min":29,"x_max":401,"o":"m 215 -107 q 260 -69 253 -107 q 268 76 268 -31 l 268 131 q 268 146 268 136 q 267 219 268 196 q 262 268 267 242 q 246 304 257 294 q 215 314 235 314 q 183 303 194 314 q 166 263 171 293 q 160 210 161 232 q 160 131 160 188 l 160 76 q 160 -3 160 19 q 166 -56 161 -25 q 183 -97 171 -86 q 215 -107 194 -107 m 215 -190 q 69 -131 108 -190 q 29 63 29 -72 l 29 144 q 69 338 29 279 q 215 397 108 397 q 360 338 319 397 q 401 144 401 278 l 401 63 q 360 -131 401 -71 q 215 -190 319 -190 z "},"₁":{"ha":253,"x_min":0,"x_max":213,"o":"m 90 -179 l 90 238 l 0 238 l 0 318 q 80 331 61 321 q 111 388 99 342 l 213 388 l 213 -179 l 90 -179 z "},"₂":{"ha":407,"x_min":33,"x_max":383,"o":"m 33 -179 l 33 -86 l 97 -7 q 217 156 185 101 q 249 253 249 210 q 204 314 249 314 q 173 292 182 314 q 164 218 164 271 l 164 210 l 38 210 l 38 217 q 81 353 38 308 q 215 397 124 397 q 340 362 297 397 q 382 261 382 326 q 349 142 382 203 q 240 -11 315 82 l 186 -81 l 383 -81 l 383 -179 l 33 -179 z "},"₃":{"ha":414,"x_min":25,"x_max":388,"o":"m 193 -190 q 25 -22 25 -190 l 25 -19 l 147 -19 l 147 -22 q 157 -87 147 -67 q 194 -107 167 -107 q 241 -84 229 -107 q 253 -18 253 -61 q 249 27 253 11 q 230 56 246 43 q 183 69 214 69 l 147 69 l 147 157 l 181 157 q 224 176 214 157 q 235 235 235 196 q 226 294 235 275 q 188 314 217 314 q 157 299 165 314 q 149 236 149 283 l 149 233 l 26 233 l 26 236 q 194 397 26 397 q 368 249 368 397 q 344 163 368 194 q 288 124 319 132 q 388 -18 388 92 q 338 -150 388 -110 q 193 -190 289 -190 z "},"₄":{"ha":422,"x_min":17,"x_max":406,"o":"m 219 -179 l 219 -46 l 17 -46 l 17 44 l 213 388 l 338 388 l 338 54 l 406 54 l 406 -46 l 338 -46 l 338 -179 l 219 -179 m 114 54 l 219 54 l 219 231 l 114 54 z "},"₅":{"ha":400,"x_min":24,"x_max":375,"o":"m 196 -190 q 24 -22 24 -190 l 24 -19 l 147 -19 l 147 -22 q 158 -86 147 -65 q 196 -107 168 -107 q 231 -84 222 -107 q 240 -12 240 -61 l 240 28 q 193 122 240 122 q 149 72 160 122 l 33 78 l 58 388 l 360 388 l 360 289 l 158 289 l 147 149 q 181 191 156 174 q 240 208 207 208 q 344 165 313 208 q 375 31 375 122 l 375 -12 q 196 -190 375 -190 z "},"₆":{"ha":414,"x_min":32,"x_max":390,"o":"m 217 -190 q 71 -129 110 -190 q 32 71 32 -68 l 32 150 q 72 340 32 282 q 215 397 111 397 q 376 246 376 397 l 376 239 l 254 239 l 254 243 q 214 314 254 314 q 186 306 196 314 q 172 275 176 299 q 167 233 168 251 q 167 168 167 215 l 167 138 q 256 194 189 194 q 358 150 326 194 q 390 15 390 106 l 390 -12 q 349 -147 390 -103 q 217 -190 308 -190 m 208 -107 q 257 -12 257 -107 l 257 13 q 208 106 257 106 q 164 14 164 106 l 164 -14 q 208 -107 164 -107 z "},"₇":{"ha":314,"x_min":0,"x_max":314,"o":"m 47 -179 q 210 289 51 129 l 0 289 l 0 388 l 314 388 l 314 289 q 207 94 232 201 q 183 -179 182 -14 l 47 -179 z "},"₈":{"ha":421,"x_min":24,"x_max":396,"o":"m 211 -190 q 69 -151 115 -190 q 24 -18 24 -111 q 110 122 24 90 q 58 165 82 133 q 35 247 35 196 q 211 397 35 397 q 385 247 385 397 q 362 165 385 196 q 311 122 339 133 q 396 -18 396 90 q 351 -151 396 -111 q 211 -190 306 -190 m 211 -107 q 248 -93 236 -107 q 262 -65 260 -79 q 264 -19 264 -50 l 264 -14 q 263 19 264 8 q 258 45 263 31 q 242 66 253 60 q 211 72 231 72 q 165 51 174 72 q 156 -14 156 31 l 156 -19 q 158 -65 156 -50 q 172 -93 160 -79 q 211 -107 185 -107 m 211 157 q 235 161 226 157 q 248 179 244 165 q 251 200 251 193 q 251 233 251 207 l 251 236 q 240 304 251 293 q 211 314 231 314 q 181 302 190 314 q 171 278 172 290 q 169 236 169 267 l 169 233 q 171 191 169 203 q 181 168 172 179 q 211 157 190 157 z "},"₉":{"ha":414,"x_min":24,"x_max":382,"o":"m 199 -190 q 38 -39 38 -190 l 38 -32 l 160 -32 l 160 -36 q 200 -107 160 -107 q 228 -99 218 -107 q 242 -68 238 -92 q 247 -26 246 -44 q 247 39 247 -8 l 247 69 q 158 13 225 13 q 56 56 88 13 q 24 190 24 100 l 24 219 q 65 353 24 310 q 197 397 106 397 q 343 335 304 397 q 382 136 382 274 l 382 57 q 342 -133 382 -75 q 199 -190 303 -190 m 206 101 q 250 192 250 101 l 250 221 q 206 314 250 314 q 168 290 178 314 q 158 219 158 267 l 158 194 q 168 124 158 147 q 206 101 178 101 z "},"₍":{"ha":210,"x_min":13,"x_max":226,"o":"m 121 -314 q 45 -158 78 -251 q 13 42 13 -64 q 45 241 13 147 q 121 397 78 335 l 226 397 q 133 42 133 244 q 226 -314 133 -161 l 121 -314 z "},"₎":{"ha":214,"x_min":-17,"x_max":201,"o":"m -17 -314 q 79 42 79 -160 q -17 397 79 243 l 92 397 q 168 242 135 336 q 201 42 201 149 q 168 -159 201 -65 q 92 -314 135 -253 l -17 -314 z "},"€":{"ha":839,"x_min":0,"x_max":794,"o":"m 0 529 l 49 625 l 136 625 q 213 933 142 839 q 469 1026 285 1026 q 714 943 633 1026 q 794 683 794 860 l 794 671 l 590 671 l 590 681 q 560 835 590 796 q 468 874 531 874 q 376 815 399 874 q 350 625 353 756 l 594 625 l 546 529 l 350 529 l 350 472 l 350 468 l 529 468 l 479 372 l 350 372 q 377 192 353 249 q 468 136 401 136 q 560 175 531 136 q 590 329 590 214 l 590 339 l 794 339 l 794 326 q 714 67 794 150 q 469 -17 633 -17 q 216 74 288 -17 q 138 372 144 165 l 0 372 l 49 468 l 136 468 l 136 529 l 0 529 z "},"ℓ":{"ha":718,"x_min":0,"x_max":658,"o":"m 421 -17 q 233 43 292 -17 q 174 244 174 103 l 174 254 l 72 178 l 0 286 l 174 418 l 174 719 q 241 938 174 864 q 432 1011 308 1011 q 597 953 535 1011 q 658 788 658 894 q 644 694 658 739 q 610 619 629 650 q 549 548 592 589 q 476 483 506 507 q 382 411 446 460 l 365 399 l 365 251 q 388 158 365 186 q 458 129 410 129 q 586 181 517 129 l 656 68 q 421 -17 556 -17 m 365 757 l 365 565 l 371 569 q 461 665 433 617 q 489 788 489 714 q 428 879 489 879 q 379 851 393 879 q 365 757 365 822 z "},"№":{"ha":1238,"x_min":75,"x_max":1200,"o":"m 937 627 q 942 611 937 627 q 983 594 947 594 q 1029 627 1019 594 q 1039 739 1039 660 l 1039 779 q 1038 841 1039 819 q 1031 885 1036 863 q 1015 915 1026 907 q 983 924 1003 924 q 937 891 947 924 q 926 779 926 858 l 926 739 q 937 627 926 660 m 983 507 q 788 722 788 507 l 788 796 q 983 1011 788 1011 q 1178 796 1178 1011 l 1178 722 q 983 507 1178 507 m 789 288 l 789 454 l 1200 454 l 1200 288 l 789 288 m 75 0 l 75 1007 l 331 1007 l 549 283 l 549 1007 l 744 1007 l 744 0 l 489 0 l 271 724 l 271 0 l 75 0 z "},"℗":{"ha":1146,"x_min":60,"x_max":1086,"o":"m 273 191 q 332 129 273 191 q 572 67 392 67 q 872 191 753 67 q 992 507 992 315 q 872 820 992 697 q 572 943 753 943 q 273 820 392 943 q 154 507 154 697 q 273 191 154 315 m 936 133 q 861 58 936 133 q 572 -17 786 -17 q 209 133 358 -17 q 60 507 60 282 q 209 879 60 732 q 572 1026 358 1026 q 936 879 786 1026 q 1086 507 1086 732 q 936 133 1086 282 m 556 226 l 404 226 l 404 801 l 581 801 q 750 765 700 800 q 800 629 800 729 q 774 538 800 575 q 717 486 747 500 q 654 468 688 472 l 556 464 l 556 226 m 556 693 l 556 560 l 578 560 q 621 574 613 561 q 629 629 629 588 q 621 681 629 669 q 576 693 613 693 l 556 693 z "},"™":{"ha":979,"x_min":19,"x_max":919,"o":"m 415 453 l 415 1007 l 615 1007 l 667 618 l 719 1007 l 919 1007 l 919 453 l 789 453 l 789 868 l 788 868 l 782 819 l 722 453 l 611 453 l 551 819 l 546 868 l 544 868 l 544 453 l 415 453 m 121 453 l 121 903 l 19 903 l 19 1007 l 369 1007 l 369 903 l 268 903 l 268 453 l 121 453 z "},"℮":{"ha":775,"x_min":22,"x_max":753,"o":"m 183 421 l 590 421 l 590 647 q 389 719 518 719 q 183 649 251 719 l 183 421 m 399 -17 q 122 95 221 -17 q 22 375 22 207 q 124 656 22 544 q 390 767 226 767 q 653 653 557 767 q 753 376 750 539 l 183 376 l 183 106 q 278 51 217 72 q 408 29 339 29 q 678 206 603 29 l 733 206 q 612 44 696 106 q 399 -17 528 -17 z "},"⅓":{"ha":901,"x_min":0,"x_max":875,"o":"m 90 440 l 90 857 l 0 857 l 0 938 q 80 951 61 940 q 111 1007 99 961 l 213 1007 l 213 440 l 90 440 m 176 0 l 472 1007 l 564 1007 l 268 0 l 176 0 m 681 -11 q 513 157 513 -11 l 513 160 l 635 160 l 635 157 q 644 92 635 113 q 682 72 654 72 q 728 95 717 72 q 740 161 740 118 q 737 206 740 190 q 717 235 733 222 q 671 249 701 249 l 635 249 l 635 336 l 668 336 q 712 356 701 336 q 722 414 722 375 q 713 474 722 454 q 675 493 704 493 q 644 478 653 493 q 636 415 636 463 l 636 413 l 514 413 l 514 415 q 682 576 514 576 q 856 428 856 576 q 831 342 856 374 q 775 303 807 311 q 875 161 875 271 q 826 29 875 69 q 681 -11 776 -11 z "},"⅔":{"ha":1056,"x_min":33,"x_max":1029,"o":"m 33 440 l 33 533 l 97 613 q 217 775 185 721 q 249 872 249 829 q 204 933 249 933 q 173 912 182 933 q 164 838 164 890 l 164 829 l 38 829 l 38 836 q 81 972 38 928 q 215 1017 124 1017 q 340 981 297 1017 q 382 881 382 946 q 349 762 382 822 q 240 608 315 701 l 186 539 l 383 539 l 383 440 l 33 440 m 331 0 l 626 1007 l 718 1007 l 422 0 l 331 0 m 835 -11 q 667 157 667 -11 l 667 160 l 789 160 l 789 157 q 799 92 789 113 q 836 72 808 72 q 883 95 871 72 q 894 161 894 118 q 891 206 894 190 q 872 235 888 222 q 825 249 856 249 l 789 249 l 789 336 l 822 336 q 866 356 856 336 q 876 414 876 375 q 867 474 876 454 q 829 493 858 493 q 799 478 807 493 q 790 415 790 463 l 790 413 l 668 413 l 668 415 q 836 576 668 576 q 1010 428 1010 576 q 985 342 1010 374 q 929 303 961 311 q 1029 161 1029 271 q 980 29 1029 69 q 835 -11 931 -11 z "},"⅕":{"ha":888,"x_min":0,"x_max":863,"o":"m 90 440 l 90 857 l 0 857 l 0 938 q 80 951 61 940 q 111 1007 99 961 l 213 1007 l 213 440 l 90 440 m 176 0 l 472 1007 l 564 1007 l 268 0 l 176 0 m 683 -11 q 511 157 511 -11 l 511 160 l 635 160 l 635 157 q 645 93 635 114 q 683 72 656 72 q 719 95 710 72 q 728 167 728 118 l 728 207 q 681 301 728 301 q 636 251 647 301 l 521 257 l 546 567 l 847 567 l 847 468 l 646 468 l 635 328 q 669 370 643 353 q 728 388 694 388 q 831 344 800 388 q 863 210 863 301 l 863 167 q 683 -11 863 -11 z "},"⅖":{"ha":1042,"x_min":33,"x_max":1017,"o":"m 33 440 l 33 533 l 97 613 q 217 775 185 721 q 249 872 249 829 q 204 933 249 933 q 173 912 182 933 q 164 838 164 890 l 164 829 l 38 829 l 38 836 q 81 972 38 928 q 215 1017 124 1017 q 340 981 297 1017 q 382 881 382 946 q 349 762 382 822 q 240 608 315 701 l 186 539 l 383 539 l 383 440 l 33 440 m 331 0 l 626 1007 l 718 1007 l 422 0 l 331 0 m 838 -11 q 665 157 665 -11 l 665 160 l 789 160 l 789 157 q 799 93 789 114 q 838 72 810 72 q 873 95 864 72 q 882 167 882 118 l 882 207 q 835 301 882 301 q 790 251 801 301 l 675 257 l 700 567 l 1001 567 l 1001 468 l 800 468 l 789 328 q 823 370 797 353 q 882 388 849 388 q 985 344 954 388 q 1017 210 1017 301 l 1017 167 q 838 -11 1017 -11 z "},"⅗":{"ha":1049,"x_min":25,"x_max":1024,"o":"m 193 429 q 25 597 25 429 l 25 600 l 147 600 l 147 597 q 157 533 147 553 q 194 513 167 513 q 241 535 229 513 q 253 601 253 558 q 249 647 253 631 q 230 676 246 663 q 183 689 214 689 l 147 689 l 147 776 l 181 776 q 224 796 214 776 q 235 854 235 815 q 226 914 235 894 q 188 933 217 933 q 157 918 165 933 q 149 856 149 903 l 149 853 l 26 853 l 26 856 q 194 1017 26 1017 q 368 868 368 1017 q 344 783 368 814 q 288 743 319 751 q 388 601 388 711 q 338 469 388 510 q 193 429 289 429 m 338 0 l 633 1007 l 725 1007 l 429 0 l 338 0 m 844 -11 q 672 157 672 -11 l 672 160 l 796 160 l 796 157 q 806 93 796 114 q 844 72 817 72 q 880 95 871 72 q 889 167 889 118 l 889 207 q 842 301 889 301 q 797 251 808 301 l 682 257 l 707 567 l 1008 567 l 1008 468 l 807 468 l 796 328 q 830 370 804 353 q 889 388 856 388 q 992 344 961 388 q 1024 210 1024 301 l 1024 167 q 844 -11 1024 -11 z "},"⅘":{"ha":1057,"x_min":17,"x_max":1032,"o":"m 219 440 l 219 574 l 17 574 l 17 664 l 213 1007 l 338 1007 l 338 674 l 406 674 l 406 574 l 338 574 l 338 440 l 219 440 m 114 674 l 219 674 l 219 850 l 114 674 m 346 0 l 642 1007 l 733 1007 l 438 0 l 346 0 m 853 -11 q 681 157 681 -11 l 681 160 l 804 160 l 804 157 q 815 93 804 114 q 853 72 825 72 q 888 95 879 72 q 897 167 897 118 l 897 207 q 850 301 897 301 q 806 251 817 301 l 690 257 l 715 567 l 1017 567 l 1017 468 l 815 468 l 804 328 q 838 370 813 353 q 897 388 864 388 q 1001 344 969 388 q 1032 210 1032 301 l 1032 167 q 853 -11 1032 -11 z "},"⅙":{"ha":901,"x_min":0,"x_max":878,"o":"m 90 440 l 90 857 l 0 857 l 0 938 q 80 951 61 940 q 111 1007 99 961 l 213 1007 l 213 440 l 90 440 m 176 0 l 472 1007 l 564 1007 l 268 0 l 176 0 m 704 -11 q 558 50 597 -11 q 519 250 519 111 l 519 329 q 559 519 519 461 q 703 576 599 576 q 864 425 864 576 l 864 418 l 742 418 l 742 422 q 701 493 742 493 q 674 485 683 493 q 660 454 664 478 q 655 413 656 431 q 654 347 654 394 l 654 317 q 743 374 676 374 q 846 329 814 374 q 878 194 878 285 l 878 167 q 837 33 878 76 q 704 -11 796 -11 m 696 72 q 744 167 744 72 l 744 192 q 696 285 744 285 q 651 193 651 285 l 651 165 q 696 72 651 72 z "},"⅚":{"ha":1049,"x_min":24,"x_max":1025,"o":"m 196 429 q 24 597 24 429 l 24 600 l 147 600 l 147 597 q 158 533 147 554 q 196 513 168 513 q 231 535 222 513 q 240 607 240 558 l 240 647 q 193 742 240 742 q 149 692 160 742 l 33 697 l 58 1007 l 360 1007 l 360 908 l 158 908 l 147 768 q 181 810 156 793 q 240 828 207 828 q 344 785 313 828 q 375 650 375 742 l 375 607 q 196 429 375 429 m 324 0 l 619 1007 l 711 1007 l 415 0 l 324 0 m 851 -11 q 706 50 744 -11 q 667 250 667 111 l 667 329 q 706 519 667 461 q 850 576 746 576 q 1011 425 1011 576 l 1011 418 l 889 418 l 889 422 q 849 493 889 493 q 821 485 831 493 q 807 454 811 478 q 802 413 803 431 q 801 347 801 394 l 801 317 q 890 374 824 374 q 993 329 961 374 q 1025 194 1025 285 l 1025 167 q 984 33 1025 76 q 851 -11 943 -11 m 843 72 q 892 167 892 72 l 892 192 q 843 285 892 285 q 799 193 799 285 l 799 165 q 843 72 799 72 z "},"⅛":{"ha":908,"x_min":0,"x_max":883,"o":"m 90 440 l 90 857 l 0 857 l 0 938 q 80 951 61 940 q 111 1007 99 961 l 213 1007 l 213 440 l 90 440 m 176 0 l 472 1007 l 564 1007 l 268 0 l 176 0 m 699 -11 q 557 28 603 -11 q 511 161 511 68 q 597 301 511 269 q 546 344 569 313 q 522 426 522 375 q 699 576 522 576 q 872 426 872 576 q 849 344 872 375 q 799 301 826 313 q 883 161 883 269 q 838 28 883 68 q 699 -11 793 -11 m 699 72 q 735 86 724 72 q 749 115 747 100 q 751 160 751 129 l 751 165 q 751 199 751 188 q 745 224 750 210 q 729 245 740 239 q 699 251 718 251 q 652 231 661 251 q 643 165 643 210 l 643 160 q 645 115 643 129 q 660 86 647 100 q 699 72 672 72 m 699 336 q 723 340 714 336 q 735 358 732 344 q 739 379 739 372 q 739 413 739 386 l 739 415 q 728 483 739 472 q 699 493 718 493 q 669 481 678 493 q 658 458 660 469 q 657 415 657 446 l 657 413 q 658 370 657 382 q 669 347 660 358 q 699 336 678 336 z "},"⅜":{"ha":1069,"x_min":25,"x_max":1044,"o":"m 193 429 q 25 597 25 429 l 25 600 l 147 600 l 147 597 q 157 533 147 553 q 194 513 167 513 q 241 535 229 513 q 253 601 253 558 q 249 647 253 631 q 230 676 246 663 q 183 689 214 689 l 147 689 l 147 776 l 181 776 q 224 796 214 776 q 235 854 235 815 q 226 914 235 894 q 188 933 217 933 q 157 918 165 933 q 149 856 149 903 l 149 853 l 26 853 l 26 856 q 194 1017 26 1017 q 368 868 368 1017 q 344 783 368 814 q 288 743 319 751 q 388 601 388 711 q 338 469 388 510 q 193 429 289 429 m 338 0 l 633 1007 l 725 1007 l 429 0 l 338 0 m 860 -11 q 718 28 764 -11 q 672 161 672 68 q 758 301 672 269 q 707 344 731 313 q 683 426 683 375 q 860 576 683 576 q 1033 426 1033 576 q 1010 344 1033 375 q 960 301 988 313 q 1044 161 1044 269 q 999 28 1044 68 q 860 -11 954 -11 m 860 72 q 897 86 885 72 q 910 115 908 100 q 913 160 913 129 l 913 165 q 912 199 913 188 q 906 224 911 210 q 890 245 901 239 q 860 251 879 251 q 813 231 822 251 q 804 165 804 210 l 804 160 q 806 115 804 129 q 821 86 808 100 q 860 72 833 72 m 860 336 q 884 340 875 336 q 897 358 893 344 q 900 379 900 372 q 900 413 900 386 l 900 415 q 889 483 900 472 q 860 493 879 493 q 830 481 839 493 q 819 458 821 469 q 818 415 818 446 l 818 413 q 819 370 818 382 q 830 347 821 358 q 860 336 839 336 z "},"⅝":{"ha":1056,"x_min":24,"x_max":1031,"o":"m 196 429 q 24 597 24 429 l 24 600 l 147 600 l 147 597 q 158 533 147 554 q 196 513 168 513 q 231 535 222 513 q 240 607 240 558 l 240 647 q 193 742 240 742 q 149 692 160 742 l 33 697 l 58 1007 l 360 1007 l 360 908 l 158 908 l 147 768 q 181 810 156 793 q 240 828 207 828 q 344 785 313 828 q 375 650 375 742 l 375 607 q 196 429 375 429 m 324 0 l 619 1007 l 711 1007 l 415 0 l 324 0 m 846 -11 q 704 28 750 -11 q 658 161 658 68 q 744 301 658 269 q 693 344 717 313 q 669 426 669 375 q 846 576 669 576 q 1019 426 1019 576 q 997 344 1019 375 q 946 301 974 313 q 1031 161 1031 269 q 985 28 1031 68 q 846 -11 940 -11 m 846 72 q 883 86 871 72 q 897 115 894 100 q 899 160 899 129 l 899 165 q 898 199 899 188 q 892 224 897 210 q 876 245 888 239 q 846 251 865 251 q 799 231 808 251 q 790 165 790 210 l 790 160 q 792 115 790 129 q 807 86 794 100 q 846 72 819 72 m 846 336 q 870 340 861 336 q 883 358 879 344 q 886 379 886 372 q 886 413 886 386 l 886 415 q 875 483 886 472 q 846 493 865 493 q 816 481 825 493 q 806 458 807 469 q 804 415 804 446 l 804 413 q 806 370 804 382 q 816 347 807 358 q 846 336 825 336 z "},"⅞":{"ha":969,"x_min":0,"x_max":944,"o":"m 47 440 q 210 908 51 749 l 0 908 l 0 1007 l 314 1007 l 314 908 q 207 713 232 821 q 183 440 182 606 l 47 440 m 238 0 l 533 1007 l 625 1007 l 329 0 l 238 0 m 760 -11 q 618 28 664 -11 q 572 161 572 68 q 658 301 572 269 q 607 344 631 313 q 583 426 583 375 q 760 576 583 576 q 933 426 933 576 q 910 344 933 375 q 860 301 888 313 q 944 161 944 269 q 899 28 944 68 q 760 -11 854 -11 m 760 72 q 797 86 785 72 q 810 115 808 100 q 813 160 813 129 l 813 165 q 812 199 813 188 q 806 224 811 210 q 790 245 801 239 q 760 251 779 251 q 713 231 722 251 q 704 165 704 210 l 704 160 q 706 115 704 129 q 721 86 708 100 q 760 72 733 72 m 760 336 q 784 340 775 336 q 797 358 793 344 q 800 379 800 372 q 800 413 800 386 l 800 415 q 789 483 800 472 q 760 493 779 493 q 730 481 739 493 q 719 458 721 469 q 718 415 718 446 l 718 413 q 719 370 718 382 q 730 347 721 358 q 760 336 739 336 z "},"⅟":{"ha":488,"x_min":0,"x_max":564,"o":"m 90 440 l 90 857 l 0 857 l 0 938 q 80 951 61 940 q 111 1007 99 961 l 213 1007 l 213 440 l 90 440 m 176 0 l 472 1007 l 564 1007 l 268 0 l 176 0 z "},"←":{"ha":1111,"x_min":28,"x_max":1057,"o":"m 1057 282 l 364 282 l 581 63 l 460 -58 l 28 374 l 460 806 l 583 685 l 364 465 l 1057 465 l 1057 282 z "},"↑":{"ha":1111,"x_min":124,"x_max":988,"o":"m 464 0 l 464 693 l 244 476 l 124 597 l 556 1029 l 988 597 l 867 474 l 647 693 l 647 0 l 464 0 z "},"→":{"ha":1111,"x_min":54,"x_max":1083,"o":"m 54 465 l 747 465 l 531 685 l 651 806 l 1083 374 l 651 -58 l 528 63 l 747 282 l 54 282 l 54 465 z "},"↓":{"ha":1111,"x_min":124,"x_max":988,"o":"m 647 1007 l 647 314 l 867 531 l 988 410 l 556 -22 l 124 410 l 244 533 l 464 314 l 464 1007 l 647 1007 z "},"↖":{"ha":1111,"x_min":192,"x_max":985,"o":"m 854 -46 l 364 444 l 364 136 l 192 136 l 192 747 l 803 747 l 803 574 l 494 574 l 985 85 l 854 -46 z "},"↗":{"ha":1111,"x_min":126,"x_max":919,"o":"m 126 85 l 617 575 l 308 575 l 308 747 l 919 747 l 919 136 l 746 136 l 746 444 l 257 -46 l 126 85 z "},"↘":{"ha":1111,"x_min":126,"x_max":919,"o":"m 257 793 l 747 303 l 747 611 l 919 611 l 919 0 l 308 0 l 308 174 l 617 174 l 126 663 l 257 793 z "},"↙":{"ha":1111,"x_min":192,"x_max":985,"o":"m 985 663 l 494 172 l 803 172 l 803 0 l 192 0 l 192 611 l 365 611 l 365 303 l 854 793 l 985 663 z "},"↞":{"ha":1111,"x_min":28,"x_max":1057,"o":"m 1057 282 l 753 282 l 969 63 l 849 -58 l 508 282 l 364 282 l 581 63 l 460 -58 l 28 374 l 460 806 l 583 685 l 364 465 l 508 465 l 849 806 l 972 685 l 753 465 l 1057 465 l 1057 282 z "},"↟":{"ha":1111,"x_min":124,"x_max":988,"o":"m 464 0 l 464 304 l 244 88 l 124 208 l 464 549 l 464 693 l 244 476 l 124 597 l 556 1029 l 988 597 l 867 474 l 647 693 l 647 549 l 988 208 l 867 85 l 647 304 l 647 0 l 464 0 z "},"↠":{"ha":1111,"x_min":54,"x_max":1083,"o":"m 54 465 l 358 465 l 142 685 l 263 806 l 603 465 l 747 465 l 531 685 l 651 806 l 1083 374 l 651 -58 l 528 63 l 747 282 l 603 282 l 263 -58 l 139 63 l 358 282 l 54 282 l 54 465 z "},"↡":{"ha":1111,"x_min":124,"x_max":988,"o":"m 647 1007 l 647 703 l 867 919 l 988 799 l 647 458 l 647 314 l 867 531 l 988 410 l 556 -22 l 124 410 l 244 533 l 464 314 l 464 458 l 124 799 l 244 922 l 464 703 l 464 1007 l 647 1007 z "},"↢":{"ha":1111,"x_min":28,"x_max":1057,"o":"m 1054 63 l 933 -58 l 593 282 l 364 282 l 581 63 l 460 -58 l 28 374 l 460 806 l 583 685 l 364 465 l 593 465 l 933 806 l 1057 685 l 746 374 l 1054 63 z "},"↣":{"ha":1111,"x_min":67,"x_max":1096,"o":"m 378 374 l 67 685 l 190 806 l 531 465 l 760 465 l 540 685 l 664 806 l 1096 374 l 664 -58 l 543 63 l 760 282 l 531 282 l 190 -58 l 69 63 l 378 374 z "},"↤":{"ha":1111,"x_min":28,"x_max":1001,"o":"m 1001 0 l 818 0 l 818 282 l 364 282 l 581 63 l 460 -58 l 28 374 l 460 806 l 583 685 l 364 465 l 818 465 l 818 747 l 1001 747 l 1001 0 z "},"↥":{"ha":1111,"x_min":124,"x_max":988,"o":"m 182 0 l 182 183 l 464 183 l 464 693 l 244 476 l 124 597 l 556 1029 l 988 597 l 867 474 l 647 693 l 647 183 l 929 183 l 929 0 l 182 0 z "},"↦":{"ha":1111,"x_min":110,"x_max":1083,"o":"m 110 747 l 293 747 l 293 465 l 747 465 l 531 685 l 651 806 l 1083 374 l 651 -58 l 528 63 l 747 282 l 293 282 l 293 0 l 110 0 l 110 747 z "},"↧":{"ha":1111,"x_min":124,"x_max":988,"o":"m 929 1007 l 929 824 l 647 824 l 647 314 l 867 531 l 988 410 l 556 -22 l 124 410 l 244 533 l 464 314 l 464 824 l 182 824 l 182 1007 l 929 1007 z "},"↰":{"ha":1111,"x_min":28,"x_max":1001,"o":"m 1001 -243 l 818 -243 l 818 282 l 364 282 l 581 63 l 460 -58 l 28 374 l 460 806 l 583 685 l 364 465 l 1001 465 l 1001 -243 z "},"↱":{"ha":1111,"x_min":165,"x_max":1083,"o":"m 1083 374 l 651 -58 l 531 63 l 747 282 l 349 282 l 349 -243 l 165 -243 l 165 465 l 747 465 l 528 685 l 651 806 l 1083 374 z "},"↲":{"ha":1111,"x_min":28,"x_max":1001,"o":"m 818 465 l 818 1007 l 1001 1007 l 1001 282 l 364 282 l 583 63 l 460 -58 l 28 374 l 460 806 l 581 685 l 364 465 l 818 465 z "},"↳":{"ha":1111,"x_min":110,"x_max":1083,"o":"m 110 1007 l 293 1007 l 293 465 l 747 465 l 531 685 l 651 806 l 1083 374 l 651 -58 l 528 63 l 747 282 l 110 282 l 110 1007 z "},"∂":{"ha":714,"x_min":36,"x_max":669,"o":"m 350 -18 q 116 71 196 -18 q 36 310 36 160 l 36 349 q 110 578 36 499 q 321 657 183 657 q 490 585 426 657 l 493 589 q 474 700 489 654 q 424 784 458 746 q 325 842 389 822 q 167 864 261 863 l 167 1025 q 408 988 308 1025 q 563 876 507 951 q 644 703 619 801 q 669 471 669 606 l 669 442 q 656 257 669 335 q 608 114 642 179 q 509 15 574 49 q 350 -18 444 -18 m 349 128 q 468 301 468 128 l 468 338 q 349 511 468 511 q 231 336 231 511 l 231 304 q 349 128 231 128 z "},"∏":{"ha":788,"x_min":82,"x_max":704,"o":"m 82 -243 l 82 1007 l 704 1007 l 704 -243 l 507 -243 l 507 838 l 279 838 l 279 -243 l 82 -243 z "},"∑":{"ha":660,"x_min":46,"x_max":636,"o":"m 46 -243 l 46 -81 l 333 382 l 51 842 l 51 1007 l 636 1007 l 636 838 l 263 838 l 536 382 l 256 -74 l 636 -74 l 636 -243 l 46 -243 z "},"−":{"ha":761,"x_min":22,"x_max":739,"o":"m 22 258 l 22 440 l 739 440 l 739 258 l 22 258 z "},"√":{"ha":872,"x_min":0,"x_max":872,"o":"m 368 -243 l 193 121 l 72 61 l 0 228 l 267 360 l 440 -6 l 676 1007 l 872 1007 l 568 -243 l 368 -243 z "},"∞":{"ha":1074,"x_min":44,"x_max":1028,"o":"m 775 117 q 538 238 651 117 q 296 118 424 118 q 114 185 183 118 q 44 356 44 251 q 115 526 44 460 q 300 593 186 593 q 535 479 425 593 q 774 593 642 593 q 957 526 886 593 q 1028 356 1028 460 q 958 183 1028 250 q 775 117 889 117 m 300 278 q 433 357 363 278 q 303 433 368 433 q 238 411 263 433 q 213 356 213 389 q 237 300 213 322 q 300 278 261 278 m 772 278 q 835 300 811 278 q 860 356 860 322 q 835 411 860 389 q 769 433 810 433 q 639 357 704 433 q 772 278 710 278 z "},"∫":{"ha":600,"x_min":0,"x_max":600,"o":"m 149 -246 q 44 -214 89 -246 q 0 -125 0 -182 q 23 -65 0 -89 q 85 -42 46 -42 q 137 -62 114 -42 q 160 -124 160 -82 q 156 -160 160 -139 q 208 6 208 -147 q 203 134 208 32 q 197 306 197 236 l 197 589 q 211 770 197 692 q 249 896 225 849 q 306 973 272 943 q 374 1014 339 1003 q 453 1025 410 1025 q 557 993 514 1025 q 600 903 600 961 q 577 842 600 865 q 515 819 554 819 q 463 839 486 819 q 440 901 440 858 q 444 938 440 919 q 388 774 388 926 q 395 639 388 739 q 403 414 403 539 l 403 189 q 383 -28 403 61 q 326 -162 363 -117 q 246 -227 289 -208 q 149 -246 203 -246 z "},"≈":{"ha":761,"x_min":28,"x_max":733,"o":"m 28 76 q 81 276 32 208 q 246 343 131 343 q 347 320 300 343 q 431 274 393 297 q 501 250 468 250 q 552 271 536 250 q 569 343 568 292 l 733 343 q 680 144 729 211 q 517 76 631 76 q 381 122 457 76 q 260 168 304 168 q 209 148 225 168 q 190 76 193 128 l 28 76 m 28 397 q 81 597 32 529 q 246 665 131 665 q 347 642 300 665 q 431 596 393 619 q 501 572 468 572 q 552 593 536 572 q 569 665 568 614 l 733 665 q 680 465 729 533 q 517 397 631 397 q 381 444 457 397 q 260 490 304 490 q 209 470 225 490 q 190 397 193 450 l 28 397 z "},"≠":{"ha":761,"x_min":82,"x_max":679,"o":"m 82 443 l 82 606 l 385 606 l 443 747 l 633 747 l 575 606 l 679 606 l 679 443 l 507 443 l 450 303 l 679 303 l 679 142 l 383 142 l 325 0 l 135 0 l 193 142 l 82 142 l 82 303 l 260 303 l 317 443 l 82 443 z "},"≤":{"ha":761,"x_min":67,"x_max":694,"o":"m 694 771 l 694 601 l 319 485 l 694 368 l 694 197 l 67 396 l 67 572 l 694 771 m 67 0 l 67 161 l 694 161 l 694 0 l 67 0 z "},"≥":{"ha":761,"x_min":67,"x_max":694,"o":"m 67 601 l 67 771 l 694 572 l 694 396 l 67 197 l 67 368 l 442 485 l 67 601 m 694 161 l 694 0 l 67 0 l 67 161 l 694 161 z "},"■":{"ha":867,"x_min":60,"x_max":807,"o":"m 60 0 l 60 747 l 807 747 l 807 0 l 60 0 z "},"□":{"ha":867,"x_min":60,"x_max":807,"o":"m 60 0 l 60 747 l 807 747 l 807 0 l 60 0 m 243 564 l 243 183 l 624 183 l 624 564 l 243 564 z "},"◊":{"ha":797,"x_min":3,"x_max":794,"o":"m 404 186 l 592 476 l 404 767 l 215 476 l 404 186 m 403 -133 l 3 476 l 403 1085 l 794 476 l 403 -133 z "},"○":{"ha":836,"x_min":25,"x_max":811,"o":"m 418 582 q 271 522 328 582 q 214 374 214 461 q 271 224 214 285 q 418 164 328 164 q 565 225 507 164 q 622 374 622 286 q 565 522 622 461 q 418 582 507 582 m 138 650 q 194 707 138 650 q 418 764 250 764 q 699 650 586 764 q 811 374 811 536 q 699 96 811 210 q 418 -18 586 -18 q 138 96 250 -18 q 25 374 25 210 q 138 650 25 536 z "},"●":{"ha":836,"x_min":25,"x_max":811,"o":"m 699 96 q 642 39 699 96 q 418 -18 586 -18 q 138 96 250 -18 q 25 372 25 210 q 138 650 25 536 q 418 764 250 764 q 699 650 586 764 q 811 372 811 536 q 699 96 811 210 z "},"ﬁ":{"ha":767,"x_min":-3,"x_max":707,"o":"m 86 0 l 86 615 l -3 615 l -3 747 l 86 747 l 86 807 q 142 967 86 928 q 332 1007 199 1007 l 426 1007 l 426 881 l 375 881 q 315 867 331 881 q 300 810 300 853 l 300 747 l 426 747 l 426 615 l 300 615 l 300 0 l 86 0 m 493 829 l 493 1007 l 707 1007 l 707 829 l 493 829 m 493 0 l 493 747 l 707 747 l 707 0 l 493 0 z "},"ﬂ":{"ha":767,"x_min":-3,"x_max":707,"o":"m 86 0 l 86 615 l -3 615 l -3 747 l 86 747 l 86 807 q 142 967 86 928 q 332 1007 199 1007 l 426 1007 l 426 881 l 375 881 q 315 867 331 881 q 300 810 300 853 l 300 747 l 426 747 l 426 615 l 300 615 l 300 0 l 86 0 m 493 0 l 493 1007 l 707 1007 l 707 0 l 493 0 z "}}}
